<?xml version="1.0" standalone="no"?>
<!DOCTYPE svg PUBLIC "-//W3C//DTD SVG 1.1//EN" "http://www.w3.org/Graphics/SVG/1.1/DTD/svg11.dtd" >
<svg xmlns="http://www.w3.org/2000/svg" xmlns:xlink="http://www.w3.org/1999/xlink" version="1.1">
<metadata>
Created by FontForge 20150318 at Tue Aug  4 06:54:44 2015
 By uniteet7
Copyright (c) 2010 by Jonathan Hill. All rights reserved.
</metadata>
<defs>
<font id="lintel_italic" horiz-adv-x="1042" >
  <font-face 
    font-family="lintel_italic"
    font-weight="400"
    font-stretch="normal"
    units-per-em="2048"
    panose-1="0 0 5 0 0 0 0 0 0 0"
    ascent="1536"
    descent="-512"
    x-height="1026"
    cap-height="1434"
    bbox="-82 -449 2025 1873"
    underline-thickness="102"
    underline-position="-102"
    unicode-range="U+000D-E000"
  />
<missing-glyph horiz-adv-x="748" 
d="M68 0v1365h544v-1365h-544zM136 68h408v1229h-408v-1229z" />
    <glyph glyph-name=".notdef" horiz-adv-x="748" 
d="M68 0v1365h544v-1365h-544zM136 68h408v1229h-408v-1229z" />
    <glyph glyph-name="glyph1" horiz-adv-x="2048" 
 />
    <glyph glyph-name="glyph1" horiz-adv-x="2048" 
 />
    <glyph glyph-name="uni000D" unicode="&#xd;" horiz-adv-x="2048" 
 />
    <glyph glyph-name="space" unicode=" " horiz-adv-x="614" 
 />
    <glyph glyph-name="exclam" unicode="!" horiz-adv-x="323" 
d="M105 66q0 32 25 57.5t57 25.5q30 0 51 -21.5t21 -51.5q0 -32 -25 -57t-57 -25q-31 0 -51.5 21t-20.5 51zM172 305l173 1129h155l-224 -1129h-104z" />
    <glyph glyph-name="quotedbl" unicode="&#x22;" horiz-adv-x="567" 
d="M278 1003l58 468h132l-105 -468h-85zM575 1003l57 468h134l-107 -468h-84z" />
    <glyph glyph-name="numbersign" unicode="#" horiz-adv-x="1392" 
d="M152 415l21 121h283l125 300h-325l21 121h354l195 477h123l-194 -477h350l196 477h124l-196 -477h268l-22 -121h-295l-125 -300h338l-21 -121h-366l-170 -415h-124l171 415h-352l-170 -415h-124l170 415h-255zM580 536h352l124 300h-352z" />
    <glyph glyph-name="dollar" unicode="$" horiz-adv-x="1185" 
d="M158 330q0 26 3 52h127q-3 -21 -3 -42q0 -105 79 -173t238 -68q189 0 297.5 81.5t132.5 220.5q3 20 3 37q0 40 -17.5 73t-44 56t-71 45t-83.5 37t-97 35q-4 1 -6 2t-5.5 2t-6.5 2q-74 23 -124 42.5t-104.5 49t-87 61t-54 77t-21.5 100.5q0 29 4 56q28 167 157.5 265
t318.5 112l30 144h103l-30 -147q164 -10 265 -92t101 -222q0 -25 -5 -60h-127q4 21 4 46q0 106 -81 159.5t-213 53.5q-151 0 -262 -71t-132 -193q-3 -17 -3 -31q0 -34 15.5 -63t40 -50t67.5 -42.5t84 -36.5t104 -36q76 -22 134.5 -45.5t112.5 -55.5t88.5 -69t55 -85.5
t20.5 -106.5q0 -26 -7 -68q-31 -173 -157 -282.5t-357 -122.5l-29 -141h-103l30 146q-185 11 -284.5 110t-99.5 238z" />
    <glyph glyph-name="percent" unicode="%" horiz-adv-x="1511" 
d="M144 0l1336 1434h142l-1337 -1434h-141zM295 1097q0 143 109.5 251.5t251.5 108.5q116 0 192 -77t76 -190q0 -144 -110.5 -250t-250.5 -106q-118 0 -193 74.5t-75 188.5zM390 1099q0 -73 48.5 -120.5t125.5 -47.5q102 0 183.5 77.5t81.5 181.5q0 73 -48.5 121.5
t-124.5 48.5q-103 0 -184.5 -79t-81.5 -182zM839 237q0 143 109.5 251.5t251.5 108.5q117 0 192.5 -76.5t75.5 -189.5q0 -94 -51.5 -177.5t-135 -132t-174.5 -48.5q-118 0 -193 75t-75 189zM934 239q0 -73 48 -120.5t125 -47.5q102 0 184 77.5t82 181.5q0 73 -48.5 121.5
t-124.5 48.5q-103 0 -184.5 -79t-81.5 -182z" />
    <glyph glyph-name="ampersand" unicode="&#x26;" horiz-adv-x="1339" 
d="M175 270q0 35 8 83q15 85 70.5 160t133.5 128l204 137l-97 145q-55 83 -55 174q0 144 112.5 257.5t283.5 113.5q136 0 213 -78.5t77 -195.5q0 -26 -7 -65q-28 -143 -167 -238l-195 -134l255 -376l253 215l68 -86l-257 -219l172 -249l-100 -75l-167 242l-100 -85
q-85 -72 -188 -110.5t-200 -38.5q-139 2 -228 77.5t-89 217.5zM295 283q0 -94 60.5 -144.5t155.5 -50.5q81 0 162 34t148 96l95 81l-269 397l-199 -138q-153 -109 -153 -275zM566 1102q0 -61 35 -116l99 -145l173 120q136 95 136 232q0 74 -45.5 122.5t-129.5 48.5
q-116 0 -192 -81t-76 -181z" />
    <glyph glyph-name="quotesingle" unicode="'" horiz-adv-x="276" 
d="M278 1003l58 468h132l-105 -468h-85z" />
    <glyph glyph-name="parenleft" unicode="(" horiz-adv-x="436" 
d="M97 60q0 56 12 126l164 929q31 172 102.5 264.5t202.5 158.5l46 -112q-35 -19 -58 -33.5t-53.5 -41t-50.5 -55.5t-38 -73.5t-28 -99.5l-169 -961q-9 -52 -9 -92q0 -44 9.5 -77t29.5 -57.5t38 -39t48 -33.5l-70 -105q-88 53 -132 122.5t-44 179.5z" />
    <glyph glyph-name="parenright" unicode=")" horiz-adv-x="436" 
d="M55 -133q36 19 59 33t53.5 40t50 55.5t38 75t28.5 101.5l170 962q8 44 8 88q0 82 -31.5 126t-92.5 84l68 101q89 -54 133 -122.5t44 -178.5q0 -56 -12 -127l-164 -929q-21 -118 -64 -199.5t-99 -130t-143 -92.5z" />
    <glyph glyph-name="asterisk" unicode="*" horiz-adv-x="825" 
d="M292 1165l48 95l236 -101l43 275h101l-54 -274l276 102l16 -95l-278 -86l133 -212l-89 -61l-118 222l-192 -223l-73 58l195 213z" />
    <glyph glyph-name="plus" unicode="+" horiz-adv-x="940" 
d="M203 572l21 117h308l55 308h117l-54 -308h309l-20 -117h-310l-55 -310h-117l55 310h-309z" />
    <glyph glyph-name="comma" unicode="," horiz-adv-x="296" 
d="M50 -117l70 129q-25 20 -25 54q0 32 25 57t57 25q34 0 55 -26t15 -61q-2 -13 -11 -30l-98 -148h-88z" />
    <glyph glyph-name="hyphen" unicode="-" horiz-adv-x="901" 
d="M189 574l21 120h740l-21 -120h-740z" />
    <glyph glyph-name="period" unicode="." horiz-adv-x="292" 
d="M89 66q0 32 25 57t57 25q31 0 51.5 -21t20.5 -51q0 -32 -25 -57t-57 -25q-31 0 -51.5 21t-20.5 51z" />
    <glyph glyph-name="slash" unicode="/" horiz-adv-x="776" 
d="M81 0l750 1434h132l-751 -1434h-131z" />
    <glyph glyph-name="zero" unicode="0" horiz-adv-x="1177" 
d="M203 309q0 47 8 90l111 630q38 214 177 325t344 111q186 0 284.5 -92t98.5 -253q0 -48 -9 -102l-111 -628q-20 -111 -73.5 -194.5t-127 -129.5t-151 -67.5t-159.5 -21.5q-59 0 -113.5 11t-106 36t-89 62.5t-60.5 94.5t-23 128zM333 328q0 -62 23 -108t62.5 -71.5
t86 -37.5t101.5 -12q63 0 120 16t110 49.5t91 93.5t52 141l109 621q8 48 8 84q0 115 -67 177.5t-198 62.5q-154 0 -253.5 -81t-128.5 -243l-110 -623q-6 -37 -6 -69z" />
    <glyph glyph-name="one" unicode="1" horiz-adv-x="675" 
d="M282 1224q93 15 179 63q110 56 171 147h114l-253 -1434h-123l219 1228q-55 -53 -131 -88q-76 -31 -157 -40z" />
    <glyph glyph-name="two" unicode="2" horiz-adv-x="970" 
d="M93 0l16 96l693 746q149 159 149 300q0 86 -53.5 139t-143.5 53q-221 0 -323 -214l-120 46q145 289 447 289q146 0 233.5 -87t87.5 -223q0 -29 -7 -73q-29 -160 -159 -296l-612 -656h603l-21 -120h-790z" />
    <glyph glyph-name="three" unicode="3" horiz-adv-x="1054" 
d="M121 182l108 58q32 -67 99.5 -105t155.5 -38q137 0 244.5 90.5t131.5 226.5q4 23 4 49q0 108 -76.5 179.5t-192.5 71.5h-116l20 109h107q121 0 220 92t99 219q0 89 -55.5 144.5t-148.5 55.5q-87 0 -159.5 -48t-111.5 -114l-108 57q54 94 156.5 159.5t226.5 65.5
q146 0 236.5 -85t90.5 -224q0 -39 -7 -75q-18 -105 -88 -183.5t-164 -118.5q86 -33 142.5 -113t56.5 -190q0 -35 -6 -72q-33 -188 -176 -303t-330 -115q-133 0 -225.5 60t-133.5 147z" />
    <glyph glyph-name="four" unicode="4" 
d="M140 378l19 116l781 940h137l-166 -940h126l-21 -116h-125l-67 -378h-129l67 378h-622zM296 494h487l131 736z" />
    <glyph glyph-name="five" unicode="5" horiz-adv-x="1062" 
d="M124 188l108 57q29 -67 100 -107.5t155 -40.5q111 0 207 59t149.5 150.5t53.5 188.5q0 113 -73 189.5t-204 76.5h-310l194 673h577l-21 -121h-476l-124 -432h185q166 -2 273.5 -108.5t107.5 -267.5q0 -41 -7 -80q-34 -189 -185.5 -319.5t-350.5 -130.5q-128 0 -224 63
t-135 150z" />
    <glyph glyph-name="six" unicode="6" horiz-adv-x="1177" 
d="M216 354q0 41 7 79l92 521q13 73 43 142.5t81.5 135t117.5 114.5t157.5 78.5t195.5 29.5q117 0 203 -37.5t140 -90.5l-88 -85q-92 92 -263 92q-106 0 -193 -36.5t-141 -95t-86.5 -122t-43.5 -127.5l-52 -268q74 104 173.5 150t195.5 46q170 0 278 -107.5t108 -270.5
q0 -44 -7 -83q-22 -122 -99 -224t-191 -161t-237 -59q-171 0 -281 108.5t-110 270.5zM344 359q0 -114 73.5 -188t193.5 -74q144 0 258 99t140 242q5 26 5 61q0 115 -73.5 187.5t-195.5 72.5q-145 0 -256 -97t-140 -243q-5 -26 -5 -60z" />
    <glyph glyph-name="seven" unicode="7" horiz-adv-x="987" 
d="M91 0l901 1312h-687l22 122h833l-15 -94l-922 -1340h-132z" />
    <glyph glyph-name="eight" unicode="8" horiz-adv-x="1161" 
d="M203 327q0 43 7 85q23 132 114.5 230t212.5 138q-63 32 -105.5 97t-42.5 152q0 34 5 60q29 162 153 263.5t284 101.5q146 0 236.5 -85t90.5 -224q0 -44 -6 -75q-18 -105 -88.5 -183.5t-164.5 -118.5q86 -33 143 -113t57 -190q0 -28 -7 -72q-33 -188 -176 -303t-330 -115
q-170 0 -276.5 96t-106.5 256zM332 340q0 -108 71.5 -175.5t186.5 -67.5q137 0 244.5 90.5t131.5 226.5q4 23 4 50q0 106 -73.5 176t-181.5 70q-149 0 -266 -110t-117 -260zM514 1025q0 -86 60.5 -142t144.5 -56q118 0 215 90t97 217q0 89 -55.5 144.5t-148.5 55.5
q-113 0 -201.5 -77t-108.5 -192q-3 -21 -3 -40z" />
    <glyph glyph-name="nine" unicode="9" horiz-adv-x="1177" 
d="M176 104l89 85q92 -92 262 -92q106 0 193 36.5t141.5 95t87 122t43.5 127.5l51 268q-74 -104 -173.5 -150t-195.5 -46q-170 0 -278 107.5t-108 270.5q0 43 7 82q33 185 186.5 314.5t341.5 129.5q172 0 281.5 -108t109.5 -270q0 -42 -7 -80l-92 -520q-16 -92 -61 -178.5
t-116.5 -160t-180 -118t-237.5 -44.5q-117 0 -203.5 38t-140.5 91zM415 931q0 -115 74 -188t196 -73q145 0 255.5 97t139.5 243q6 32 6 61q0 114 -73.5 188t-194.5 74q-144 0 -257.5 -98.5t-139.5 -242.5q-6 -32 -6 -61z" />
    <glyph glyph-name="colon" unicode=":" horiz-adv-x="290" 
d="M88 66q0 32 25.5 57t57.5 25q30 0 50.5 -21t20.5 -51q0 -32 -25 -57t-57 -25q-31 0 -51.5 21t-20.5 51zM220 814q0 32 25 57t57 25q31 0 51.5 -21t20.5 -51q0 -32 -25 -57.5t-57 -25.5q-30 0 -51 21.5t-21 51.5z" />
    <glyph glyph-name="semicolon" unicode=";" horiz-adv-x="296" 
d="M49 -117l70 129q-24 19 -24 54q0 32 25 57t57 25q34 0 55 -26t15 -61q-2 -13 -11 -30l-99 -148h-88zM226 814q0 32 25 57t57 25q31 0 51.5 -21t20.5 -51q0 -32 -25 -57.5t-57 -25.5q-30 0 -51 21.5t-21 51.5z" />
    <glyph glyph-name="less" unicode="&#x3c;" horiz-adv-x="854" 
d="M232 735l681 582l59 -68l-604 -514l423 -515l-77 -68z" />
    <glyph glyph-name="equal" unicode="=" horiz-adv-x="940" 
d="M165 355l21 118h735l-20 -118h-736zM230 725l21 118h736l-21 -118h-736z" />
    <glyph glyph-name="greater" unicode="&#x3e;" horiz-adv-x="854" 
d="M141 220l605 515l-423 514l77 68l482 -582l-682 -583z" />
    <glyph glyph-name="question" unicode="?" horiz-adv-x="944" 
d="M277 1071q13 74 47.5 140.5t89 121t136 87t178.5 32.5q107 0 185 -45.5t114.5 -116.5t36.5 -158q0 -34 -6 -68q-22 -126 -122 -241q-38 -42 -88 -85.5t-85.5 -73t-71 -67t-59 -86.5t-34.5 -112l-16 -95h-127l20 116q11 65 35 118.5t62 98.5t73.5 79t92 85t95.5 93
q108 114 108 238q0 89 -57 146t-160 57q-117 0 -207 -71t-114 -193h-126zM401 66q0 32 25 57t57 25q31 0 51.5 -21t20.5 -51q0 -32 -25 -57t-57 -25q-31 0 -51.5 21t-20.5 51z" />
    <glyph glyph-name="at" unicode="@" horiz-adv-x="1517" 
d="M162 198q0 48 9 100l110 626q32 179 135 302.5t254 182t344 58.5q269 0 412.5 -117.5t143.5 -323.5q0 -57 -10 -114l-39 -219q-20 -113 -71.5 -202t-126 -147.5t-158 -94t-180.5 -53.5l8 79q-95 -47 -214 -47q-72 0 -129 20t-95 68t-38 120q0 31 5 56l47 266
q13 71 46 123.5t79.5 81t97.5 42t108 13.5q109 0 208 -44l13 42h87l-123 -676q125 44 211.5 133.5t111.5 228.5l38 220q10 60 10 101q0 165 -111.5 253t-331.5 88q-257 0 -418 -113.5t-200 -336.5l-110 -625q-8 -48 -8 -83q0 -88 37.5 -154t103 -103t144 -54.5t169.5 -17.5
q93 0 188 19l-11 -105q-80 -18 -179 -18q-85 0 -164 14t-153 46t-129 80t-88 121.5t-33 163.5zM621 443q0 -66 45.5 -97.5t123.5 -31.5q99 0 193 42l103 539q-76 36 -177 36q-205 0 -238 -188l-46 -262q-4 -26 -4 -38z" />
    <glyph glyph-name="A" unicode="A" horiz-adv-x="1236" 
d="M63 0l743 1434h126l239 -1434h-138l-78 493h-499l-253 -493h-140zM511 613h431l-101 641z" />
    <glyph glyph-name="B" unicode="B" horiz-adv-x="1243" 
d="M183 0l253 1434h533q150 0 232 -84t82 -216q0 -44 -6 -75q-45 -258 -250 -342q83 -29 128 -99.5t45 -165.5q0 -30 -7 -74q-32 -184 -144 -281t-291 -97h-575zM338 120h410q129 0 210 71t105 208q5 30 5 53q0 90 -56.5 146.5t-163.5 56.5h-416zM454 778h373q130 0 211 71
t105 208q4 24 4 53q0 90 -56.5 146.5t-163.5 56.5h-379z" />
    <glyph glyph-name="C" unicode="C" horiz-adv-x="1150" 
d="M219 351q0 50 11 113l93 527q41 234 193.5 355.5t373.5 121.5q151 0 248.5 -61t134.5 -168l-105 -41q-30 73 -100.5 111t-172.5 38q-171 0 -290.5 -94t-150.5 -272l-92 -526q-9 -48 -9 -89q0 -133 81 -200.5t223 -67.5q107 0 196 41.5t146 116.5l93 -58
q-73 -106 -187.5 -163.5t-260.5 -57.5q-197 0 -311 96t-114 278z" />
    <glyph glyph-name="D" unicode="D" horiz-adv-x="1304" 
d="M183 0l253 1434h473q208 0 316 -104t108 -276q0 -45 -10 -105l-92 -526q-21 -119 -72.5 -204.5t-125 -131.5t-154.5 -66.5t-176 -20.5h-520zM338 121h378q329 0 383 311l93 527q8 50 8 88q0 126 -76 196t-228 70h-348z" />
    <glyph glyph-name="E" unicode="E" horiz-adv-x="1169" 
d="M183 0l253 1434h880l-21 -121h-747l-95 -537h691l-21 -120h-691l-94 -535h758l-21 -121h-892z" />
    <glyph glyph-name="F" unicode="F" horiz-adv-x="1142" 
d="M183 0l253 1434h865l-21 -121h-732l-95 -537h664l-21 -120h-664l-115 -656h-134z" />
    <glyph glyph-name="G" unicode="G" horiz-adv-x="1296" 
d="M216 340q0 46 9 99l98 552q42 235 193.5 356t375.5 121q154 0 252 -60.5t135 -167.5l-111 -42q-66 149 -278 149q-175 0 -289.5 -91.5t-146.5 -274.5l-97 -551q-7 -39 -7 -78q0 -69 25 -119.5t68.5 -79t94.5 -41.5t111 -13q71 0 136 18t123.5 56.5t101 106.5t58.5 159
l37 208h-269l20 115h403l-135 -762h-103l29 174q-72 -101 -184.5 -149t-233.5 -48q-80 0 -152 21t-132.5 62.5t-96 113.5t-35.5 166z" />
    <glyph glyph-name="H" unicode="H" horiz-adv-x="1345" 
d="M183 0l253 1434h133l-116 -658h713l116 658h134l-253 -1434h-133l115 656h-713l-115 -656h-134z" />
    <glyph glyph-name="I" unicode="I" horiz-adv-x="499" 
d="M183 0l253 1434h133l-252 -1434h-134z" />
    <glyph glyph-name="J" unicode="J" horiz-adv-x="686" 
d="M81 -16l12 119q20 -1 39 -1q86 0 159 26q89 31 152.5 108t83.5 192l177 1005h133l-178 -1015q-38 -214 -178 -325t-346 -111q-18 0 -54 2z" />
    <glyph glyph-name="K" unicode="K" horiz-adv-x="1224" 
d="M183 0l253 1434h133l-125 -702l703 702h171l-601 -599l442 -835h-160l-383 730l-205 -201l-94 -529h-134z" />
    <glyph glyph-name="L" unicode="L" horiz-adv-x="985" 
d="M183 0l253 1434h133l-231 -1313h601l-21 -121h-735z" />
    <glyph glyph-name="M" unicode="M" horiz-adv-x="1527" 
d="M180 0l253 1434h133l242 -1181l661 1181h135l-253 -1434h-131l199 1120l-593 -1066h-102l-213 1066l-199 -1120h-132z" />
    <glyph glyph-name="N" unicode="N" horiz-adv-x="1288" 
d="M173 0l253 1434h131l468 -1179l209 1179h134l-253 -1434h-137l-465 1165l-207 -1165h-133z" />
    <glyph glyph-name="O" unicode="O" horiz-adv-x="1275" 
d="M216 338q0 46 9 99l97 551q42 235 194 356t376 121q203 0 310.5 -100t107.5 -276q0 -56 -10 -112l-97 -550q-17 -99 -60 -178t-98.5 -129t-125 -83.5t-137.5 -47.5t-138 -14q-64 0 -123.5 12t-116 39.5t-97.5 68.5t-66 103.5t-25 139.5zM351 354q0 -69 25.5 -120.5
t69.5 -80.5t96 -43t113 -14q70 0 134 17.5t122.5 55.5t101 105.5t58.5 158.5l97 550q9 51 9 94q0 129 -75.5 198.5t-220.5 69.5q-172 0 -283 -90t-143 -272l-97 -552q-7 -39 -7 -77z" />
    <glyph glyph-name="P" unicode="P" horiz-adv-x="1241" 
d="M183 0l253 1434h525q165 0 254.5 -91.5t89.5 -232.5q0 -40 -7 -78q-35 -195 -157.5 -300t-317.5 -105h-396l-110 -627h-134zM449 747h389q136 0 222 75.5t111 219.5q6 38 6 56q0 96 -60 155.5t-173 59.5h-396z" />
    <glyph glyph-name="Q" unicode="Q" horiz-adv-x="1275" 
d="M216 338q0 46 9 99l97 551q42 235 194 356t376 121q203 0 310.5 -100t107.5 -276q0 -56 -10 -112l-97 -550q-34 -192 -160 -307l86 -113l-79 -62l-87 115q-142 -85 -319 -85q-64 0 -123.5 12t-116 39.5t-97.5 68.5t-66 103.5t-25 139.5zM351 354q0 -69 25.5 -120.5
t69.5 -80.5t96 -43t113 -14q133 0 236 60l-165 217l79 62l164 -217q80 84 102 215l97 550q9 51 9 94q0 129 -75.5 198.5t-220.5 69.5q-172 0 -283 -90t-143 -272l-97 -552q-7 -39 -7 -77z" />
    <glyph glyph-name="R" unicode="R" horiz-adv-x="1259" 
d="M183 0l253 1434h525q165 0 255 -90.5t90 -230.5q0 -42 -7 -78q-31 -173 -130 -270.5t-263 -114.5h-71l298 -650h-154l-284 634h-267l-111 -634h-134zM450 755h389q136 0 222 74t111 217q5 32 5 55q0 95 -60 153.5t-174 58.5h-395z" />
    <glyph glyph-name="S" unicode="S" horiz-adv-x="1185" 
d="M158 329q0 26 3 53h127q-3 -21 -3 -42q0 -105 79 -173t238 -68q189 0 297.5 81.5t132.5 220.5q3 20 3 37q0 40 -17.5 73t-44 56t-71 45t-83.5 37t-97 35q-4 1 -6 2t-5.5 2t-6.5 2q-74 23 -124 42.5t-104.5 49t-87 61t-54 77t-21.5 100.5q0 29 4 56q20 120 95 207
t186 129.5t246 42.5q188 0 303 -84t115 -234q0 -26 -5 -61h-127q4 21 4 46q0 106 -81 159.5t-213 53.5q-151 0 -262 -71t-132 -193q-3 -17 -3 -31q0 -34 15.5 -63t40 -50t67.5 -42.5t84 -36.5t104 -36q76 -22 134.5 -45.5t112.5 -55.5t88.5 -69t55 -85.5t20.5 -106.5
q0 -26 -7 -68q-16 -87 -55.5 -158.5t-105.5 -128t-166.5 -87.5t-228.5 -31q-212 0 -328 101t-116 251z" />
    <glyph glyph-name="T" unicode="T" horiz-adv-x="1085" 
d="M314 1313l21 121h906l-21 -121h-393l-232 -1313h-133l231 1313h-379z" />
    <glyph glyph-name="U" unicode="U" horiz-adv-x="1284" 
d="M222 341q0 45 9 98l176 996h133l-177 -1005q-7 -39 -7 -78q0 -69 25 -119.5t68.5 -79t94.5 -41.5t111 -13q71 0 136.5 18t125 56.5t102.5 106.5t59 159l175 996h134l-177 -1005q-17 -99 -60 -178t-98.5 -129.5t-125.5 -84t-138 -47.5t-138 -14q-64 0 -123.5 12t-116 39.5
t-97.5 68.5t-66 104t-25 140z" />
    <glyph glyph-name="V" unicode="V" horiz-adv-x="1183" 
d="M289 1434h135l169 -1286l625 1286h140l-692 -1434h-188z" />
    <glyph glyph-name="W" unicode="W" horiz-adv-x="1660" 
d="M318 1434h138l74 -1259l489 1259h131l44 -1260l515 1260h142l-601 -1434h-168l-49 1126l-448 -1126h-168z" />
    <glyph glyph-name="X" unicode="X" horiz-adv-x="1259" 
d="M63 0l608 744l-315 690h150l267 -599l481 599h161l-563 -690l341 -744h-154l-295 637l-518 -637h-163z" />
    <glyph glyph-name="Y" unicode="Y" horiz-adv-x="1187" 
d="M319 1434h151l263 -616l484 616h161l-595 -743l-123 -691h-134l123 687z" />
    <glyph glyph-name="Z" unicode="Z" horiz-adv-x="1200" 
d="M95 0l15 90l1033 1223h-769l21 121h951l-15 -90l-1034 -1223h829l-22 -121h-1009z" />
    <glyph glyph-name="bracketleft" unicode="[" horiz-adv-x="573" 
d="M41 -233l312 1769h425l-21 -119h-298l-269 -1530h297l-21 -120h-425z" />
    <glyph glyph-name="backslash" unicode="\" horiz-adv-x="776" 
d="M336 1434h127l244 -1434h-126z" />
    <glyph glyph-name="bracketright" unicode="]" horiz-adv-x="573" 
d="M41 -233l21 120h298l269 1530h-297l21 119h425l-312 -1769h-425z" />
    <glyph glyph-name="asciicircum" unicode="^" horiz-adv-x="835" 
d="M302 1134l372 309l260 -312l-73 -65l-204 248l-299 -248z" />
    <glyph glyph-name="underscore" unicode="_" horiz-adv-x="921" 
d="M50 -213l19 109h760l-19 -109h-760z" />
    <glyph glyph-name="grave" unicode="`" horiz-adv-x="372" 
d="M314 1434h134l65 -240h-90z" />
    <glyph glyph-name="a" unicode="a" 
d="M159 258q0 37 7 75l64 363q17 96 60 166t104 108t127 55.5t142 17.5q159 0 299 -69l15 52h105l-181 -1026h-104l10 51q-130 -67 -299 -67q-72 0 -132.5 15t-110.5 46.5t-78 86t-28 126.5zM288 271q0 -93 64.5 -138.5t173.5 -45.5q140 0 268 59l138 742q-102 51 -248 51
q-129 0 -216.5 -62t-111.5 -198l-63 -357q-5 -30 -5 -51z" />
    <glyph glyph-name="b" unicode="b" 
d="M142 0l253 1434h129l-83 -447q147 56 288 56q69 0 126.5 -14.5t106 -45t76 -85.5t27.5 -129q0 -34 -8 -82l-64 -363q-13 -75 -46 -134.5t-76 -97.5t-98.5 -63t-111 -35t-115.5 -10q-170 0 -284 72l-16 -56h-104zM292 143q101 -56 239 -56q129 0 220.5 62.5t113.5 182.5
l63 357q7 44 7 67q0 183 -228 183q-149 0 -276 -54z" />
    <glyph glyph-name="c" unicode="c" horiz-adv-x="913" 
d="M168 300q0 42 10 102l40 230q35 200 160 306t305 106q184 0 291 -131l-101 -44q-80 67 -193 67q-126 0 -216.5 -80t-117.5 -233l-41 -230q-8 -41 -8 -86q0 -109 58 -163.5t159 -54.5q117 0 232 75l88 -60q-142 -122 -322 -122q-160 0 -252 82t-92 236z" />
    <glyph glyph-name="d" unicode="d" 
d="M159 258q0 37 7 75l64 363q14 78 46 139.5t74 99.5t95.5 63t107 35t112.5 10q141 0 276 -60l84 451h129l-253 -1434h-104l10 51q-130 -67 -299 -67q-72 0 -132.5 15t-110.5 46.5t-78 86t-28 126.5zM288 271q0 -93 64.5 -138.5t173.5 -45.5q140 0 268 59l138 742
q-106 51 -248 51q-129 0 -216.5 -62t-111.5 -198l-63 -357q-5 -30 -5 -51z" />
    <glyph glyph-name="e" unicode="e" horiz-adv-x="976" 
d="M156 243q0 29 7 73l63 362q26 147 116.5 239t229.5 118q51 9 109 9q157 0 244 -74.5t87 -201.5q0 -53 -12 -100q-34 -138 -142.5 -202t-255.5 -64q-152 0 -287 57l-30 -164q-5 -33 -5 -54q0 -161 206 -161q161 0 301 86l65 -72q-163 -117 -374 -117q-156 0 -239 71
t-83 195zM329 553q45 -24 118 -42t146 -18q109 0 188.5 47t103.5 155q7 32 7 65q0 85 -57.5 131t-163.5 46q-127 0 -211.5 -65t-105.5 -186z" />
    <glyph glyph-name="f" unicode="f" horiz-adv-x="612" 
d="M82 -383l265 1503q16 91 55.5 159t93 105t111.5 54.5t120 17.5q42 0 92 -9l-10 -106q-30 5 -54 5q-22 0 -31 -2q-90 -5 -160 -66t-92 -182l-13 -70h271l-18 -103h-271l-230 -1306h-129z" />
    <glyph glyph-name="g" unicode="g" 
d="M141 -299l60 76q116 -80 258 -80q256 0 297 225l25 133q-124 -55 -286 -55q-71 0 -129.5 14.5t-105.5 45.5t-73 84t-26 125q0 36 8 82l62 350q17 93 61.5 162t108.5 106.5t132.5 55t144.5 17.5q167 0 283 -73l16 56h105l-195 -1103q-20 -112 -78 -187t-138 -108t-181 -33
q-198 0 -349 107zM291 282q0 -183 228 -183q145 0 276 54l136 729q-101 56 -238 56q-130 0 -221.5 -62.5t-113.5 -182.5l-61 -343q-6 -38 -6 -68z" />
    <glyph glyph-name="h" unicode="h" horiz-adv-x="1077" 
d="M152 0l253 1434h129l-83 -450q130 59 281 59q70 0 129.5 -14.5t108.5 -45.5t77 -86t28 -128q0 -39 -7 -78l-122 -691h-129l123 694q6 33 6 62q0 96 -61.5 140.5t-169.5 44.5q-142 0 -275 -60l-159 -881h-129z" />
    <glyph glyph-name="i" unicode="i" horiz-adv-x="438" 
d="M160 0l181 1026h129l-181 -1026h-129zM396 1375q0 36 22.5 57t54.5 21q31 0 49 -17.5t18 -46.5q0 -33 -20 -56.5t-55 -23.5q-31 0 -50 18.5t-19 47.5z" />
    <glyph glyph-name="j" unicode="j" horiz-adv-x="432" 
d="M-82 -410l6 107q59 6 97 29q92 51 115 176l198 1124h129l-203 -1153q-18 -99 -79 -165.5t-157 -98.5q-61 -14 -106 -19zM389 1375q0 36 23 57t55 21q30 0 48 -17.5t18 -46.5q0 -33 -20 -56.5t-55 -23.5q-31 0 -50 18.5t-19 47.5z" />
    <glyph glyph-name="k" unicode="k" horiz-adv-x="1021" 
d="M152 0l253 1434h129l-154 -866l567 473h163l-481 -414l352 -627h-144l-299 538l-186 -147l-71 -391h-129z" />
    <glyph glyph-name="l" unicode="l" horiz-adv-x="411" 
d="M152 0l253 1434h129l-253 -1434h-129z" />
    <glyph glyph-name="m" unicode="m" horiz-adv-x="1589" 
d="M142 0l181 1026h103l-9 -49q141 66 286 66q92 0 162.5 -29t100.5 -80q173 96 296 107q28 2 42 2q127 0 205 -70.5t78 -200.5q0 -36 -8 -81l-121 -691h-128l121 690q8 45 8 75q0 173 -176 173q-59 0 -109.5 -16t-170.5 -71q2 -7 2 -28q0 -52 -18 -151l-118 -672h-128
l130 737q5 32 5 52q0 149 -189 149q-133 0 -258 -58l-159 -880h-128z" />
    <glyph glyph-name="n" unicode="n" horiz-adv-x="1067" 
d="M142 0l181 1026h104l-10 -51q123 61 271 68h30q72 0 132.5 -15.5t109.5 -47.5t77 -86.5t28 -126.5q0 -38 -7 -76l-122 -691h-129l123 694q5 26 5 60q0 96 -63 140.5t-172 44.5q-144 0 -270 -58l-159 -881h-129z" />
    <glyph glyph-name="o" unicode="o" horiz-adv-x="1013" 
d="M168 302q0 42 8 88l45 254q30 168 123 269t242 126q51 8 101 8q165 0 253 -84t88 -231q0 -46 -9 -97l-45 -255q-14 -80 -47.5 -148.5t-88 -126t-137.5 -90.5t-186 -33q-176 0 -261.5 90t-85.5 230zM297 312q0 -100 56 -161.5t171 -61.5q137 0 218 84.5t104 212.5l45 254
q8 46 8 81q0 104 -56.5 161t-164.5 57q-136 0 -219.5 -76.5t-109.5 -224.5l-45 -254q-7 -44 -7 -72z" />
    <glyph glyph-name="p" unicode="p" horiz-adv-x="1052" 
d="M80 -414l253 1439h104l-10 -51q132 68 299 68q97 0 173 -26t126 -89.5t50 -159.5q0 -38 -7 -76l-64 -362q-17 -96 -60.5 -166.5t-105 -108.5t-127.5 -55t-142 -17q-148 0 -277 59l-84 -455h-128zM301 137q104 -52 249 -52q129 0 216.5 62t111.5 198l63 357q5 30 5 52
q0 93 -64 138t-174 45q-140 0 -268 -59z" />
    <glyph glyph-name="q" unicode="q" 
d="M159 256q0 34 8 82l64 363q17 93 61.5 162t108.5 106.5t132.5 55t144.5 17.5q167 0 283 -73l16 56h105l-254 -1439h-129l83 452q-143 -56 -288 -56q-69 0 -127 14.5t-106 45.5t-75 85.5t-27 128.5zM289 269q0 -183 227 -183q146 0 277 54l138 741q-101 56 -238 56
q-130 0 -221.5 -62t-113.5 -182l-63 -357q-6 -38 -6 -67z" />
    <glyph glyph-name="r" unicode="r" horiz-adv-x="720" 
d="M142 0l182 1032h104l-24 -145q116 159 335 159q74 0 120 -15l-18 -106q-50 13 -96 13q-13 0 -35 -2q-134 -5 -218 -82.5t-109 -220.5l-112 -633h-129z" />
    <glyph glyph-name="s" unicode="s" horiz-adv-x="933" 
d="M128 236q0 10 2 32h125q-1 -9 -1 -18q0 -70 48 -117q54 -53 176 -53q123 0 206 67t83 163q0 36 -17 63t-50.5 46t-69 32.5t-84.5 29.5q-7 2 -11 3q-67 18 -111 34t-90 43.5t-69 68t-23 93.5q0 25 4 48q21 119 120.5 198.5t277.5 79.5q161 0 239.5 -67.5t78.5 -171.5
q0 -22 -3 -44h-124q2 10 2 30q0 62 -47 103t-148 41q-120 0 -190 -56.5t-83 -131.5q-1 -7 -1 -21q0 -55 52.5 -86.5t161.5 -65.5q72 -18 123 -38t97.5 -50.5t70 -74t23.5 -100.5q0 -141 -112.5 -242t-303.5 -101q-174 0 -263 74t-89 189z" />
    <glyph glyph-name="t" unicode="t" horiz-adv-x="700" 
d="M210 298q0 45 9 94l155 883h129l-44 -249h271l-19 -108h-271l-91 -516q-8 -43 -8 -88q0 -169 143 -215q40 -12 101 -12q19 0 41 1l-11 -108h-28q-68 0 -122 12q-118 24 -186.5 101t-68.5 205z" />
    <glyph glyph-name="u" unicode="u" horiz-adv-x="1056" 
d="M184 259q0 38 7 76l122 691h129l-123 -694q-5 -26 -5 -59q0 -96 63 -141t172 -45q142 0 270 59l159 880h129l-181 -1026h-104l10 51q-137 -67 -301 -67q-72 0 -132.5 15.5t-109.5 47t-77 86t-28 126.5z" />
    <glyph glyph-name="v" unicode="v" horiz-adv-x="940" 
d="M222 1026h128l145 -868l455 868h132l-542 -1026h-138z" />
    <glyph glyph-name="w" unicode="w" horiz-adv-x="1437" 
d="M222 1026h133l110 -846l379 846h107l80 -845l412 845h137l-514 -1026h-129l-82 768l-353 -768h-127z" />
    <glyph glyph-name="x" unicode="x" horiz-adv-x="856" 
d="M38 0l407 514l-210 512h139l163 -425l315 425h143l-390 -514l206 -512h-135l-167 419l-327 -419h-144z" />
    <glyph glyph-name="y" unicode="y" horiz-adv-x="1067" 
d="M166 -299l60 76q115 -80 259 -80q256 0 296 225l29 133q-124 -55 -291 -55q-71 0 -129.5 14.5t-105 45.5t-72.5 84t-26 125q0 36 8 82l119 675h129l-120 -677q-6 -37 -6 -67q0 -183 227 -183q150 0 277 54l158 873h129l-195 -1104q-20 -112 -78.5 -187t-138.5 -108
t-181 -33q-196 0 -348 107z" />
    <glyph glyph-name="z" unicode="z" horiz-adv-x="899" 
d="M82 0l13 85l703 833h-515l19 108h677l-13 -84l-704 -834h568l-19 -108h-729z" />
    <glyph glyph-name="braceleft" unicode="{" horiz-adv-x="622" 
d="M211 598l8 87q58 32 100 76q58 56 66 104l52 291q26 146 91.5 224.5t171.5 123.5l81 29v-105q-43 -13 -74 -34q-120 -75 -150 -248l-51 -291q-18 -107 -175 -219q100 -95 100 -190q0 -17 -2 -26l-49 -281q-9 -51 -9 -89q0 -107 67 -161q26 -16 60 -24l-22 -109
q-33 12 -57 31q-81 34 -125.5 94.5t-44.5 162.5q0 45 9 100l51 286q1 6 1 18q0 44 -31 91q-28 36 -68 59z" />
    <glyph glyph-name="bar" unicode="|" horiz-adv-x="325" 
d="M84 -102l271 1536h122l-271 -1536h-122z" />
    <glyph glyph-name="braceright" unicode="}" horiz-adv-x="622" 
d="M61 -135q35 11 57 31q134 59 168 254l50 280q18 105 175 217q-101 101 -101 192q0 13 3 26l51 291q8 43 8 84q0 104 -64 158q-29 21 -62 32l21 105q39 -15 62 -32q79 -35 122 -95.5t43 -160.5q0 -44 -9 -98l-52 -292q-2 -14 -2 -22q0 -40 25 -81q27 -38 74 -69l-8 -88
q-49 -24 -89 -62q-68 -60 -77 -114l-50 -286q-27 -149 -93.5 -227.5t-176.5 -124.5l-75 -25v107z" />
    <glyph glyph-name="asciitilde" unicode="~" horiz-adv-x="1032" 
d="M182 600q113 113 263 113q88 0 216 -54q118 -38 181 -38q91 0 164 69l57 -86q-95 -84 -222 -84q-85 0 -209 51q-129 41 -188 41q-113 0 -203 -94z" />
    <glyph glyph-name="uni00A0" unicode="&#xa0;" horiz-adv-x="614" 
 />
    <glyph glyph-name="cent" unicode="&#xa2;" horiz-adv-x="913" 
d="M168 301q0 41 10 101l40 230q33 187 144.5 291t274.5 118l22 106h102l-23 -108q138 -17 236 -126l-101 -44q-80 67 -193 67q-126 0 -216.5 -80t-117.5 -233l-41 -230q-8 -41 -8 -86q0 -109 58 -163.5t159 -54.5q117 0 232 75l88 -60q-124 -100 -274 -120l-22 -103h-102
l23 105q-134 12 -212.5 93t-78.5 222z" />
    <glyph glyph-name="sterling" unicode="&#xa3;" horiz-adv-x="1226" 
d="M170 0l16 96q89 42 177.5 143.5t107.5 207.5q8 45 8 93q0 28 -12 139l-150 -4l14 78l124 4q-17 119 -17 192q0 59 7 96q31 177 164 292t316 115q108 0 179.5 -38t99.5 -99l-93 -54q-49 70 -184 71q-137 0 -234.5 -90t-120.5 -219q-5 -32 -5 -63q0 -63 21 -212l291 5
l-13 -78l-268 -5q9 -67 9 -113q0 -60 -11 -119q-16 -87 -77.5 -177.5t-136.5 -140.5h304q124 3 210.5 41t156.5 112l121 -71q-178 -202 -470 -202h-534z" />
    <glyph glyph-name="yen" unicode="&#xa5;" horiz-adv-x="1187" 
d="M319 1434h151l263 -616l484 616h161l-539 -668h238l-14 -78h-282l-27 -152h283l-14 -78h-283l-80 -458h-134l81 458h-280l13 78h281l26 152h-280l14 78h236z" />
    <glyph glyph-name="dieresis" unicode="&#xa8;" horiz-adv-x="655" 
d="M308 1294q0 30 21.5 50.5t51.5 20.5q27 0 44.5 -18t17.5 -45q0 -29 -21 -50.5t-49 -21.5t-46.5 18.5t-18.5 45.5zM671 1294q0 30 21 50.5t51 20.5q27 0 44.5 -18t17.5 -45q0 -29 -21 -50.5t-49 -21.5t-46 18.5t-18 45.5z" />
    <glyph glyph-name="copyright" unicode="&#xa9;" horiz-adv-x="1658" 
d="M218 588q0 63 12 132q27 154 110.5 290t199 230.5t258 149t286.5 54.5q132 0 246 -45.5t194 -124.5t125.5 -190.5t45.5 -238.5q0 -63 -12 -129q-27 -155 -112 -292t-202 -231.5t-258 -149.5t-280 -55q-170 0 -309.5 74.5t-221.5 212.5t-82 313zM314 601q0 -152 71.5 -271
t192 -182.5t266.5 -63.5q162 0 320.5 80t275.5 228t149 328q10 54 10 112q0 224 -148.5 370.5t-379.5 146.5q-168 0 -327 -80.5t-273 -227t-146 -325.5q-11 -63 -11 -115zM547 620q0 46 9 97q21 118 86 216.5t169 159.5t225 61q143 0 234 -86t92 -216h-81q-1 33 -14.5 69
t-41 71.5t-79.5 58.5t-119 23q-80 0 -149.5 -31t-118 -82.5t-80 -114t-43.5 -129.5q-7 -38 -7 -82q0 -56 14.5 -103.5t44.5 -88t84 -64t126 -23.5q122 0 216 75t120 154h83q-55 -136 -172.5 -222.5t-256.5 -86.5q-161 0 -251 95t-90 249z" />
    <glyph glyph-name="guillemotleft" unicode="&#xab;" horiz-adv-x="1153" 
d="M179 549l477 408l71 -82l-384 -326l269 -325l-94 -85zM687 549l478 408l69 -82l-385 -326l272 -325l-95 -85z" />
    <glyph glyph-name="uni00AD" unicode="&#xad;" horiz-adv-x="901" 
d="M189 574l21 120h740l-21 -120h-740z" />
    <glyph glyph-name="registered" unicode="&#xae;" horiz-adv-x="1660" 
d="M219 591q0 64 12 133q36 204 164 370.5t311 259t381 92.5q175 0 314 -75t218 -210.5t79 -307.5q0 -64 -12 -133q-36 -205 -164 -373t-310 -261.5t-378 -93.5q-172 0 -312.5 75t-221.5 212.5t-81 311.5zM315 604q0 -228 152.5 -372.5t379.5 -144.5q171 0 330 81.5
t270.5 228.5t143.5 327q11 63 11 115q0 225 -149 368.5t-379 143.5q-129 0 -254.5 -47.5t-226.5 -130.5t-172.5 -201t-94.5 -252q-11 -63 -11 -116zM611 315l147 838h342q104 0 170 -56t66 -147q0 -24 -4 -44q-18 -104 -88.5 -163.5t-161.5 -71.5l164 -356h-88l-163 349
h-238l-62 -349h-84zM769 735h256q29 0 60 7t66.5 24.5t62.5 54.5t36 89q3 18 3 34q0 70 -51.5 102.5t-122.5 32.5h-249z" />
    <glyph glyph-name="acute" unicode="&#xb4;" horiz-adv-x="372" 
d="M303 1194l150 240h140l-194 -240h-96z" />
    <glyph glyph-name="cedilla" unicode="&#xb8;" horiz-adv-x="647" 
d="M19 -399l34 65q57 -38 161 -47q75 0 135.5 34.5t71.5 96.5q2 12 2 18q0 34 -24.5 53t-66.5 19q-75 0 -168 -41l-27 33l163 183h78l-116 -124q46 17 86 17q70 0 119 -34.5t49 -102.5q0 -17 -3 -35q-9 -52 -38 -89.5t-70.5 -57.5t-85 -29t-92.5 -9q-80 0 -208 50z" />
    <glyph glyph-name="guillemotright" unicode="&#xbb;" horiz-adv-x="1153" 
d="M127 224l386 325l-270 326l93 82l339 -408l-477 -410zM636 224l383 325l-268 326l94 82l339 -408l-478 -410z" />
    <glyph glyph-name="circumflex" unicode="&#x2c6;" horiz-adv-x="798" 
d="M275 1171l319 281h131l211 -281h-119l-165 218l-252 -218h-125z" />
    <glyph glyph-name="ring" unicode="&#x2da;" horiz-adv-x="667" 
d="M324 1269q0 104 84 186t188 82q88 0 147 -59.5t59 -146.5q0 -104 -84 -186t-188 -82q-88 0 -147 60t-59 146zM398 1263q0 -54 35.5 -89t92.5 -35q78 0 139.5 59t61.5 139q0 54 -35.5 88.5t-91.5 34.5q-79 0 -140.5 -59t-61.5 -138z" />
    <glyph glyph-name="tilde" unicode="&#x2dc;" horiz-adv-x="862" 
d="M323 1306q127 112 222 112q46 0 92.5 -21t89 -42.5t78.5 -21.5q40 0 85 22.5t77 52.5l39 -69q-114 -90 -197 -90q-57 0 -140 41t-126 41q-83 0 -180 -93z" />
    <glyph glyph-name="afii10017" unicode="&#x410;" horiz-adv-x="1236" 
d="M63 0l743 1434h126l239 -1434h-138l-78 493h-499l-253 -493h-140zM511 613h431l-101 641z" />
    <glyph glyph-name="afii10018" unicode="&#x411;" horiz-adv-x="1243" 
d="M183 0l253 1434h847l-22 -122h-713l-91 -518h433q153 0 234 -75t81 -220q0 -54 -10 -111q-34 -193 -145.5 -290.5t-291.5 -97.5h-575zM338 120h410q129 0 210 71t105 208q7 38 7 75q0 200 -222 200h-412z" />
    <glyph glyph-name="afii10019" unicode="&#x412;" horiz-adv-x="1243" 
d="M183 0l253 1434h533q150 0 232 -84t82 -216q0 -44 -6 -75q-45 -258 -250 -342q83 -29 128 -99.5t45 -165.5q0 -30 -7 -74q-32 -184 -144 -281t-291 -97h-575zM338 120h410q129 0 210 71t105 208q5 30 5 53q0 90 -56.5 146.5t-163.5 56.5h-416zM454 778h373q130 0 211 71
t105 208q4 24 4 53q0 90 -56.5 146.5t-163.5 56.5h-379z" />
    <glyph glyph-name="afii10020" unicode="&#x413;" horiz-adv-x="1058" 
d="M183 0l253 1434h847l-22 -122h-713l-231 -1312h-134z" />
    <glyph glyph-name="afii10021" unicode="&#x414;" horiz-adv-x="1443" 
d="M27 -313l76 433l124 3q144 93 178 282l181 1030h860l-232 -1315h170l-76 -433h-126l56 314h-1030l-56 -314h-125zM395 120h685l211 1194h-592l-162 -916q-33 -184 -142 -278z" />
    <glyph glyph-name="afii10022" unicode="&#x415;" horiz-adv-x="1169" 
d="M183 0l253 1434h880l-21 -121h-747l-95 -537h691l-21 -120h-691l-94 -535h758l-21 -121h-892z" />
    <glyph glyph-name="afii10024" unicode="&#x416;" horiz-adv-x="1941" 
d="M63 0l827 752l-465 682h155l455 -684l122 684h133l-122 -684l696 684h161l-709 -682l559 -752h-159l-546 744l-132 -744h-134l133 744l-808 -744h-166z" />
    <glyph glyph-name="afii10025" unicode="&#x417;" horiz-adv-x="1054" 
d="M121 182l108 58q32 -67 99.5 -105t155.5 -38q137 0 244.5 90.5t131.5 226.5q4 23 4 49q0 108 -76.5 179.5t-192.5 71.5h-116l20 109h107q121 0 220 92t99 219q0 89 -55.5 144.5t-148.5 55.5q-87 0 -159.5 -48t-111.5 -114l-108 57q54 94 156.5 159.5t226.5 65.5
q146 0 236.5 -85t90.5 -224q0 -39 -7 -75q-18 -105 -88 -183.5t-164 -118.5q86 -33 142.5 -113t56.5 -190q0 -35 -6 -72q-33 -188 -176 -303t-330 -115q-133 0 -225.5 60t-133.5 147z" />
    <glyph glyph-name="afii10026" unicode="&#x418;" horiz-adv-x="1288" 
d="M173 0l253 1434h133l-209 -1179l883 1179h135l-253 -1434h-133l207 1165l-876 -1165h-140z" />
    <glyph glyph-name="afii10027" unicode="&#x419;" horiz-adv-x="1288" 
d="M173 0l253 1434h133l-209 -1179l883 1179h135l-253 -1434h-133l207 1165l-876 -1165h-140zM705 1826q0 26 4 47l70 -9q-2 -18 -2 -26q0 -66 42.5 -109.5t114.5 -43.5q84 0 152 56.5t84 131.5l71 -9q-20 -112 -107.5 -185t-196.5 -73q-102 0 -167 62t-65 158z" />
    <glyph glyph-name="afii10028" unicode="&#x41a;" horiz-adv-x="1241" 
d="M183 0l253 1434h133l-122 -684l696 684h161l-709 -682l560 -752h-160l-546 744l-132 -744h-134z" />
    <glyph glyph-name="afii10029" unicode="&#x41b;" horiz-adv-x="1355" 
d="M77 -20l12 116q50 0 97 14.5t89.5 45t73.5 83.5t43 124l188 1071h860l-253 -1434h-134l232 1313h-592l-169 -958q-17 -99 -59.5 -173t-103 -117t-131.5 -64t-153 -21z" />
    <glyph glyph-name="afii10030" unicode="&#x41c;" horiz-adv-x="1527" 
d="M180 0l253 1434h133l242 -1181l661 1181h135l-253 -1434h-131l199 1120l-593 -1066h-102l-213 1066l-199 -1120h-132z" />
    <glyph glyph-name="afii10031" unicode="&#x41d;" horiz-adv-x="1345" 
d="M183 0l253 1434h133l-116 -658h713l116 658h134l-253 -1434h-133l115 656h-713l-115 -656h-134z" />
    <glyph glyph-name="afii10032" unicode="&#x41e;" horiz-adv-x="1275" 
d="M216 338q0 46 9 99l97 551q42 235 194 356t376 121q203 0 310.5 -100t107.5 -276q0 -56 -10 -112l-97 -550q-17 -99 -60 -178t-98.5 -129t-125 -83.5t-137.5 -47.5t-138 -14q-64 0 -123.5 12t-116 39.5t-97.5 68.5t-66 103.5t-25 139.5zM351 354q0 -69 25.5 -120.5
t69.5 -80.5t96 -43t113 -14q70 0 134 17.5t122.5 55.5t101 105.5t58.5 158.5l97 550q9 51 9 94q0 129 -75.5 198.5t-220.5 69.5q-172 0 -283 -90t-143 -272l-97 -552q-7 -39 -7 -77z" />
    <glyph glyph-name="afii10033" unicode="&#x41f;" horiz-adv-x="1345" 
d="M183 0l253 1434h980l-253 -1434h-134l232 1313h-713l-231 -1313h-134z" />
    <glyph glyph-name="afii10034" unicode="&#x420;" horiz-adv-x="1241" 
d="M183 0l253 1434h525q165 0 254.5 -91.5t89.5 -232.5q0 -40 -7 -78q-35 -195 -157.5 -300t-317.5 -105h-396l-110 -627h-134zM449 747h389q136 0 222 75.5t111 219.5q6 38 6 56q0 96 -60 155.5t-173 59.5h-396z" />
    <glyph glyph-name="afii10035" unicode="&#x421;" horiz-adv-x="1150" 
d="M219 351q0 50 11 113l93 527q41 234 193.5 355.5t373.5 121.5q151 0 248.5 -61t134.5 -168l-105 -41q-30 73 -100.5 111t-172.5 38q-171 0 -290.5 -94t-150.5 -272l-92 -526q-9 -48 -9 -89q0 -133 81 -200.5t223 -67.5q107 0 196 41.5t146 116.5l93 -58
q-73 -106 -187.5 -163.5t-260.5 -57.5q-197 0 -311 96t-114 278z" />
    <glyph glyph-name="afii10036" unicode="&#x422;" horiz-adv-x="1085" 
d="M314 1313l21 121h906l-21 -121h-393l-232 -1313h-133l231 1313h-379z" />
    <glyph glyph-name="afii10037" unicode="&#x423;" horiz-adv-x="1284" 
d="M195 -29l21 121h111q154 0 263 188l86 136l-288 1018h137l238 -867l518 867h140l-739 -1227q-68 -112 -151.5 -174t-195.5 -62h-140z" />
    <glyph glyph-name="afii10038" unicode="&#x424;" horiz-adv-x="1548" 
d="M255 538q0 83 18 188q23 131 65.5 230t96 162t124.5 102.5t145.5 55t163.5 15.5h67l25 143h134l-26 -143h61q94 0 166.5 -19.5t130.5 -64t89 -123.5t31 -190q0 -82 -18 -187q-23 -131 -65.5 -230t-96 -162t-124.5 -102t-145 -54.5t-163 -15.5h-68l-25 -143h-134l26 143
h-60q-96 0 -169 19.5t-130.5 64t-88 123t-30.5 188.5zM387 541q0 -153 74 -214.5t226 -62.5h67l160 906h-59q-92 -1 -161.5 -23t-128 -74t-99 -143t-63.5 -223q-16 -93 -16 -166zM887 264h60q91 1 160.5 23t128 74t99 142.5t63.5 222.5q17 99 17 167q0 153 -74 214t-226 63
h-68z" />
    <glyph glyph-name="afii10039" unicode="&#x425;" horiz-adv-x="1259" 
d="M63 0l608 744l-315 690h150l267 -599l481 599h161l-563 -690l341 -744h-154l-295 637l-518 -637h-163z" />
    <glyph glyph-name="afii10040" unicode="&#x426;" horiz-adv-x="1415" 
d="M182 -2l253 1435h134l-232 -1313h713l232 1313h133l-232 -1315h173l-76 -431h-126l55 311h-1027z" />
    <glyph glyph-name="afii10041" unicode="&#x427;" horiz-adv-x="1265" 
d="M290 821q0 38 7 74l95 539h134l-91 -520q-6 -34 -6 -63q0 -82 49 -118.5t146 -36.5q118 0 456 62l123 676h133l-253 -1434h-133l117 635q-6 -1 -95 -15t-145 -22.5t-131 -17t-112 -8.5q-138 0 -216 64t-78 185z" />
    <glyph glyph-name="afii10042" unicode="&#x428;" horiz-adv-x="1947" 
d="M184 0l252 1433h134l-232 -1313h591l231 1313h134l-232 -1313h591l231 1313h134l-253 -1433h-1581z" />
    <glyph glyph-name="afii10043" unicode="&#x429;" horiz-adv-x="2019" 
d="M184 0l252 1433h134l-232 -1313h591l231 1313h134l-232 -1313h591l231 1313h134l-232 -1315h172l-76 -431h-125l55 313h-1628z" />
    <glyph glyph-name="afii10044" unicode="&#x42a;" horiz-adv-x="1351" 
d="M238 1315l21 119h441l-113 -640h433q153 0 234 -75t81 -220q0 -54 -10 -111q-34 -193 -145 -290.5t-291 -97.5h-575l232 1315h-308zM468 120h410q129 0 210 71t105 208q7 38 7 75q0 99 -56.5 149.5t-166.5 50.5h-412z" />
    <glyph glyph-name="afii10045" unicode="&#x42b;" horiz-adv-x="1660" 
d="M183 0l253 1434h133l-112 -640h433q153 0 234 -75t81 -220q0 -48 -11 -111q-34 -193 -145 -290.5t-291 -97.5h-575zM338 120h410q129 0 210 71t105 208q7 38 7 75q0 200 -222 200h-413zM1346 0l253 1434h132l-252 -1434h-133z" />
    <glyph glyph-name="afii10046" unicode="&#x42c;" horiz-adv-x="1222" 
d="M183 0l253 1434h134l-113 -640h433q153 0 234 -75t81 -220q0 -54 -10 -111q-34 -193 -145.5 -290.5t-291.5 -97.5h-575zM338 120h410q129 0 210 71t105 208q7 38 7 75q0 200 -222 200h-412z" />
    <glyph glyph-name="afii10047" unicode="&#x42d;" horiz-adv-x="1150" 
d="M132 206l105 41q30 -73 101 -111t173 -38q171 0 290 93.5t150 271.5l36 204h-540l20 110h539l38 213q8 43 8 89q0 133 -80.5 200t-222.5 67q-107 0 -196 -41.5t-146 -116.5l-93 59q73 106 187 163t260 57q197 0 311 -96t114 -277q0 -56 -10 -113l-93 -527
q-41 -234 -193.5 -355.5t-373.5 -121.5q-151 0 -249 61t-135 168z" />
    <glyph glyph-name="afii10048" unicode="&#x42e;" horiz-adv-x="1769" 
d="M183 0l253 1434h132l-116 -657h326l37 208q42 235 193.5 356t375.5 121q203 0 311 -100t108 -276q0 -56 -10 -112l-97 -550q-17 -99 -60 -178t-98.5 -129.5t-125.5 -84t-138 -47.5t-138 -14q-64 0 -123.5 12t-116 39.5t-97.5 68.5t-66 104t-25 140q0 40 10 98l39 223
h-326l-116 -656h-132zM842 346q0 -69 25 -119.5t68.5 -79t94.5 -41.5t111 -13q71 0 136.5 18t125 56.5t102.5 106.5t59 159l97 550q9 51 9 96q0 128 -73 195t-217 67q-174 0 -287.5 -91.5t-145.5 -273.5l-98 -552q-7 -39 -7 -78z" />
    <glyph glyph-name="afii10049" unicode="&#x42f;" horiz-adv-x="1232" 
d="M97 0l528 650l-67 3q-130 14 -198 89.5t-68 205.5q0 52 10 106q14 77 52 145t96.5 121t141 83.5t177.5 30.5h534l-253 -1434h-134l112 634h-264l-507 -634h-160zM422 964q0 -103 60 -156t176 -53h391l99 558h-394q-130 0 -217.5 -77t-107.5 -194q-7 -39 -7 -78z" />
    <glyph glyph-name="afii10065" unicode="&#x430;" horiz-adv-x="1034" 
d="M145 260q0 35 8 83q59 337 491 337q95 0 243 -18q9 52 9 86q0 87 -57.5 137.5t-202.5 50.5t-254 -64l-62 78q97 70 236 88q44 6 91 6q89 0 156 -15.5t108.5 -41.5t67 -64.5t35.5 -79.5t10 -92q0 -58 -14 -142l-108 -612h-104l9 50q-133 -70 -298 -70q-78 2 -141.5 18
t-115 48t-79.5 87t-28 130zM265 269q0 -185 264 -185q139 0 266 62l83 422q-124 17 -218 17q-344 0 -390 -260q-5 -25 -5 -56z" />
    <glyph glyph-name="afii10066" unicode="&#x431;" horiz-adv-x="1155" 
d="M167 299q0 41 8 87l48 273q52 294 103.5 426t156.5 212q42 32 97 55t105 36.5t130 23t132.5 13.5t150.5 9l-11 -111q-205 -7 -329.5 -28.5t-207.5 -84.5q-72 -53 -112 -127.5t-73 -219.5q112 161 334 161q156 0 240.5 -84.5t84.5 -229.5q0 -47 -9 -98l-42 -236
q-14 -80 -47.5 -149t-88 -126.5t-137.5 -90.5t-186 -33q-176 0 -261.5 91t-85.5 231zM295 303q0 -98 54 -158t167 -60q139 0 223 86.5t107 214.5l41 235q8 46 8 82q0 103 -54.5 158t-160.5 55q-139 0 -224.5 -77.5t-111.5 -226.5l-42 -236q-7 -44 -7 -73z" />
    <glyph glyph-name="afii10067" unicode="&#x432;" horiz-adv-x="1040" 
d="M149 0l181 1024h432q46 0 90.5 -11t86 -34.5t66.5 -67.5t25 -103q0 -23 -5 -55q-9 -51 -32.5 -93t-45.5 -63.5t-52.5 -38.5t-39 -20t-20.5 -6l14 -7q14 -7 33 -21t38.5 -35.5t32.5 -58t13 -80.5q0 -27 -6 -60q-13 -76 -52.5 -132t-92 -84t-103 -41t-100.5 -13h-463z
M297 104h304q31 0 63 7.5t70 26.5t67 59.5t39 97.5q3 15 3 41q0 43 -18 73.5t-46.5 45.5t-55 21t-53.5 6h-307zM379 572h290q93 0 154.5 45t76.5 132q3 20 3 38q0 65 -45 99t-126 34h-292z" />
    <glyph glyph-name="afii10068" unicode="&#x433;" horiz-adv-x="862" 
d="M149 0l181 1026h638l-18 -105h-509l-163 -921h-129z" />
    <glyph glyph-name="afii10069" unicode="&#x434;" horiz-adv-x="1200" 
d="M19 -248l59 356q64 0 100.5 8.5t72.5 36.5q68 50 84 143l129 730h714l-162 -920h142l-63 -354h-119l43 249h-836l-44 -249h-120zM364 106h523l144 815h-457l-110 -628q-21 -124 -100 -187z" />
    <glyph glyph-name="afii10070" unicode="&#x435;" horiz-adv-x="976" 
d="M156 243q0 37 7 73l63 362q27 151 121.5 243.5t239.5 115.5q42 7 94 7q160 0 243 -75.5t83 -208.5q0 -39 -8 -87l-35 -203h-648l-32 -178q-4 -23 -4 -47q0 -83 55.5 -125.5t149.5 -42.5q144 0 303 90l64 -73q-159 -114 -377 -117q-154 0 -236.5 71t-82.5 195zM334 559
h523l23 128q6 36 6 65q0 52 -17.5 89.5t-48 58t-66.5 30t-78 9.5q-54 0 -104.5 -14.5t-95.5 -45t-77.5 -83.5t-44.5 -123z" />
    <glyph glyph-name="afii10072" unicode="&#x436;" horiz-adv-x="1593" 
d="M47 2l645 534l-421 490h149l412 -482l87 485h124l-87 -485l578 482h154l-597 -490l454 -534h-152l-439 526l-95 -527h-123l94 527l-625 -526h-158z" />
    <glyph glyph-name="afii10073" unicode="&#x437;" horiz-adv-x="929" 
d="M113 88l97 46q77 -45 193 -45q40 0 84 7t93.5 25t88 44.5t64 70t25.5 97.5q0 55 -32.5 90t-76.5 47t-98 12h-165l16 90h158q100 0 169.5 53t85.5 143q3 16 3 30q0 68 -58 104.5t-165 36.5q-122 0 -237 -75l-88 60q144 123 334 123q95 0 170 -22.5t124.5 -76.5t49.5 -132
q0 -26 -4 -49q-4 -24 -12 -46.5t-17.5 -40t-22.5 -34.5t-24.5 -29.5t-26.5 -24.5t-26 -20t-25 -16t-21.5 -11.5t-18 -8.5t-11.5 -6q1 -1 4 -2q141 -66 141 -207q0 -87 -46.5 -155t-120.5 -106.5t-154 -58t-157 -19.5q-201 0 -293 106z" />
    <glyph glyph-name="afii10074" unicode="&#x438;" horiz-adv-x="1069" 
d="M149 0l181 1026h123l-141 -794l659 794h131l-181 -1026h-123l142 796l-660 -796h-131z" />
    <glyph glyph-name="afii10075" unicode="&#x439;" horiz-adv-x="1069" 
d="M149 0l181 1026h123l-141 -794l659 794h131l-181 -1026h-123l142 796l-660 -796h-131zM530 1407q0 26 4 47l70 -10q-2 -18 -2 -25q0 -66 42.5 -109.5t114.5 -43.5q84 0 152 56.5t84 131.5l71 -10q-20 -112 -107.5 -184.5t-196.5 -72.5q-102 0 -167 62t-65 158z" />
    <glyph glyph-name="afii10076" unicode="&#x43a;" horiz-adv-x="1007" 
d="M149 0l182 1028h124l-87 -486l580 483h154l-597 -490l454 -534h-152l-442 521l-92 -522h-124z" />
    <glyph glyph-name="afii10077" unicode="&#x43b;" horiz-adv-x="1140" 
d="M93 -23l11 114q80 0 139 46q68 49 84 143l132 746h714l-181 -1026h-129l162 921h-456l-114 -645q-28 -159 -137 -240q-102 -59 -225 -59z" />
    <glyph glyph-name="afii10078" unicode="&#x43c;" horiz-adv-x="1251" 
d="M149 0l182 1030h129l188 -894l506 894h131l-181 -1030h-123l138 775l-437 -775h-108l-164 775l-138 -775h-123z" />
    <glyph glyph-name="afii10079" unicode="&#x43d;" horiz-adv-x="1069" 
d="M149 0l182 1030h129l-82 -463h514l82 463h128l-181 -1030h-129l81 463h-513l-82 -463h-129z" />
    <glyph glyph-name="afii10080" unicode="&#x43e;" horiz-adv-x="1013" 
d="M168 302q0 42 8 88l45 254q30 168 123 269t242 126q51 8 101 8q165 0 253 -84t88 -231q0 -46 -9 -97l-45 -255q-14 -80 -47.5 -148.5t-88 -126t-137.5 -90.5t-186 -33q-176 0 -261.5 90t-85.5 230zM297 312q0 -100 55.5 -161.5t170.5 -61.5q137 0 218.5 84.5t104.5 212.5
l45 254q7 41 7 81q0 104 -56.5 161t-164.5 57q-136 0 -219.5 -76.5t-109.5 -224.5l-45 -254q-6 -38 -6 -72z" />
    <glyph glyph-name="afii10081" unicode="&#x43f;" horiz-adv-x="1069" 
d="M149 0l181 1026h772l-181 -1026h-129l162 921h-513l-163 -921h-129z" />
    <glyph glyph-name="afii10082" unicode="&#x440;" horiz-adv-x="1052" 
d="M80 -414l253 1439h104l-10 -51q132 68 299 68q97 0 173 -26t126 -89.5t50 -159.5q0 -38 -7 -76l-64 -362q-17 -96 -60.5 -166.5t-105 -108.5t-127.5 -55t-142 -17q-148 0 -277 59l-84 -455h-128zM301 137q104 -52 249 -52q129 0 216.5 62t111.5 198l63 357q5 30 5 52
q0 93 -64 138t-174 45q-140 0 -268 -59z" />
    <glyph glyph-name="afii10083" unicode="&#x441;" horiz-adv-x="913" 
d="M168 300q0 42 10 102l40 230q35 200 160 306t305 106q184 0 291 -131l-101 -44q-80 67 -193 67q-126 0 -216.5 -80t-117.5 -233l-41 -230q-8 -41 -8 -86q0 -109 58 -163.5t159 -54.5q117 0 232 75l88 -60q-142 -122 -322 -122q-160 0 -252 82t-92 236z" />
    <glyph glyph-name="afii10084" unicode="&#x442;" horiz-adv-x="931" 
d="M246 920l18 106h766l-19 -106h-318l-162 -920h-129l162 920h-318z" />
    <glyph glyph-name="afii10085" unicode="&#x443;" horiz-adv-x="1067" 
d="M166 -299l59 76q134 -84 269 -84q110 0 188.5 59t98.5 168l29 135q-124 -55 -291 -55q-71 0 -129.5 14.5t-105 45.5t-72.5 84t-26 125q0 36 8 82l119 675h129l-120 -677q-6 -37 -6 -67q0 -183 227 -183q150 0 277 54l158 873h129l-195 -1104q-29 -163 -135 -245.5
t-259 -82.5q-205 3 -352 107z" />
    <glyph glyph-name="afii10086" unicode="&#x444;" horiz-adv-x="1353" 
d="M182 346q0 78 19 187q25 143 76.5 243.5t125.5 156.5t159 80.5t191 24.5h43l70 399h129l-70 -399h31q397 0 397 -366q0 -71 -15 -158q-50 -283 -181.5 -404.5t-375.5 -121.5h-42l-70 -402h-129l71 402h-37q-204 0 -298 87.5t-94 270.5zM310 354q0 -137 67 -197.5
t210 -60.5h43l147 833h-34q-74 0 -134.5 -18t-118.5 -61.5t-100 -128t-64 -207.5q-16 -89 -16 -160zM759 96h31q86 1 151.5 22.5t120 71t91.5 134.5t59 208q14 78 14 134q0 78 -21.5 131.5t-62.5 81t-87.5 39t-108.5 11.5h-41z" />
    <glyph glyph-name="afii10087" unicode="&#x445;" horiz-adv-x="856" 
d="M38 0l407 514l-210 512h139l163 -425l315 425h143l-390 -514l206 -512h-135l-167 419l-327 -419h-144z" />
    <glyph glyph-name="afii10088" unicode="&#x446;" horiz-adv-x="1124" 
d="M150 2l180 1024h129l-162 -920h514l162 920h129l-162 -919h141l-62 -353h-120l44 248h-793z" />
    <glyph glyph-name="afii10089" unicode="&#x447;" horiz-adv-x="1017" 
d="M222 607q0 30 6 63l64 360h128l-60 -341q-5 -33 -5 -54q0 -66 39 -96.5t117 -30.5q95 0 322 44l88 478h129l-182 -1030h-129l82 436q-235 -45 -352 -45q-114 0 -180.5 56t-66.5 160z" />
    <glyph glyph-name="afii10090" unicode="&#x448;" horiz-adv-x="1544" 
d="M149 0l181 1026h129l-162 -922h429l163 922h128l-162 -922h429l163 922h129l-181 -1026h-1246z" />
    <glyph glyph-name="afii10091" unicode="&#x449;" horiz-adv-x="1597" 
d="M149 0l181 1026h129l-162 -922h429l163 922h128l-162 -921h429l163 921h129l-163 -921h142l-62 -353h-120l44 248h-1268z" />
    <glyph glyph-name="afii10092" unicode="&#x44a;" horiz-adv-x="1110" 
d="M169 912l20 112h376l-75 -425h309q36 0 72.5 -8t74 -26.5t66 -45.5t46.5 -70t18 -96q0 -30 -6 -63q-14 -78 -55 -137.5t-96 -91t-108 -46.5t-103 -15h-453l160 912h-246zM402 104h295q32 0 66 8.5t73.5 28t69.5 61t40 99.5q4 20 4 42q0 36 -13 63.5t-32 43.5t-45 26.5
t-48 14t-44 3.5h-297z" />
    <glyph glyph-name="afii10093" unicode="&#x44b;" horiz-adv-x="1325" 
d="M149 0l181 1024h129l-75 -425h310q46 0 92 -13.5t88.5 -40.5t69 -77t26.5 -115q0 -30 -6 -63q-14 -78 -55 -137.5t-96 -91t-108 -46.5t-103 -15h-453zM297 104h295q32 0 66 8.5t73.5 28t69.5 61t40 99.5q4 20 4 42q0 44 -19 76t-49 47t-58.5 21.5t-56.5 6.5h-297zM1047 0
l181 1024h128l-180 -1024h-129z" />
    <glyph glyph-name="afii10094" unicode="&#x44c;" horiz-adv-x="1003" 
d="M149 0l181 1024h129l-75 -425h310q46 0 92 -13.5t88.5 -40.5t69 -77t26.5 -115q0 -30 -6 -63q-14 -78 -55 -137.5t-96 -91t-108 -46.5t-103 -15h-453zM297 104h295q32 0 66 8.5t73.5 28t69.5 61t40 99.5q4 20 4 42q0 44 -19 76t-49 47t-58.5 21.5t-56.5 6.5h-297z" />
    <glyph glyph-name="afii10095" unicode="&#x44d;" horiz-adv-x="923" 
d="M121 97l96 46q79 -39 181 -39q148 0 236.5 64.5t117.5 225.5l16 89h-377l15 88h377l15 83q7 41 7 81q0 109 -58 162.5t-159 53.5q-113 0 -229 -69l-89 59q143 118 320 118q160 0 251.5 -83t91.5 -237q0 -47 -9 -101l-44 -248q-19 -108 -62 -185.5t-107 -122.5t-141 -65.5
t-174 -20.5q-171 0 -275 101z" />
    <glyph glyph-name="afii10096" unicode="&#x44e;" horiz-adv-x="1396" 
d="M149 0l182 1028h128l-81 -462h214l16 91q32 164 125 261t240 121q50 8 99 8q165 0 252.5 -84t87.5 -231q0 -46 -9 -97l-44 -255q-14 -80 -47.5 -148.5t-88 -126t-137.5 -90.5t-186 -33q-90 0 -158.5 25.5t-109 70.5t-60 101t-19.5 122q0 37 6 75l15 86h-214l-82 -462
h-129zM682 312q0 -100 56 -161.5t171 -61.5q137 0 218 84.5t104 212.5l45 254q8 46 8 81q0 104 -56.5 161t-164.5 57q-136 0 -219.5 -76t-109.5 -224l-45 -255q-7 -44 -7 -72z" />
    <glyph glyph-name="afii10097" unicode="&#x44f;" horiz-adv-x="1054" 
d="M120 0l363 446l-11 2q-34 8 -64.5 21.5t-65 39t-55.5 68.5t-21 99q0 32 5 58q14 78 55.5 137.5t96 91t108 46.5t103.5 15h452l-181 -1024h-128l75 425h-252l-341 -425h-139zM391 681q0 -44 18.5 -75.5t48.5 -46.5t58.5 -21.5t56.5 -6.5h297l69 389h-295q-32 0 -66 -8.5
t-73.5 -28t-69.5 -61t-40 -99.5q-4 -20 -4 -42z" />
    <glyph glyph-name="uni2000" unicode="&#x2000;" horiz-adv-x="936" 
 />
    <glyph glyph-name="uni2001" unicode="&#x2001;" horiz-adv-x="1873" 
 />
    <glyph glyph-name="uni2002" unicode="&#x2002;" horiz-adv-x="936" 
 />
    <glyph glyph-name="uni2003" unicode="&#x2003;" horiz-adv-x="1873" 
 />
    <glyph glyph-name="uni2004" unicode="&#x2004;" horiz-adv-x="624" 
 />
    <glyph glyph-name="uni2005" unicode="&#x2005;" horiz-adv-x="468" 
 />
    <glyph glyph-name="uni2006" unicode="&#x2006;" horiz-adv-x="312" 
 />
    <glyph glyph-name="uni2007" unicode="&#x2007;" horiz-adv-x="312" 
 />
    <glyph glyph-name="uni2008" unicode="&#x2008;" horiz-adv-x="234" 
 />
    <glyph glyph-name="uni2009" unicode="&#x2009;" horiz-adv-x="374" 
 />
    <glyph glyph-name="uni200A" unicode="&#x200a;" horiz-adv-x="104" 
 />
    <glyph glyph-name="uni2010" unicode="&#x2010;" horiz-adv-x="901" 
d="M189 574l21 120h740l-21 -120h-740z" />
    <glyph glyph-name="uni2011" unicode="&#x2011;" horiz-adv-x="901" 
d="M189 574l21 120h740l-21 -120h-740z" />
    <glyph glyph-name="figuredash" unicode="&#x2012;" horiz-adv-x="901" 
d="M189 574l21 120h740l-21 -120h-740z" />
    <glyph glyph-name="endash" unicode="&#x2013;" horiz-adv-x="1085" 
d="M177 506l21 121h925l-21 -121h-925z" />
    <glyph glyph-name="emdash" unicode="&#x2014;" horiz-adv-x="1429" 
d="M177 506l21 121h1270l-21 -121h-1270z" />
    <glyph glyph-name="quoteleft" unicode="&#x2018;" horiz-adv-x="280" 
d="M330 1407q2 13 11 30l99 147h88l-70 -128q24 -19 24 -54q0 -32 -25 -57t-57 -25q-34 0 -55 26t-15 61z" />
    <glyph glyph-name="quoteright" unicode="&#x2019;" horiz-adv-x="309" 
d="M308 1320l70 129q-25 20 -25 53q0 32 25 57t57 25q35 0 56 -25.5t15 -60.5q-1 -12 -12 -31l-98 -147h-88z" />
    <glyph glyph-name="quotesinglbase" unicode="&#x201a;" horiz-adv-x="296" 
d="M50 -117l70 129q-25 20 -25 54q0 32 25 57t57 25q34 0 55 -26t15 -61q-2 -13 -11 -30l-98 -148h-88z" />
    <glyph glyph-name="quotedblleft" unicode="&#x201c;" horiz-adv-x="536" 
d="M330 1407q2 13 11 30l99 147h88l-70 -128q24 -19 24 -54q0 -32 -25 -57t-57 -25q-34 0 -55 26t-15 61zM559 1407q2 13 11 30l98 147h88l-70 -128q25 -20 25 -54q0 -32 -25 -57t-57 -25q-34 0 -55 26t-15 61z" />
    <glyph glyph-name="quotedblright" unicode="&#x201d;" horiz-adv-x="536" 
d="M308 1320l70 129q-25 20 -25 53q0 32 25 57t57 25q35 0 56 -25.5t15 -60.5q-1 -12 -12 -31l-98 -147h-88zM536 1320l70 129q-24 19 -24 53q0 32 25 57t57 25q35 0 55.5 -25.5t14.5 -60.5q-2 -14 -11 -31l-99 -147h-88z" />
    <glyph glyph-name="quotedblbase" unicode="&#x201e;" horiz-adv-x="526" 
d="M50 -117l70 129q-25 20 -25 54q0 32 25 57t57 25q34 0 55 -26t15 -61q-2 -13 -11 -30l-98 -148h-88zM278 -117l70 129q-24 19 -24 54q0 32 25 57t57 25q34 0 55 -26t15 -61q-2 -13 -11 -30l-99 -148h-88z" />
    <glyph glyph-name="bullet" unicode="&#x2022;" horiz-adv-x="620" 
d="M201 623q0 103 79.5 181.5t181.5 78.5q86 0 142 -56.5t56 -140.5q0 -103 -80 -180.5t-182 -77.5q-86 0 -141.5 55.5t-55.5 139.5z" />
    <glyph glyph-name="ellipsis" unicode="&#x2026;" horiz-adv-x="1107" 
d="M89 66q0 32 25 57t57 25q31 0 51.5 -21t20.5 -51q0 -32 -25 -57t-57 -25q-31 0 -51.5 21t-20.5 51zM497 66q0 32 25 57t57 25q30 0 50.5 -21t20.5 -51q0 -32 -25 -57t-57 -25q-30 0 -50.5 21t-20.5 51zM906 66q0 32 25 57t57 25q30 0 50.5 -21t20.5 -51q0 -32 -25 -57
t-57 -25q-30 0 -50.5 21t-20.5 51z" />
    <glyph glyph-name="uni202F" unicode="&#x202f;" horiz-adv-x="374" 
 />
    <glyph glyph-name="guilsinglleft" unicode="&#x2039;" horiz-adv-x="645" 
d="M179 549l477 408l71 -82l-384 -326l269 -325l-94 -85z" />
    <glyph glyph-name="guilsinglright" unicode="&#x203a;" horiz-adv-x="645" 
d="M127 224l383 325l-268 326l94 82l339 -408l-477 -410z" />
    <glyph glyph-name="uni205F" unicode="&#x205f;" horiz-adv-x="468" 
 />
    <glyph glyph-name="Euro" unicode="&#x20ac;" horiz-adv-x="1230" 
d="M233 565l14 78h116l27 153h-116l13 77h116l30 167q21 111 74.5 195.5t127.5 133t156 72.5t170 24q145 0 248.5 -64t133.5 -185l-108 -39q-25 87 -98 127t-170 40q-51 0 -100.5 -10.5t-99.5 -34.5t-90 -59.5t-70.5 -90t-42.5 -121.5l-27 -155h439l-13 -78h-440l-27 -152
h440l-14 -78h-439l-29 -160q-6 -36 -6 -67q0 -64 24 -112t65 -75t89 -40t103 -13q102 0 195.5 44t148.5 132l96 -56q-71 -120 -191.5 -180.5t-261.5 -60.5q-81 0 -151.5 20.5t-127.5 61t-90 108.5t-33 156q0 48 8 91l27 151h-116z" />
    <glyph glyph-name="trademark" unicode="&#x2122;" horiz-adv-x="1470" 
d="M313 1345l16 89h535l-16 -89h-221l-131 -742h-100l131 742h-214zM814 603l147 831h95l132 -650l361 650h97l-146 -831h-97l104 586l-306 -555h-74l-109 556l-105 -587h-99z" />
    <glyph glyph-name="uniE000" unicode="&#xe000;" horiz-adv-x="1024" 
d="M0 0v1024h1024v-1024h-1024z" />
    </font>
</defs>
</svg>
