<?xml version="1.0" standalone="no"?>
<!DOCTYPE svg PUBLIC "-//W3C//DTD SVG 1.1//EN" "http://www.w3.org/Graphics/SVG/1.1/DTD/svg11.dtd" >
<svg xmlns="http://www.w3.org/2000/svg" xmlns:xlink="http://www.w3.org/1999/xlink" version="1.1">
<metadata>
Created by FontForge 20150318 at Tue Aug  4 07:31:39 2015
 By uniteet7
Copyright (c) 2010 by Jonathan Hill. All rights reserved.
</metadata>
<defs>
<font id="LintelBlack" horiz-adv-x="484" >
  <font-face 
    font-family="LintelBlack"
    font-weight="900"
    font-stretch="normal"
    units-per-em="1000"
    panose-1="0 0 10 0 0 0 0 0 0 0"
    ascent="800"
    descent="-200"
    x-height="501"
    cap-height="700"
    bbox="-60 -242 1182 1078"
    underline-thickness="50"
    underline-position="-50"
    unicode-range="U+0020-FB02"
  />
<missing-glyph horiz-adv-x="500" 
d="M500 0h-500v700h500v-700zM80 650l170 -255l170 255h-340zM450 605l-170 -255l170 -255v510zM250 305l-170 -255h340zM220 350l-170 255v-510z" />
    <glyph glyph-name="fi" unicode="fi" horiz-adv-x="544" 
d="M253 713q99 0 182 -31v-121q-54 12 -141 12q-53 0 -71 -13.5t-19 -47.5v-11h311v-501h-174v371h-137v-371h-174v534q0 94 61.5 136.5t161.5 42.5z" />
    <glyph glyph-name="fl" unicode="fl" horiz-adv-x="544" 
d="M253 713q91 0 166 -25q57 -18 85 -38l11 -7v-643h-174v561q-40 12 -77 12q-27 0 -41 -10t-16.5 -21.5t-2.5 -31.5v-9h85v-130h-85v-371h-174v534q0 94 61.5 136.5t161.5 42.5z" />
    <glyph glyph-name="f_f" unicode="ff" horiz-adv-x="621" 
d="M534 713q36 1 72 -6v-137q-39 6 -61 1q-31 -9 -31 -53v-17h85v-130h-85v-371h-174v371h-137v-371h-174v534q0 91 56.5 133.5t137.5 45.5q37 1 72 -6v-137q-39 6 -61 1q-31 -9 -31 -55v-15h137v33q0 63 30 104.5t71 57t93 17.5z" />
    <glyph glyph-name="f_f_i" unicode="ffi" horiz-adv-x="855" 
d="M563 713q99 0 182 -31v-121q-54 12 -141 12q-57 0 -73.5 -15t-16.5 -50v-7h310v-501h-173v371h-137v-371h-174v371h-137v-371h-174v534q0 91 56.5 133.5t137.5 45.5q37 1 72 -6v-137q-39 6 -61 1q-31 -9 -31 -58v-12h137v33q0 94 61 136.5t162 42.5z" />
    <glyph glyph-name="uni00660066006A" unicode="ffj" horiz-adv-x="855" 
d="M564 713q98 0 182 -30v-122q-54 12 -141 12q-53 0 -71 -13.5t-19 -47.5v-11h310v-503q0 -92 -56 -134.5t-138 -44.5q-25 0 -49 3v137q20 -1 38 2q23 6 27 26q5 19 5 44v340h-137v-371h-174v371h-137v-371h-174v534q0 91 56.5 133.5t137.5 45.5q38 1 72 -6v-137
q-39 6 -61 1q-31 -9 -31 -56v-14h137v33q0 94 61 136.5t162 42.5z" />
    <glyph glyph-name="f_f_l" unicode="ffl" horiz-adv-x="855" 
d="M563 713q91 0 166 -25q58 -19 85 -38l10 -7v-643h-173v561q-42 12 -77 12q-37 0 -48.5 -15t-11.5 -44v-13h85v-129h-85v-372h-174v372h-137v-372h-174v534q0 92 56.5 134t137.5 45q37 1 72 -6v-137q-39 6 -61 1q-18 -5 -24.5 -18t-6.5 -39v-13h137v33q0 94 61 136.5
t162 42.5z" />
    <glyph glyph-name=".notdef" horiz-adv-x="500" 
d="M500 0h-500v700h500v-700zM80 650l170 -255l170 255h-340zM450 605l-170 -255l170 -255v510zM250 305l-170 -255h340zM220 350l-170 255v-510z" />
    <glyph glyph-name=".null" horiz-adv-x="0" 
 />
    <glyph glyph-name="nonmarkingreturn" horiz-adv-x="333" 
 />
    <glyph glyph-name="space" unicode=" " horiz-adv-x="300" 
 />
    <glyph glyph-name="exclam" unicode="!" horiz-adv-x="306" 
d="M256 701l-44 -479h-118l-44 479h206zM86 152q28 28 67 28t67 -28t28 -67t-28 -67t-67 -28t-67 28t-28 67t28 67z" />
    <glyph glyph-name="quotedbl" unicode="&#x22;" horiz-adv-x="426" 
d="M185 719l-25 -285h-105l-25 285h155zM396 719l-26 -285h-104l-26 285h156z" />
    <glyph glyph-name="numbersign" unicode="#" horiz-adv-x="835" 
d="M730 700l-34 -144h105v-159h-142l-22 -94h114v-159h-151l-34 -144h-162l34 144h-126l-34 -144h-161l33 144h-115v159h153l22 94h-125v159h162l34 144h161l-33 -144h126l33 144h162zM497 397h-126l-22 -94h126z" />
    <glyph glyph-name="dollar" unicode="$" horiz-adv-x="563" 
d="M217 780h129v-76q81 -18 124 -74t43 -144h-173q0 37 -17 52.5t-55 15.5q-31 0 -46.5 -12.5t-15.5 -32.5q0 -27 18.5 -40t96.5 -33q134 -30 178 -91q40 -53 40 -144q0 -78 -47.5 -137.5t-145.5 -72.5v-71h-129v74q-92 18 -143.5 74.5t-51.5 146.5h172q0 -36 18.5 -50
t73.5 -14q36 0 57 13t21 37q0 28 -24 38q-7 4 -33 11l-48 14q-107 30 -165 74q-63 53 -64 148q-3 95 45 153t142 70v71z" />
    <glyph glyph-name="percent" unicode="%" horiz-adv-x="839" 
d="M212 717q70 0 121.5 -51.5t51.5 -120.5q0 -71 -51.5 -122t-121.5 -51t-122 50q-50 52 -50 123q0 69 50 121q51 51 122 51zM772 700l-529 -700h-175l529 700h175zM212 598q-22 0 -37.5 -16t-15.5 -37q0 -22 15.5 -38t37.5 -16t38 16t16 38q0 21 -16 37t-38 16zM626 328
q72 0 122 -51q51 -51 51 -122t-51 -122q-52 -50 -122 -50t-122 50q-50 52 -50 122t50 122q51 51 122 51zM626 209q-21 0 -37 -16t-16 -38t15.5 -37.5t37.5 -15.5t38 15.5t16 37.5t-16 38t-38 16z" />
    <glyph glyph-name="ampersand" unicode="&#x26;" horiz-adv-x="654" 
d="M285 717q92 0 145.5 -49t53.5 -130q0 -73 -70 -122l-50 -37l86 -99l84 73l104 -120l-84 -73l79 -87l-119 -103l-74 81l-16 -13q-64 -45 -153 -45q-241 0 -241 222q0 96 106 173l7 5l-12 14q-55 64 -55 133q0 81 55.5 129t153.5 48zM285 579q-45 0 -45 -43q0 -16 23 -42
l15 -16l24 17q28 19 28 42q0 19 -12 30.5t-33 11.5zM341 167l-111 127l-8 -6q-34 -27 -34 -72q0 -32 24.5 -53.5t58.5 -21.5q38 0 65 21z" />
    <glyph glyph-name="quotesingle" unicode="'" horiz-adv-x="225" 
d="M185 719l-25 -285h-105l-25 285h155z" />
    <glyph glyph-name="parenleft" unicode="(" horiz-adv-x="290" 
d="M170 750l79 -140q-36 -22 -47 -42.5t-11 -60.5v-383q0 -40 11.5 -61t46.5 -42l-79 -140q-141 73 -141 252v365q0 180 141 252z" />
    <glyph glyph-name="parenright" unicode=")" horiz-adv-x="290" 
d="M40 610l79 140q141 -72 141 -252v-365q0 -180 -141 -252l-79 140q36 22 47 42.5t11 60.5v383q0 40 -11.5 61t-46.5 42z" />
    <glyph glyph-name="asterisk" unicode="*" horiz-adv-x="510" 
d="M313 700l-9 -125l118 49l38 -115l-122 -30l83 -97l-98 -71l-66 106l-67 -109l-98 72l81 95l-124 30l38 115l115 -47l-10 127h121z" />
    <glyph glyph-name="plus" unicode="+" horiz-adv-x="558" 
d="M356 512v-152h152v-154h-152v-152h-154v152h-152v154h152v152h154z" />
    <glyph glyph-name="comma" unicode="," horiz-adv-x="250" 
d="M219 84q0 -24 -12 -45l-72 -155h-114l40 129q-32 29 -32 71q0 39 28 67t67 28t67 -28t28 -67z" />
    <glyph glyph-name="hyphen" unicode="-" horiz-adv-x="565" 
d="M515 370v-160h-465v160h465z" />
    <glyph glyph-name="period" unicode="." horiz-adv-x="250" 
d="M58 151q28 28 67 28t67 -28t28 -67t-28 -67t-67 -28t-67 28t-28 67t28 67z" />
    <glyph glyph-name="slash" unicode="/" horiz-adv-x="494" 
d="M455 700l-243 -700h-172l243 700h172z" />
    <glyph glyph-name="zero" unicode="0" horiz-adv-x="563" 
d="M283 713q113 0 176 -64q64 -64 64 -167v-271q0 -59 -22 -103.5t-58 -69t-77 -36.5t-84 -12q-42 0 -82.5 12t-77.5 36.5t-59.5 69t-22.5 103.5v272q0 109 67 169q67 61 176 61zM283 554q-37 0 -53 -17t-16 -59v-261q0 -67 68 -67q33 0 50 15t17 52v260q0 41 -16 59t-50 18
z" />
    <glyph glyph-name="one" unicode="1" horiz-adv-x="413" 
d="M363 700v-700h-163v448q-15 -20 -45 -30q-35 -13 -94 -16l-41 165q68 4 124 39q61 37 78 94h141z" />
    <glyph glyph-name="two" unicode="2" horiz-adv-x="532" 
d="M276 712q101 0 165.5 -64.5t64.5 -160.5q0 -109 -77 -188l-136 -143h213v-156h-473v115l234 257q65 76 65 122q0 26 -16 42t-40 16q-35 0 -51 -18t-31 -70l-170 47q36 105 97 153t155 48z" />
    <glyph glyph-name="three" unicode="3" horiz-adv-x="524" 
d="M250 713q96 0 164 -57t68 -154q0 -80 -73 -141q28 -23 49 -51q31 -37 31 -102q0 -106 -68 -163q-68 -56 -171 -56q-95 0 -154 46q-51 39 -71 72l134 86q13 -19 37.5 -31.5t53.5 -12.5q26 0 45 18.5t19 44.5q0 28 -24 49.5t-58 21.5h-38v144h38q35 0 57 20t22 47
q0 25 -17.5 42.5t-43.5 17.5q-19 0 -34.5 -10.5t-19.5 -22.5l-4 -10l-153 62q19 41 64 85q60 55 147 55z" />
    <glyph glyph-name="four" unicode="4" horiz-adv-x="543" 
d="M462 700v-401h46v-151h-46v-148h-174v148h-263v151l252 401h185zM288 441l-93 -142h93v142z" />
    <glyph glyph-name="five" unicode="5" horiz-adv-x="543" 
d="M455 701v-161h-197l-8 -66h20q39 -2 79.5 -16t78 -40.5t61 -72.5t23.5 -105q0 -119 -75 -185q-73 -66 -188 -66q-88 0 -151 46q-47 35 -71 72l134 86q11 -18 37.5 -31t50.5 -13q40 0 64 22.5t25 60.5q0 36 -25 59.5t-64 23.5h-165l48 386h323z" />
    <glyph glyph-name="six" unicode="6" horiz-adv-x="599" 
d="M321 712q50 0 98 -19q67 -25 111 -65l-104 -119q-51 44 -110 44q-47 0 -75 -27t-28 -67v-11q48 24 97 24q104 0 171 -70q69 -69 69 -171t-73 -172q-71 -70 -177 -70q-103 -2 -177.5 70t-72.5 172v216q0 120 77 192q77 73 194 73zM300 312q-38 0 -57 -22.5t-19 -58.5
q0 -37 20 -59.5t56 -22.5q37 0 56.5 22.5t19.5 59.5t-19.5 59t-56.5 22z" />
    <glyph glyph-name="seven" unicode="7" horiz-adv-x="501" 
d="M466 700v-110l-272 -590h-169l250 540h-249v160h440z" />
    <glyph glyph-name="eight" unicode="8" horiz-adv-x="548" 
d="M506 502q0 -80 -73 -141q19 -15 34 -30q12 -12 29 -48t17 -75q0 -106 -68 -163q-68 -56 -171 -56q-104 0 -172 56q-67 57 -67 163q0 42 16 75q17 35 30 48q15 15 34 30q-73 61 -73 141q0 97 68 154t164 57t164 -57t68 -154zM316 536q-17 18 -42 18t-43 -18
q-17 -17 -17 -42t17 -43q18 -17 43 -17t42 17q18 18 18 43t-18 42zM318 256q-18 19 -44 19t-45 -19q-18 -18 -18 -44t18 -45q19 -18 45 -18t44 18q19 19 19 45t-19 44z" />
    <glyph glyph-name="nine" unicode="9" horiz-adv-x="599" 
d="M549 471v-216q0 -120 -78 -193q-77 -73 -193 -73q-50 0 -99 18q-63 24 -111 66l105 119q49 -43 110 -43q46 0 74.5 26.5t28.5 66.5v12q-47 -25 -97 -25q-103 0 -172 70q-68 71 -68 172t72 171q71 70 177 70q107 0 178 -70q73 -70 73 -171zM299 552q-38 0 -57 -22t-19 -59
q0 -38 19.5 -60t56.5 -22t56.5 22.5t19.5 59.5t-20 59t-56 22z" />
    <glyph glyph-name="colon" unicode=":" horiz-adv-x="249" 
d="M219 391q0 -39 -28 -67t-67 -28q-29 -2 -53 15.5t-34.5 43t-6 55t26.5 48.5q19 22 48.5 26.5t54.5 -6t42.5 -34.5t16.5 -53zM57 151q28 28 67 28t67 -28t28 -67t-28 -67t-67 -28t-67 28t-28 67t28 67z" />
    <glyph glyph-name="semicolon" unicode=";" horiz-adv-x="249" 
d="M219 84q0 -23 -11 -45l-73 -155h-114l41 129q-33 29 -33 71q0 39 28 67t67 28t67 -28t28 -67zM219 391q0 -39 -28 -67t-67 -28q-29 -2 -53 15.5t-34.5 43t-6 55t26.5 48.5q19 22 48.5 26.5t54.5 -6t42.5 -34.5t16.5 -53z" />
    <glyph glyph-name="less" unicode="&#x3c;" horiz-adv-x="470" 
d="M334 643l87 -87l-198 -197l198 -197l-87 -87l-284 284z" />
    <glyph glyph-name="equal" unicode="=" horiz-adv-x="558" 
d="M508 494v-154h-458v154h458zM508 250v-154h-458v154h458z" />
    <glyph glyph-name="greater" unicode="&#x3e;" horiz-adv-x="470" 
d="M137 643l284 -284l-284 -284l-87 87l197 197l-197 197z" />
    <glyph glyph-name="question" unicode="?" horiz-adv-x="554" 
d="M277 709q61 0 107 -20.5t71 -53t37 -68t12 -71.5q0 -74 -52 -130q-7 -9 -32 -34q-24 -24 -30 -31q-24 -28 -24 -53v-26h-170v26q0 46 16 74q16 27 96 121q26 31 26 54q0 26 -15.5 42t-41.5 16q-57 0 -57 -63h-170q0 38 12 74.5t37 69.5t71 53t107 20zM376 84
q0 -39 -28 -67t-67 -28q-29 -2 -53 15.5t-34.5 43t-6 55t26.5 48.5q19 22 48.5 26.5t54.5 -6t42.5 -34.5t16.5 -53z" />
    <glyph glyph-name="at" unicode="@" horiz-adv-x="765" 
d="M383 718q160 0 250.5 -82.5t90.5 -217.5v-70q0 -68 -23.5 -121t-64.5 -85.5t-88.5 -51t-102.5 -24.5l-8 48q-31 -25 -84 -25q-57 0 -101 35q-43 34 -43 103v113q0 64 39.5 100.5t101.5 40.5q48 4 87 -13l4 12h99v-234q34 37 34 102v70q0 170 -191 170q-194 0 -194 -169
v-268q0 -78 51.5 -117.5t141.5 -39.5q23 0 55 5v-131q-23 -4 -55 -4q-60 0 -117.5 15.5t-109.5 47.5t-84 90t-32 134v268q0 142 95 220q94 79 249 79zM372 381q-22 0 -28 -14v-3q-1 -4 -2 -7.5t-1 -4.5q0 -2 0.5 -11t0.5 -10v-105v-3q0 -11 1.5 -17t9 -11.5t22.5 -5.5
q20 0 33 4v184q-15 4 -36 4z" />
    <glyph glyph-name="A" unicode="A" horiz-adv-x="651" 
d="M417 700l224 -700h-188l-36 138h-182l-36 -138h-189l225 700h182zM326 493l-50 -195h100z" />
    <glyph glyph-name="B" unicode="B" horiz-adv-x="590" 
d="M50 0v700h309q86 0 139 -56q52 -55 52 -133q0 -104 -62 -158q36 -25 56.5 -65.5t20.5 -88.5q0 -94 -50.5 -146.5t-140.5 -52.5h-324zM232 540v-110h82q54 0 54 57q0 23 -14.5 38t-39.5 15h-82zM329 269h-97v-110h97q54 0 54 57q0 23 -14.5 38t-39.5 15z" />
    <glyph glyph-name="C" unicode="C" horiz-adv-x="566" 
d="M302 713q91 0 153 -44t86 -122l-132 -58q-22 65 -96 65q-37 -2 -64.5 -27t-27.5 -67v-217q0 -42 26.5 -67t65.5 -26q31 -2 59 15.5t37 48.5l132 -58q-24 -78 -86 -122t-153 -44q-115 0 -189 67t-74 186v217q0 120 74 186q73 67 189 67z" />
    <glyph glyph-name="D" unicode="D" horiz-adv-x="608" 
d="M50 0v700h251q125 0 196 -72q71 -73 71 -180v-217q0 -121 -73 -176t-178 -55h-267zM301 540h-69v-380h85q41 0 55 14t14 57v217q0 92 -85 92z" />
    <glyph glyph-name="E" unicode="E" horiz-adv-x="549" 
d="M519 700v-160h-287v-111h264v-159h-264v-110h292v-160h-474v700h469z" />
    <glyph glyph-name="F" unicode="F" horiz-adv-x="533" 
d="M508 700v-160h-276v-111h249v-159h-249v-270h-182v700h458z" />
    <glyph glyph-name="G" unicode="G" horiz-adv-x="609" 
d="M307 713q95 0 158 -43.5t87 -121.5l-144 -60q-16 37 -37.5 51.5t-63.5 14.5q-46 -1 -65.5 -22t-19.5 -72v-227q0 -83 84 -83q40 0 58 19t18 64v22h-92v151h274v-406h-131l-6 40q-58 -50 -143 -50q-97 0 -170.5 63t-73.5 180v227q0 120 73 186q73 67 194 67z" />
    <glyph glyph-name="H" unicode="H" horiz-adv-x="630" 
d="M580 700v-700h-182v270h-166v-270h-182v700h182v-271h166v271h182z" />
    <glyph glyph-name="I" unicode="I" horiz-adv-x="281" 
d="M232 700v-700h-182v700h182z" />
    <glyph glyph-name="J" unicode="J" horiz-adv-x="394" 
d="M163 699h182v-471q0 -133 -96 -195.5t-239 -33.5v159q39 -10 73 -11t57 19.5t23 61.5v471z" />
    <glyph glyph-name="K" unicode="K" horiz-adv-x="634" 
d="M614 700l-237 -301l247 -399h-217l-142 257l-33 -43v-214h-182v700h182v-217l155 217h227z" />
    <glyph glyph-name="L" unicode="L" horiz-adv-x="486" 
d="M232 700v-540h240v-160h-422v700h182z" />
    <glyph glyph-name="M" unicode="M" horiz-adv-x="757" 
d="M707 700v-700h-181v292l-85 -199h-129l-86 199v-292h-181v700h185l146 -341l146 341h185z" />
    <glyph glyph-name="N" unicode="N" horiz-adv-x="651" 
d="M606 700v-700h-191l-188 337v-337h-182v700h181l198 -355v355h182z" />
    <glyph glyph-name="O" unicode="O" horiz-adv-x="610" 
d="M307 713q123 0 193 -70t70 -184v-226q0 -65 -24.5 -114t-64.5 -76t-84.5 -40t-90.5 -13q-47 0 -91 13t-85 40t-65.5 76t-24.5 114v227q0 120 73 186q73 67 194 67zM307 554q-45 0 -65 -21.5t-20 -72.5v-227q0 -83 84 -83q41 0 61.5 19.5t20.5 63.5v226q0 51 -19.5 73
t-61.5 22z" />
    <glyph glyph-name="P" unicode="P" horiz-adv-x="587" 
d="M50 0v700h262q114 1 184 -70.5t67 -165.5q0 -114 -67.5 -180.5t-184.5 -66.5h-79v-217h-182zM309 540h-77v-163h76q81 0 81 85q0 34 -21 56t-59 22z" />
    <glyph glyph-name="Q" unicode="Q" horiz-adv-x="610" 
d="M570 459v-226q0 -97 -54 -158l54 -66l-92 -75l-61 75q-51 -19 -111 -19q-47 0 -91 13t-85 40t-65.5 76t-24.5 114v227q0 120 73 186q73 67 194 67q123 0 193 -70t70 -184zM350 281l38 -48v226q0 50 -19.5 72.5t-61.5 22.5q-45 0 -65 -21.5t-20 -72.5v-227q0 -81 81 -83
l-46 56z" />
    <glyph glyph-name="R" unicode="R" horiz-adv-x="606" 
d="M50 0v700h262q115 0 184.5 -69t66.5 -162q0 -149 -115 -209l-4 -2l153 -258h-210l-123 230h-32v-230h-182zM309 540h-77v-150h76q81 0 81 78q0 32 -21.5 52.5t-58.5 19.5z" />
    <glyph glyph-name="S" unicode="S" horiz-adv-x="563" 
d="M268 712q118 0 181.5 -59t63.5 -167h-173q0 38 -17 53t-55 15q-31 0 -46.5 -12.5t-15.5 -32.5q0 -27 18.5 -40t96.5 -33q129 -29 173.5 -84.5t44.5 -150.5q0 -88 -60.5 -150.5t-184.5 -62.5q-126 0 -199 59.5t-73 167.5h172q0 -36 19 -50t73 -14q36 0 57 13t21 37
q0 22 -17 34q-4 4 -34 14q-4 1 -25 6.5t-29 8.5q-107 30 -165 74q-63 53 -64 148q-3 107 58 166.5t180 59.5z" />
    <glyph glyph-name="T" unicode="T" horiz-adv-x="530" 
d="M515 700v-160h-162v-540h-182v540h-156v160h500z" />
    <glyph glyph-name="U" unicode="U" horiz-adv-x="625" 
d="M398 700h182v-467q0 -65 -24.5 -114t-64.5 -76t-84.5 -40t-90.5 -13q-37 0 -72.5 7.5t-71 26t-62.5 45.5t-43.5 69.5t-16.5 94.5v467h182v-467q0 -83 84 -83q82 0 82 83v467z" />
    <glyph glyph-name="V" unicode="V" horiz-adv-x="652" 
d="M642 700l-184 -700h-266l-183 700h188l128 -514l128 514h189z" />
    <glyph glyph-name="W" unicode="W" horiz-adv-x="901" 
d="M891 700l-143 -700h-237l-61 290l-61 -290h-237l-143 700h188l75 -490l91 490h174l91 -490l75 490h188z" />
    <glyph glyph-name="X" unicode="X" horiz-adv-x="680" 
d="M656 700l-190 -339l204 -361h-211l-119 222l-118 -222h-212l205 361l-190 339h210l105 -227l105 227h211z" />
    <glyph glyph-name="Y" unicode="Y" horiz-adv-x="650" 
d="M641 700l-225 -423v-277h-182v276l-224 424h209l105 -256l106 256h211z" />
    <glyph glyph-name="Z" unicode="Z" horiz-adv-x="572" 
d="M543 700v-107l-270 -433h274v-160h-522v107l269 433h-249v160h498z" />
    <glyph glyph-name="bracketleft" unicode="[" horiz-adv-x="405" 
d="M366 750v-160h-154v-544h154v-160h-326v864h326z" />
    <glyph glyph-name="backslash" unicode="\" horiz-adv-x="494" 
d="M212 700l243 -700h-172l-243 700h172z" />
    <glyph glyph-name="bracketright" unicode="]" horiz-adv-x="405" 
d="M366 750v-864h-326v160h154v544h-154v160h326z" />
    <glyph glyph-name="asciicircum" unicode="^" horiz-adv-x="498" 
d="M249 717l200 -200l-82 -81l-118 118l-118 -118l-81 81z" />
    <glyph glyph-name="underscore" unicode="_" horiz-adv-x="600" 
d="M550 -44v-140h-500v140h500z" />
    <glyph glyph-name="grave" unicode="`" horiz-adv-x="182" 
d="M127 700l63 -129h-112l-101 129h150z" />
    <glyph glyph-name="a" unicode="a" horiz-adv-x="467" 
d="M223 510q106 1 162 -54t56 -153v-303h-131l-4 26q-44 -33 -111 -33q-73 0 -125 43q-51 44 -51 129q0 47 18 80t48 49t61.5 22.5t65.5 5.5q30 -2 55 -6q0 51 -47 56q-43 3 -97 -33l-86 79q71 90 186 92zM232 205q-54 0 -54 -40t49 -40q24 0 40 10v67q-21 3 -35 3z" />
    <glyph glyph-name="b" unicode="b" 
d="M30 700h174v-209q39 17 83 17q73 0 125.5 -45.5t52.5 -138.5v-149q0 -90 -56.5 -136t-132.5 -46q-68 0 -111 33l-4 -26h-131v700zM251 377q-25 0 -47 -6v-240q20 -6 43 -6q15 0 35 10q9 13 8 32l1 7v137v13.5v12t-0.5 10t-1.5 9.5t-3 7t-5 6.5t-7 4t-10 3t-13 0.5z" />
    <glyph glyph-name="c" unicode="c" horiz-adv-x="444" 
d="M239 510q159 0 191 -138l-145 -47q-7 46 -46 46q-27 0 -36 -14.5t-9 -53.5v-104q0 -39 9.5 -54t35.5 -15q39 0 46 46l145 -46q-32 -138 -191 -138q-106 0 -162.5 54.5t-56.5 152.5v104q0 97 56.5 152t162.5 55z" />
    <glyph glyph-name="d" unicode="d" 
d="M455 700v-700h-131l-5 26q-42 -33 -111 -33q-76 0 -132 46t-56 136v149q0 93 52.5 138.5t124.5 45.5q45 0 84 -17v209h174zM233 377q-29 0 -37 -17q-2 -6 -2 -21v-28v-137v-5q0 -14 2 -22t12 -15t29 -7q25 0 44 6v240q-23 6 -48 6z" />
    <glyph glyph-name="e" unicode="e" horiz-adv-x="457" 
d="M239 510q102 0 153 -54.5t51 -152.5v-118h-255v-7q0 -27 16.5 -41.5t42.5 -15.5q52 -2 79 30l97 -71q-55 -88 -184 -88q-59 0 -103.5 18t-68.5 49t-35.5 65.5t-11.5 73.5v105q0 97 56.5 152t162.5 55zM239 376q-27 0 -36 -14.5t-9 -53.5v-17h87v17q0 68 -42 68z" />
    <glyph glyph-name="f" unicode="f" horiz-adv-x="310" 
d="M224 713q38 0 72 -6v-137q-39 6 -61 1q-19 -6 -25 -19.5t-6 -42.5v-8h85v-130h-85v-371h-174v534q0 91 56.5 133.5t137.5 45.5z" />
    <glyph glyph-name="g" unicode="g" 
d="M207 509q69 0 111 -33l5 26h131v-485q0 -94 -54 -147.5t-134 -53.5q-96 0 -188 62l66 93q52 -30 85 -29q24 0 35.5 13.5t14.5 45.5l1 16q-39 -17 -84 -17q-71 0 -124 45.5t-53 138.5v143q0 89 56.5 135.5t131.5 46.5zM236 377q-15 0 -34 -11q-7 -8 -9 -32v-6v-137v-13.5
v-12.5t0.5 -10t1.5 -9.5t2.5 -7t4.5 -6t7 -4t10 -3t13 -0.5q23 0 48 5v241q-19 6 -44 6z" />
    <glyph glyph-name="h" unicode="h" horiz-adv-x="494" 
d="M35 700h174v-209q39 17 83 17q73 0 125.5 -45.5t52.5 -138.5v-324h-174v311v28q0 17 -4 21q-8 17 -36 17q-24 0 -47 -6v-371h-174v700z" />
    <glyph glyph-name="i" unicode="i" horiz-adv-x="245" 
d="M124 708q38 0 64 -25.5t26 -63.5q0 -37 -25.5 -64t-64.5 -27q-37 0 -63.5 26.5t-26.5 64.5q0 39 26.5 64t63.5 25zM211 501v-501h-174v501h174z" />
    <glyph glyph-name="j" unicode="j" horiz-adv-x="246" 
d="M126 709q38 0 64 -26t26 -64q0 -36 -25 -63.5t-65 -27.5q-37 0 -63.5 26.5t-26.5 64.5q0 39 26.5 64.5t63.5 25.5zM39 501h174v-503q0 -92 -56.5 -134t-137.5 -45q-25 0 -49 3v137q19 -1 38 2q23 6 27 26q4 15 4 44v470z" />
    <glyph glyph-name="k" unicode="k" horiz-adv-x="539" 
d="M209 700v-321l84 128h203l-167 -221l205 -286h-192l-110 168l-23 -28v-140h-174v700h174z" />
    <glyph glyph-name="l" unicode="l" horiz-adv-x="233" 
d="M209 700v-700h-174v700h174z" />
    <glyph glyph-name="m" unicode="m" horiz-adv-x="743" 
d="M533 508q76 0 130 -47t54 -137v-324h-172v311v28q0 18 -3 21q-8 17 -36 17q-27 0 -51 -7q4 -20 4 -46v-324h-172v311v28q0 18 -3 21q-8 17 -36 17q-24 0 -47 -6v-371h-172v501h129l5 -26q50 32 112 33q77 0 128 -45q68 45 130 45z" />
    <glyph glyph-name="n" unicode="n" horiz-adv-x="489" 
d="M279 508q76 0 131 -47t55 -137v-324h-174v311v28q0 17 -4 21q-9 17 -36 17q-25 0 -47 -6v-371h-174v501h131l4 -26q49 31 114 33z" />
    <glyph glyph-name="o" unicode="o" horiz-adv-x="474" 
d="M239 510q104 0 160 -55.5t56 -151.5v-105q0 -38 -11 -72.5t-35 -65.5t-67.5 -49.5t-102.5 -18.5t-103.5 18t-68.5 49t-35.5 65.5t-11.5 73.5v105q0 97 56.5 152t162.5 55zM239 371q-27 0 -36 -14.5t-9 -53.5v-105q0 -67 45 -67q42 0 42 67v105q0 68 -42 68z" />
    <glyph glyph-name="p" unicode="p" horiz-adv-x="489" 
d="M281 508q76 0 132.5 -46t56.5 -136v-149q0 -93 -52.5 -138.5t-125.5 -45.5q-44 0 -83 17v-209h-174v700h131l4 -26q44 33 111 33zM252 376q-24 0 -43 -6v-240q23 -6 47 -6q28 0 36 17q4 4 4 20v29v137v5q-3 29 -12 36q-10 8 -32 8z" />
    <glyph glyph-name="q" unicode="q" 
d="M207 508q69 0 111 -33l5 26h131v-700h-174v209q-39 -17 -84 -17q-71 0 -124 45.5t-53 138.5v150q0 89 56 135t132 46zM236 376q-16 0 -34 -10q-2 -1 -4 -6l-3 -5q0 -4 -1 -10.5t-1 -10.5v-6v-138v-12q0 -27 4 -39q6 -14 35 -14q23 0 48 5v241q-22 5 -44 5z" />
    <glyph glyph-name="r" unicode="r" horiz-adv-x="328" 
d="M278 508q19 0 44 -5v-138q-60 13 -87 5q-32 -11 -32 -70v-300h-174v512h131l7 -44q41 40 111 40z" />
    <glyph glyph-name="s" unicode="s" horiz-adv-x="433" 
d="M217 510q96 0 145 -41.5t49 -120.5h-166q0 23 -28 23q-12 0 -19.5 -7t-6.5 -16q0 -13 10 -21t48 -14q89 -15 129.5 -51.5t40.5 -107.5q0 -68 -45 -115t-147 -47t-157 42t-55 120h169q4 -23 26 -25q31 -1 33 23q1 17 -9 23.5t-45 12.5q-5 0 -7 1q-72 12 -113 41
q-48 34 -48 119q0 161 196 161z" />
    <glyph glyph-name="t" unicode="t" horiz-adv-x="315" 
d="M204 623v-122h85v-138h-85v-163q0 -29 3 -44q5 -20 28 -26q21 -6 61 0v-136q-40 -8 -72 -6q-81 3 -137.5 45t-56.5 134v456h174z" />
    <glyph glyph-name="u" unicode="u" 
d="M460 501v-501h-131l-5 26q-50 -33 -113 -33q-76 -2 -130.5 46.5t-55.5 137.5v324h174v-311v-13v-12.5t0.5 -10.5t1.5 -9t2.5 -7t4.5 -6.5t7 -4t10 -3t13 -0.5q26 0 48 6v371h174z" />
    <glyph glyph-name="v" unicode="v" horiz-adv-x="519" 
d="M513 501l-152 -501h-204l-153 501h177l78 -322l78 322h176z" />
    <glyph glyph-name="w" unicode="w" horiz-adv-x="759" 
d="M755 501l-149 -501h-189l-37 173l-37 -173h-189l-149 501h182l62 -285l52 285h158l52 -285l62 285h182z" />
    <glyph glyph-name="x" unicode="x" horiz-adv-x="504" 
d="M493 501l-128 -251l135 -250h-185l-60 130l-63 -130h-187l143 251l-136 250h187l58 -139l50 139h186z" />
    <glyph glyph-name="y" unicode="y" horiz-adv-x="489" 
d="M286 501h174v-484q0 -95 -54 -148q-53 -53 -134 -53q-96 0 -188 62l66 93q52 -30 85 -29q46 0 50 58l1 17q-39 -17 -84 -17q-71 0 -124 45.5t-53 138.5v317h174v-311v-13v-12.5t0.5 -10.5t1.5 -9t2.5 -7t4.5 -6.5t7 -4t10 -3t13 -0.5q26 0 48 6v371z" />
    <glyph glyph-name="z" unicode="z" horiz-adv-x="410" 
d="M389 501v-97l-157 -266h164v-138h-381v98l157 265h-148v138h365z" />
    <glyph glyph-name="braceleft" unicode="{" horiz-adv-x="419" 
d="M291 749q13 0 39 -2v-138q-15 1 -29 -2q-17 -6 -23 -19.5t-6 -42.5v-112q0 -81 -66 -118q66 -37 66 -117v-113q0 -29 6 -42.5t23 -18.5q12 -5 29 -3v-138q-31 -2 -39 -1q-75 2 -128 44.5t-53 133.5v137q0 18 -1.5 28.5t-8 20t-19.5 13.5q-12 3 -29 2v108q18 -2 29 3
q17 5 23 18.5t6 42.5v137q0 92 53 134.5t128 44.5z" />
    <glyph glyph-name="bar" unicode="|" horiz-adv-x="264" 
d="M214 700v-750h-164v750h164z" />
    <glyph glyph-name="braceright" unicode="}" horiz-adv-x="419" 
d="M91 749q77 -4 129 -45.5t52 -133.5v-137q0 -29 6 -42.5t23 -18.5q12 -5 29 -3v-108q-15 1 -29 -2q-17 -6 -23 -19.5t-6 -42.5v-137q0 -48 -15.5 -83.5t-42.5 -55t-57.5 -29t-65.5 -10.5q-8 -1 -39 1v138q17 -2 29 3q17 5 23 18.5t6 42.5v113q0 80 66 117q-66 37 -66 118
v112q0 29 -6 42.5t-23 19.5q-12 3 -29 2v138q26 2 39 2z" />
    <glyph glyph-name="asciitilde" unicode="~" horiz-adv-x="533" 
d="M162 382q48 0 125 -27q52 -20 84 -20q18 0 39.5 11t32.5 28l80 -99q-23 -27 -70 -47q-47 -18 -82 -18q-49 0 -125 27q-52 20 -84 20q-18 0 -39.5 -11t-32.5 -28l-80 99q25 30 70 47q47 18 82 18z" />
    <glyph glyph-name="exclamdown" unicode="&#xa1;" horiz-adv-x="306" 
d="M86 482q28 28 67 28t67 -28t28 -67t-28 -67t-67 -28t-67 28t-28 67t28 67zM212 278l44 -479h-206l44 479h118z" />
    <glyph glyph-name="cent" unicode="&#xa2;" horiz-adv-x="444" 
d="M176 560h129v-58q101 -26 125 -130l-145 -47q-7 46 -46 46q-27 0 -36 -14.5t-9 -53.5v-104q0 -39 9.5 -54t35.5 -15q39 0 46 46l145 -46q-24 -105 -125 -131v-53h-129v52q-76 15 -116 67.5t-40 133.5v104q0 81 40 133.5t116 67.5v56z" />
    <glyph glyph-name="sterling" unicode="&#xa3;" horiz-adv-x="648" 
d="M307 709q88 0 149.5 -45t83.5 -121l-131 -58q-11 31 -36 47.5t-55 16.5t-47 -18t-17 -50q0 -20 22 -90h152v-85h-132q3 -22 3 -44q0 -54 -39 -103h56q40 0 64 11.5t59 42.5l179 -79q-101 -134 -273 -134h-305v132q1 1 4.5 3t10.5 5.5t16 9.5q61 37 61 85q0 22 -16 71h-87
v85h62q-14 58 -14 92q0 91 61.5 158.5t168.5 67.5z" />
    <glyph glyph-name="yen" unicode="&#xa5;" horiz-adv-x="650" 
d="M641 700l-179 -336h59v-86h-105v-45h105v-86h-105v-147h-182v147h-104v86h104v45h-104v86h57l-177 336h209l105 -256l106 256h211z" />
    <glyph glyph-name="brokenbar" unicode="&#xa6;" horiz-adv-x="264" 
d="M214 700v-310h-164v310h164zM214 260v-310h-164v310h164z" />
    <glyph glyph-name="section" unicode="&#xa7;" horiz-adv-x="530" 
d="M262 713q104 0 159.5 -52t55.5 -146h-151q0 32 -15 45.5t-49 13.5q-54 0 -54 -39q-1 -22 16.5 -34.5t84.5 -29.5q112 -25 151.5 -73.5t39.5 -131.5q0 -68 -37 -115q37 -43 37 -128q0 -78 -53 -132.5t-162 -54.5q-110 0 -174 52t-64 147h151q0 -32 16.5 -44t63.5 -12
q69 0 69 44q0 19 -16 30q-8 8 -29 11q-15 6 -47 13q-97 29 -145 66q-54 43 -56 129q-3 82 38 132q-37 43 -38 111q-3 93 50 145.5t158 52.5zM267 317l-34 10q-26 -11 -25 -34q0 -22 13 -34t66 -25l29 -7q31 10 31 38q0 21 -17 30q-11 7 -48 18q-5 1 -15 4z" />
    <glyph glyph-name="dieresis" unicode="&#xa8;" horiz-adv-x="399" 
d="M91 709q32 0 54 -22.5t22 -56.5q0 -33 -22 -56t-55 -23q-34 0 -57 23t-23 56q0 34 23 56.5t58 22.5zM313 709q33 0 54.5 -22.5t21.5 -56.5q0 -33 -22 -56t-55 -23q-34 0 -57 23t-23 56q0 34 23 56.5t58 22.5z" />
    <glyph glyph-name="copyright" unicode="&#xa9;" horiz-adv-x="810" 
d="M155 601q104 104 251 104t251 -104t104 -251t-104 -251t-251 -104t-251 104t-104 251t104 251zM575 519q-70 70 -169 70t-169 -70t-70 -169t70 -169t169 -70t169 70t70 169t-70 169zM406 522q60 0 102 -37t55 -93h-94q-2 11 -19 25t-44 16q-32 0 -51.5 -23t-19.5 -59
q0 -37 19.5 -60.5t51.5 -23.5q28 2 45 17t18 26h95q-13 -54 -53 -93t-105 -39q-70 0 -116 49t-46 123q0 72 47 122q48 50 115 50z" />
    <glyph glyph-name="ordfeminine" unicode="&#xaa;" horiz-adv-x="337" 
d="M163 660q69 1 106 -38t37 -108v-165h-87l-2 16q-31 -21 -73 -21q-50 0 -82.5 25.5t-32.5 71.5q0 50 38 70.5t89 18.5q11 0 43 -5q-2 24 -10.5 33t-27.5 9q-34 0 -59 -23l-61 59q41 57 122 57zM169 464q-36 0 -36 -16t33 -16q16 0 30 6l6 2v16q-22 8 -33 8z" />
    <glyph glyph-name="guillemotleft" unicode="&#xab;" horiz-adv-x="746" 
d="M271 499l106 -107l-124 -124l124 -124l-106 -107l-231 231zM591 499l106 -107l-124 -124l124 -124l-106 -107l-231 231z" />
    <glyph glyph-name="logicalnot" unicode="&#xac;" horiz-adv-x="833" 
 />
    <glyph glyph-name="registered" unicode="&#xae;" horiz-adv-x="811" 
d="M156 602q104 104 251 104t251 -104t104 -251t-104 -251t-251 -104t-251 104t-104 251t104 251zM576 520q-70 70 -169 70t-169 -70t-70 -169t70 -169t169 -70t169 70t70 169t-70 169zM273 182v338h154q44 0 81 -29q37 -28 37 -83q0 -73 -75 -98l82 -128h-94l-78 121h-9
v-121h-98zM415 440h-44v-63h44q20 0 28.5 15.5t0 31.5t-28.5 16z" />
    <glyph glyph-name="overscore" unicode="&#xaf;" horiz-adv-x="321" 
d="M295 699v-86h-272v86h272z" />
    <glyph glyph-name="degree" unicode="&#xb0;" horiz-adv-x="452" 
d="M87 694q58 58 139 58t138 -58q58 -57 58 -138t-58 -139q-57 -57 -138 -57q-80 0 -139 57q-57 59 -57 139q0 81 57 138zM272 602q-19 19 -46 19t-46 -19t-19 -46t19 -46t46 -19t46 19t19 46t-19 46z" />
    <glyph glyph-name="plusminus" unicode="&#xb1;" horiz-adv-x="558" 
d="M356 677v-152h152v-154h-152v-152h-154v152h-152v154h152v152h154zM508 154v-154h-458v154h458z" />
    <glyph glyph-name="twosuperior" unicode="&#xb2;" horiz-adv-x="356" 
d="M183 706q63 0 102.5 -39t39.5 -99q0 -67 -47 -116l-66 -63h113v-110h-291v81l135 150q36 40 36 61q0 24 -22 24q-14 0 -20.5 -8t-14.5 -36l-119 34q21 63 57.5 92t96.5 29z" />
    <glyph glyph-name="threesuperior" unicode="&#xb3;" horiz-adv-x="366" 
d="M173 707q53 0 91.5 -34t38.5 -93q0 -37 -29 -69q52 -36 52 -100q0 -61 -45 -100q-44 -38 -108 -38q-91 0 -138 72l97 63q13 -20 39 -20q14 0 23 9.5t9 24.5q0 36 -30 36h-30v100h25q15 0 15 17q0 16 -14 16q-12 0 -17 -14l-110 43q15 38 52 62.5t79 24.5z" />
    <glyph glyph-name="acute" unicode="&#xb4;" horiz-adv-x="182" 
d="M248 700l-101 -129h-112l63 129h150z" />
    <glyph glyph-name="paragraph" unicode="&#xb6;" horiz-adv-x="680" 
d="M650 750v-914h-164v758h-90v-758h-164v500h-4q-74 0 -136 60t-62 145q0 102 68.5 155.5t187.5 53.5h364z" />
    <glyph glyph-name="middot" unicode="&#xb7;" horiz-adv-x="100" 
d="M148 321q0 -39 -28 -67t-67 -28q-29 -2 -53 15.5t-34.5 43t-6 55t26.5 48.5q19 22 48.5 26.5t54.5 -6t42.5 -34.5t16.5 -53z" />
    <glyph glyph-name="cedilla" unicode="&#xb8;" horiz-adv-x="316" 
d="M212 12l-37 -56h15q43 0 72 -23t29 -68q0 -53 -37.5 -80t-100.5 -27q-48 0 -131 36l26 62q56 -18 89 -22q17 -2 28.5 5.5t11.5 20.5q0 30 -33 28q-16 0 -42 -8l-33 28l64 104h79z" />
    <glyph glyph-name="onesuperior" unicode="&#xb9;" horiz-adv-x="272" 
d="M252 700v-421h-121v241q-10 -10 -33 -16q-26 -6 -48 -6l-30 122q41 -2 80 21q39 22 47 59h105z" />
    <glyph glyph-name="ordmasculine" unicode="&#xba;" horiz-adv-x="330" 
d="M166 660q65 0 99.5 -37.5t34.5 -92.5v-56q0 -56 -35 -93t-100 -37t-100 37.5t-35 92.5v56q0 52 34.5 91t101.5 39zM166 562q-23 0 -23 -26v-67q0 -27 22 -27q23 0 23 26v67q0 27 -22 27z" />
    <glyph glyph-name="guillemotright" unicode="&#xbb;" horiz-adv-x="746" 
d="M156 499l231 -231l-231 -231l-106 107l124 124l-124 124zM476 499l231 -231l-231 -231l-106 107l124 124l-124 124z" />
    <glyph glyph-name="onequarter" unicode="&#xbc;" horiz-adv-x="872" 
d="M262 700v-421h-121v241q-11 -9 -31 -15q-28 -8 -50 -7l-30 122q37 -2 73 17q47 23 54 63h105zM643 700l-243 -700h-152l243 700h152zM817 421v-227h26v-110h-26v-84h-124v84h-148v101l148 236h124zM700 264l-37 -70h37v70z" />
    <glyph glyph-name="onehalf" unicode="&#xbd;" horiz-adv-x="945" 
d="M261 700v-421h-121v241q-11 -11 -36 -17q-27 -5 -45 -5l-30 122q35 -2 69 15q50 23 58 65h105zM654 700l-243 -700h-152l243 700h152zM772 427q63 0 102.5 -39.5t39.5 -99.5q0 -66 -47 -115l-66 -64h113v-109h-291v81l135 149q36 41 36 62q0 9 -6 16.5t-16 7.5
q-14 0 -21 -8.5t-14 -35.5l-119 34q21 63 57.5 92t96.5 29z" />
    <glyph glyph-name="threequarters" unicode="&#xbe;" horiz-adv-x="877" 
d="M168 707q53 0 91.5 -34t38.5 -93q0 -37 -29 -69q52 -35 52 -100q0 -61 -45 -100q-44 -38 -108 -38q-91 0 -138 72l97 63q13 -20 39 -20q14 0 23 9.5t9 24.5q0 36 -30 36h-30v100h25q15 0 15 17q0 16 -14 16q-12 0 -17 -14l-110 43q15 38 52 62.5t79 24.5zM648 700
l-243 -700h-152l243 700h152zM822 421v-227h26v-110h-26v-84h-124v84h-148v101l148 236h124zM705 264l-37 -70h37v70z" />
    <glyph glyph-name="questiondown" unicode="&#xbf;" horiz-adv-x="554" 
d="M205 489q28 28 67 28t67 -28t28 -67t-28 -67t-67 -28t-67 28t-28 67t28 67zM187 284h170v-26q0 -46 -16 -74q-16 -27 -96 -121q-26 -31 -26 -54q0 -26 15.5 -42t41.5 -16q57 0 57 63h170q0 -38 -12 -74.5t-37 -69.5t-71 -53t-107 -20t-107 20.5t-71 53t-37 68t-12 71.5
q0 74 52 130q7 9 32 34q24 24 29 31q25 27 25 53v26z" />
    <glyph glyph-name="Agrave" unicode="&#xc0;" horiz-adv-x="651" 
d="M417 700l224 -700h-188l-36 138h-182l-36 -138h-189l225 700h182zM326 493l-50 -195h100zM338 904l63 -129h-112l-101 129h150z" />
    <glyph glyph-name="Aacute" unicode="&#xc1;" horiz-adv-x="651" 
d="M417 700l224 -700h-188l-36 138h-182l-36 -138h-189l225 700h182zM326 493l-50 -195h100zM488 905l-101 -129h-112l63 129h150z" />
    <glyph glyph-name="Acircumflex" unicode="&#xc2;" horiz-adv-x="651" 
d="M417 700l224 -700h-188l-36 138h-182l-36 -138h-189l225 700h182zM326 493l-50 -195h100zM405 923l112 -149h-128l-60 80l-60 -80h-128l112 149h152z" />
    <glyph glyph-name="Atilde" unicode="&#xc3;" horiz-adv-x="651" 
d="M274 915q24 0 51 -18q29 -18 44 -18q34 0 61 36l9 12l60 -78l-19 -19q-9 -9 -43 -30q-32 -18 -59 -18q-24 0 -55 18q-31 19 -49 19q-29 0 -54 -36l-8 -12l-59 78q16 16 24 23q54 43 97 43zM417 700l224 -700h-188l-36 138h-182l-36 -138h-189l225 700h182zM326 493
l-50 -195h100z" />
    <glyph glyph-name="Adieresis" unicode="&#xc4;" horiz-adv-x="651" 
d="M222 908q32 0 54 -22.5t22 -56.5q0 -33 -22.5 -56t-54.5 -23q-34 0 -57 23t-23 56q0 34 23 56.5t58 22.5zM444 908q32 0 54 -22.5t22 -56.5q0 -33 -22.5 -56t-54.5 -23q-34 0 -57 23t-23 56q0 34 23 56.5t58 22.5zM416 700l224 -700h-188l-36 138h-182l-36 -138h-189
l225 700h182zM325 493l-50 -195h100z" />
    <glyph glyph-name="Aring" unicode="&#xc5;" horiz-adv-x="651" 
d="M449 843q0 -49 -37 -86q-36 -36 -86 -36t-87 37q-36 38 -36 85q0 50 37 86q37 37 86 37q50 0 86 -36q37 -36 37 -87zM281 843q0 -17 13.5 -31t31.5 -14t31.5 14t13.5 31q1 28 -22 40t-46 0t-22 -40zM417 700l224 -700h-188l-36 138h-182l-36 -138h-189l225 700h182z
M326 493l-50 -195h100z" />
    <glyph glyph-name="AE" unicode="&#xc6;" horiz-adv-x="800" 
d="M771 700v-160h-276l7 -111h246v-159h-235l8 -110h255v-160h-416l-10 138h-115l-36 -138h-189l225 700h536zM326 493l-50 -195h63z" />
    <glyph glyph-name="Ccedilla" unicode="&#xc7;" horiz-adv-x="566" 
d="M302 713q91 0 153 -44t86 -122l-132 -58q-9 31 -36 48.5t-60 16.5q-39 -1 -65.5 -26.5t-26.5 -67.5v-217q0 -42 26.5 -67t65.5 -26q32 -2 59 15.5t37 48.5l132 -58q-18 -60 -60.5 -101.5t-104.5 -56.5q-28 -6 -64 -8l-17 -25q7 1 35 -1q81 -12 81 -90q0 -53 -37.5 -79.5
t-100.5 -26.5q-49 0 -130 35l26 62q56 -18 88 -22q17 -2 28.5 5.5t11.5 20.5q0 29 -33 29q-15 0 -42 -9l-32 28l48 79q-92 18 -145.5 82.5t-53.5 164.5v217q0 120 74 186q73 67 189 67z" />
    <glyph glyph-name="Egrave" unicode="&#xc8;" horiz-adv-x="549" 
d="M518 700v-160h-287v-111h264v-159h-264v-110h292v-160h-474v700h469zM327 904l63 -129h-112l-101 129h150z" />
    <glyph glyph-name="Eacute" unicode="&#xc9;" horiz-adv-x="549" 
d="M519 700v-160h-287v-111h264v-159h-264v-110h292v-160h-474v700h469zM435 905l-101 -129h-112l63 129h150z" />
    <glyph glyph-name="Ecircumflex" unicode="&#xca;" horiz-adv-x="549" 
d="M519 700v-160h-287v-111h264v-159h-264v-110h292v-160h-474v700h469zM333 923l112 -149h-128l-60 80l-60 -80h-128l112 149h152z" />
    <glyph glyph-name="Edieresis" unicode="&#xcb;" horiz-adv-x="549" 
d="M151 908q32 0 54 -22.5t22 -56.5q0 -33 -22.5 -56t-54.5 -23q-34 0 -57 23t-23 56q0 34 23 56.5t58 22.5zM373 908q32 0 54 -22.5t22 -56.5q0 -33 -22 -56t-55 -23q-34 0 -57 23t-23 56q0 34 23 56.5t58 22.5zM519 700v-160h-287v-111h264v-159h-264v-110h292v-160h-474
v700h469z" />
    <glyph glyph-name="Igrave" unicode="&#xcc;" horiz-adv-x="281" 
d="M231 700v-700h-182v700h182zM156 904l63 -129h-112l-101 129h150z" />
    <glyph glyph-name="Iacute" unicode="&#xcd;" horiz-adv-x="281" 
d="M232 700v-700h-182v700h182zM303 905l-101 -129h-112l63 129h150z" />
    <glyph glyph-name="Icircumflex" unicode="&#xce;" horiz-adv-x="281" 
d="M220 923l112 -149h-128l-60 80l-60 -80h-128l112 149h152zM232 700v-700h-182v700h182z" />
    <glyph glyph-name="Idieresis" unicode="&#xcf;" horiz-adv-x="281" 
d="M37 908q33 0 54.5 -22.5t21.5 -56.5q0 -33 -22 -56t-55 -23q-34 0 -57 23t-23 56q0 34 23 56.5t58 22.5zM260 908q32 0 54 -22.5t22 -56.5q0 -33 -22.5 -56t-54.5 -23q-34 0 -57 23t-23 56q0 34 23 56.5t58 22.5zM232 700v-700h-182v700h182z" />
    <glyph glyph-name="Eth" unicode="&#xd0;" horiz-adv-x="645" 
d="M87 429v271h251q125 0 197 -73t70 -179v-217q0 -63 -21.5 -110t-59 -72t-80 -37t-90.5 -12h-267v270h-77v159h77zM338 540h-69v-111h77v-159h-77v-110h85q42 0 56 14t14 57v217q0 92 -86 92z" />
    <glyph glyph-name="Ntilde" unicode="&#xd1;" horiz-adv-x="651" 
d="M267 915q23 0 52 -18q28 -18 44 -18t33.5 11t27.5 25l9 12l59 -78q-9 -11 -18 -19q-9 -9 -43 -30q-31 -18 -60 -18q-23 0 -54 18q-31 19 -50 19q-28 0 -53 -36l-8 -12l-59 78q0 2 16.5 17t46.5 32t57 17zM605 700v-700h-191l-188 337v-337h-182v700h181l198 -355v355h182
z" />
    <glyph glyph-name="Ograve" unicode="&#xd2;" horiz-adv-x="610" 
d="M307 713q123 0 193 -70t70 -184v-226q0 -65 -24.5 -114t-64.5 -76t-84.5 -40t-90.5 -13q-47 0 -91 13t-85 40t-65.5 76t-24.5 114v227q0 120 73 186q73 67 194 67zM307 554q-45 0 -65 -21.5t-20 -72.5v-227q0 -83 84 -83q41 0 61.5 19.5t20.5 63.5v226q0 51 -19.5 73
t-61.5 22zM319 904l63 -129h-112l-101 129h150z" />
    <glyph glyph-name="Oacute" unicode="&#xd3;" horiz-adv-x="610" 
d="M475 899l-102 -129h-112l64 129h150zM307 713q123 0 193 -70t70 -184v-226q0 -65 -24.5 -114t-64.5 -76t-84.5 -40t-90.5 -13q-47 0 -91 13t-85 40t-65.5 76t-24.5 114v227q0 120 73 186q73 67 194 67zM307 554q-45 0 -65 -21.5t-20 -72.5v-227q0 -83 84 -83
q41 0 61.5 19.5t20.5 63.5v226q0 51 -19.5 73t-61.5 22z" />
    <glyph glyph-name="Ocircumflex" unicode="&#xd4;" horiz-adv-x="610" 
d="M384 923l112 -149h-128l-60 80l-60 -80h-128l112 149h152zM307 713q123 0 193 -70t70 -184v-226q0 -65 -24.5 -114t-64.5 -76t-84.5 -40t-90.5 -13q-47 0 -91 13t-85 40t-65.5 76t-24.5 114v227q0 120 73 186q73 67 194 67zM307 554q-45 0 -65 -21.5t-20 -72.5v-227
q0 -83 84 -83q41 0 61.5 19.5t20.5 63.5v226q0 50 -19.5 72.5t-61.5 22.5z" />
    <glyph glyph-name="Otilde" unicode="&#xd5;" horiz-adv-x="610" 
d="M252 915q24 0 51 -18q29 -18 44 -18q34 0 61 36l9 12l60 -78q-19 -19 -25 -24q-54 -43 -96 -43q-24 0 -55 18q-31 19 -49 19q-27 0 -54 -36l-8 -12l-59 78q16 16 24 23q54 43 97 43zM306 713q123 0 193 -70t70 -184v-226q0 -65 -24.5 -114t-64.5 -76t-84.5 -40t-90.5 -13
q-37 0 -72.5 7.5t-71 26t-62.5 45.5t-43.5 69.5t-16.5 94.5v227q0 120 73 186q73 67 194 67zM306 554q-45 0 -65 -21.5t-20 -72.5v-227q0 -83 84 -83q41 0 61.5 19.5t20.5 63.5v226q0 51 -19.5 73t-61.5 22z" />
    <glyph glyph-name="Odieresis" unicode="&#xd6;" horiz-adv-x="610" 
d="M202 908q32 0 54 -22.5t22 -56.5q0 -33 -22.5 -56t-54.5 -23q-34 0 -57 23t-23 56q0 34 23 56.5t58 22.5zM424 908q32 0 54 -22.5t22 -56.5q0 -33 -22 -56t-55 -23q-34 0 -57 23t-23 56q0 34 23 56.5t58 22.5zM307 713q123 0 193 -70t70 -184v-226q0 -65 -24.5 -114
t-64.5 -76t-84.5 -40t-90.5 -13q-47 0 -91 13t-85 40t-65.5 76t-24.5 114v227q0 120 73 186q73 67 194 67zM307 554q-45 0 -65 -21.5t-20 -72.5v-227q0 -83 84 -83q41 0 61.5 19.5t20.5 63.5v226q0 51 -19.5 73t-61.5 22z" />
    <glyph glyph-name="multiply" unicode="&#xd7;" horiz-adv-x="538" 
d="M403 556l105 -104l-136 -135l136 -134l-104 -104l-135 135l-134 -135l-105 104l136 134l-136 135l104 104l134 -135z" />
    <glyph glyph-name="Oslash" unicode="&#xd8;" horiz-adv-x="610" 
d="M357 750h172l-35 -102q75 -69 75 -189v-226q0 -65 -24.5 -114t-64.5 -76t-84.5 -40t-90.5 -13q-13 0 -39 2l-15 -42h-172l36 104q-76 64 -76 179v227q0 120 73 186q73 67 194 67q12 0 38 -2zM221 460v-103l68 196q-36 -4 -52 -25t-16 -68zM387 233v110l-66 -193
q66 8 66 83z" />
    <glyph glyph-name="Ugrave" unicode="&#xd9;" horiz-adv-x="625" 
d="M398 700h182v-467q0 -65 -24.5 -114t-64.5 -76t-84.5 -40t-90.5 -13q-37 0 -72.5 7.5t-71 26t-62.5 45.5t-43.5 69.5t-16.5 94.5v467h182v-467q0 -83 84 -83q82 0 82 83v467zM319 904l63 -129h-112l-101 129h150z" />
    <glyph glyph-name="Uacute" unicode="&#xda;" horiz-adv-x="625" 
d="M398 700h182v-467q0 -65 -24.5 -114t-64.5 -76t-84.5 -40t-90.5 -13q-37 0 -72.5 7.5t-71 26t-62.5 45.5t-43.5 69.5t-16.5 94.5v467h182v-467q0 -83 84 -83q82 0 82 83v467zM472 899l-101 -129h-112l63 129h150z" />
    <glyph glyph-name="Ucircumflex" unicode="&#xdb;" horiz-adv-x="625" 
d="M398 700h182v-467q0 -65 -24.5 -114t-64.5 -76t-84.5 -40t-90.5 -13q-37 0 -72.5 7.5t-71 26t-62.5 45.5t-43.5 69.5t-16.5 94.5v467h182v-467q0 -83 84 -83q82 0 82 83v467zM392 923l112 -149h-128l-60 80l-60 -80h-128l112 149h152z" />
    <glyph glyph-name="Udieresis" unicode="&#xdc;" horiz-adv-x="625" 
d="M209 908q32 0 54 -22.5t22 -56.5q0 -33 -22 -56t-55 -23q-34 0 -57 23t-23 56q0 34 23 56.5t58 22.5zM431 908q33 0 54.5 -22.5t21.5 -56.5q0 -33 -22 -56t-55 -23q-34 0 -57 23t-23 56q0 34 23 56.5t58 22.5zM397 700h182v-467q0 -65 -24.5 -114t-64.5 -76t-84.5 -40
t-90.5 -13q-37 0 -72.5 7.5t-71 26t-62.5 45.5t-43.5 69.5t-16.5 94.5v467h182v-467q0 -83 84 -83q82 0 82 83v467z" />
    <glyph glyph-name="Yacute" unicode="&#xdd;" horiz-adv-x="650" 
d="M641 700l-225 -423v-277h-182v276l-224 424h209l105 -256l106 256h211zM483 899l-101 -129h-112l63 129h150z" />
    <glyph glyph-name="Thorn" unicode="&#xde;" horiz-adv-x="587" 
d="M232 700v-109h80q115 1 184.5 -70t66.5 -166q0 -114 -67 -180t-185 -66h-79v-109h-182v700h182zM309 432h-77v-163h76q81 0 81 84q0 35 -21.5 57t-58.5 22z" />
    <glyph glyph-name="germandbls" unicode="&#xdf;" horiz-adv-x="561" 
d="M282 710q110 0 167 -59q58 -58 58 -147q0 -78 -45 -106l-6 -3q1 0 8.5 -4t20 -15t23.5 -27.5t19.5 -45.5t8.5 -64q3 -90 -66.5 -165t-175.5 -74h-22v160h22q61 0 61 79q0 76 -61 76h-22v160h22q12 0 21.5 9.5t9.5 30.5q0 22 -9.5 28.5t-35.5 6.5q-21 0 -34.5 -13
t-13.5 -32v-505h-182v495q0 98 60.5 156.5t171.5 58.5z" />
    <glyph glyph-name="agrave" unicode="&#xe0;" horiz-adv-x="467" 
d="M223 510q106 1 162 -54t56 -153v-303h-131l-4 26q-44 -33 -111 -33q-73 0 -125 43q-51 44 -51 129q0 47 18 80t48 49t61.5 22.5t65.5 5.5q30 -2 55 -6q0 51 -47 56q-43 3 -97 -33l-86 79q71 90 186 92zM232 205q-54 0 -54 -40t49 -40q24 0 40 10v67q-21 3 -35 3zM272 700
l63 -129h-112l-101 129h150z" />
    <glyph glyph-name="aacute" unicode="&#xe1;" horiz-adv-x="467" 
d="M399 700l-101 -129h-112l63 129h150zM223 510q107 0 162.5 -55.5t55.5 -151.5v-303h-131l-4 26q-44 -33 -111 -33q-73 0 -125 43q-51 44 -51 129q0 47 18 80t48 49t61.5 22.5t65.5 5.5q30 -2 55 -6q0 51 -47 56q-43 3 -97 -33l-86 79q71 90 186 92zM232 205
q-54 0 -54 -40t49 -40q24 0 40 10v67q-21 3 -35 3z" />
    <glyph glyph-name="acircumflex" unicode="&#xe2;" horiz-adv-x="467" 
d="M223 510q106 1 162 -54t56 -153v-303h-131l-4 26q-44 -33 -111 -33q-73 0 -125 43q-51 44 -51 129q0 47 18 80t48 49t61.5 22.5t65.5 5.5q30 -2 55 -6q0 51 -47 56q-43 3 -97 -33l-86 79q71 90 186 92zM232 205q-54 0 -54 -40t49 -40q24 0 40 10v67q-21 3 -35 3zM330 724
l112 -149h-128l-60 80l-60 -80h-128l112 149h152z" />
    <glyph glyph-name="atilde" unicode="&#xe3;" horiz-adv-x="467" 
d="M199 716q24 0 51 -18q28 -18 45 -18q33 0 60 36l9 12l60 -78q-19 -19 -25 -24q-54 -43 -96 -43q-23 0 -55 18q-31 19 -49 19q-27 0 -54 -36l-8 -12l-59 78l4 4q3 3 9.5 9t15 13t19.5 14t22 13t24.5 9.5t26.5 3.5zM223 510q106 1 162 -54t56 -153v-303h-131l-4 26
q-44 -33 -111 -33q-73 0 -125 43q-51 44 -51 129q0 47 18 80t48 49t61.5 22.5t65.5 5.5q30 -2 55 -6q0 51 -47 56q-43 3 -97 -33l-86 79q71 90 186 92zM232 205q-54 0 -54 -40t49 -40q24 0 40 10v67q-21 3 -35 3z" />
    <glyph glyph-name="adieresis" unicode="&#xe4;" horiz-adv-x="467" 
d="M148 709q32 0 54 -22.5t22 -56.5q0 -33 -22.5 -56t-54.5 -23q-34 0 -57 23t-23 56q0 34 23 56.5t58 22.5zM370 709q32 0 54 -22.5t22 -56.5q0 -33 -22 -56t-55 -23q-34 0 -57 23t-23 56q0 34 23 56.5t58 22.5zM223 510q107 0 162.5 -55.5t55.5 -151.5v-303h-131l-4 26
q-44 -33 -111 -33q-73 0 -125 43q-51 44 -51 129q0 47 18 80t48 49t61.5 22.5t65.5 5.5q30 -2 55 -6q0 51 -47 56q-43 3 -97 -33l-86 79q71 90 186 92zM232 205q-54 0 -54 -40t49 -40q24 0 40 10v67q-21 3 -35 3z" />
    <glyph glyph-name="aring" unicode="&#xe5;" horiz-adv-x="467" 
d="M374 644q0 -49 -37 -86q-36 -36 -86 -36t-87 37q-36 37 -36 85q0 50 37 86q37 37 86 37q50 0 86 -36q37 -36 37 -87zM206 644q0 -17 13.5 -31t31.5 -14t31.5 14t13.5 31q1 28 -22 40t-46 0t-22 -40zM223 510q106 1 162 -54t56 -153v-303h-131l-4 26q-44 -33 -111 -33
q-73 0 -125 43q-51 44 -51 129q0 47 18 80t48 49t61.5 22.5t65.5 5.5q30 -2 55 -6q0 51 -47 56q-43 3 -97 -33l-86 79q71 90 186 92zM232 205q-54 0 -54 -40t49 -40q24 0 40 10v67q-21 3 -35 3z" />
    <glyph glyph-name="ae" unicode="&#xe6;" horiz-adv-x="769" 
d="M549 510q102 0 153 -54.5t51 -152.5v-118h-254v-7q0 -27 16 -41.5t42 -15.5q52 -2 79 30l97 -71q-55 -88 -184 -88q-59 0 -108 20v-12h-131l-4 26q-44 -33 -111 -33q-73 0 -125 43q-51 44 -51 129q0 47 18 80t48 49t61.5 22.5t65.5 5.5q30 -2 55 -6v3q-2 48 -47 53
q-43 3 -97 -33l-86 79q71 90 186 92q105 0 163 -56q58 56 163 56zM549 376q-27 0 -36 -14.5t-9 -53.5v-17h87v17q0 68 -42 68zM232 205q-54 0 -54 -40t49 -40q24 0 40 10v67q-21 3 -35 3z" />
    <glyph glyph-name="ccedilla" unicode="&#xe7;" horiz-adv-x="444" 
d="M239 510q159 0 191 -138l-145 -47q-7 46 -46 46q-27 0 -36 -14.5t-9 -53.5v-104q0 -39 9.5 -54t35.5 -15q39 0 46 46l145 -46q-20 -86 -91 -119q-33 -16 -84 -19l-16 -23q20 3 38 0q36 -5 57 -28.5t21 -62.5q0 -53 -37.5 -79.5t-100.5 -26.5q-49 0 -131 35l26 62
q56 -18 89 -22q17 -2 28.5 5.5t11.5 20.5q0 28 -33 28q-16 0 -42 -8l-33 28l47 76q-78 14 -119 67t-41 135v104q0 97 56.5 152t162.5 55z" />
    <glyph glyph-name="egrave" unicode="&#xe8;" horiz-adv-x="457" 
d="M239 510q102 0 153 -54.5t51 -152.5v-118h-255v-7q0 -27 16.5 -41.5t42.5 -15.5q52 -2 79 30l97 -71q-55 -88 -184 -88q-59 0 -103.5 18t-68.5 49t-35.5 65.5t-11.5 73.5v105q0 97 56.5 152t162.5 55zM239 376q-27 0 -36 -14.5t-9 -53.5v-17h87v17q0 68 -42 68zM271 700
l63 -129h-112l-101 129h150z" />
    <glyph glyph-name="eacute" unicode="&#xe9;" horiz-adv-x="457" 
d="M239 510q102 0 153 -54.5t51 -152.5v-118h-255v-7q0 -27 16.5 -41.5t42.5 -15.5q52 -2 79 30l97 -71q-55 -88 -184 -88q-59 0 -103.5 18t-68.5 49t-35.5 65.5t-11.5 73.5v105q0 97 56.5 152t162.5 55zM239 376q-27 0 -36 -14.5t-9 -53.5v-17h87v17q0 68 -42 68zM393 700
l-101 -129h-112l63 129h150z" />
    <glyph glyph-name="ecircumflex" unicode="&#xea;" horiz-adv-x="457" 
d="M314 724l112 -149h-128l-60 80l-60 -80h-128l112 149h152zM239 510q104 0 154 -55.5t50 -151.5v-118h-255v-7q0 -27 16.5 -41.5t42.5 -15.5q52 -2 79 30l97 -71q-55 -88 -184 -88q-59 0 -103.5 18t-68.5 49t-35.5 65.5t-11.5 73.5v105q0 97 56.5 152t162.5 55zM239 376
q-27 0 -36 -15t-9 -53v-17h87v17q0 68 -42 68z" />
    <glyph glyph-name="edieresis" unicode="&#xeb;" horiz-adv-x="457" 
d="M132 709q32 0 54 -22.5t22 -56.5q0 -33 -22 -56t-55 -23q-34 0 -57 23t-23 56q0 34 23 56.5t58 22.5zM354 709q32 0 54 -22.5t22 -56.5q0 -33 -22 -56t-55 -23q-34 0 -57 23t-23 56q0 34 23 56.5t58 22.5zM239 510q102 0 153 -54.5t51 -152.5v-118h-255v-7
q0 -27 16.5 -41.5t42.5 -15.5q52 -2 79 30l97 -71q-55 -88 -184 -88q-59 0 -103.5 18t-68.5 49t-35.5 65.5t-11.5 73.5v105q0 97 56.5 152t162.5 55zM239 376q-27 0 -36 -14.5t-9 -53.5v-17h87v17q0 68 -42 68z" />
    <glyph glyph-name="igrave" unicode="&#xec;" horiz-adv-x="241" 
d="M212 501v-501h-174v501h174zM140 700l63 -129h-112l-101 129h150z" />
    <glyph glyph-name="iacute" unicode="&#xed;" horiz-adv-x="248" 
d="M212 501v-501h-174v501h174zM272 700l-101 -129h-112l63 129h150z" />
    <glyph glyph-name="icircumflex" unicode="&#xee;" horiz-adv-x="241" 
d="M206 724l112 -149h-128l-60 80l-60 -80h-128l112 149h152zM212 501v-501h-174v501h174z" />
    <glyph glyph-name="idieresis" unicode="&#xef;" horiz-adv-x="241" 
d="M23 709q33 0 54.5 -22.5t21.5 -56.5q0 -33 -22 -56t-55 -23q-34 0 -57 23t-23 56q0 34 23 56.5t58 22.5zM245 709q33 0 54.5 -22.5t21.5 -56.5q0 -33 -22 -56t-55 -23t-56.5 23t-23.5 56q0 34 23.5 56.5t57.5 22.5zM212 501v-501h-174v501h174z" />
    <glyph glyph-name="eth" unicode="&#xf0;" horiz-adv-x="599" 
d="M477 749l60 -61l-58 -57q70 -73 70 -184v-216q0 -102 -73 -172q-71 -70 -177 -70q-103 -2 -177.5 70t-72.5 172q0 90 68 152q70 62 172 62q50 0 97 -22v36q0 20 -8 38l-43 -42l-60 61l35 34q-14 3 -27 3q-59 0 -110 -44l-105 119q17 16 40 31q22 16 71 34q48 19 99 19
q72 0 132 -30zM299 300q-37 0 -56.5 -20.5t-19.5 -55.5q0 -34 20 -54.5t56 -20.5q37 0 56.5 21t19.5 54q0 35 -19.5 55.5t-56.5 20.5z" />
    <glyph glyph-name="ntilde" unicode="&#xf1;" horiz-adv-x="489" 
d="M200 716q24 0 52 -18t44 -18t33.5 11t27.5 25l8 12l60 -78q-6 -8 -25 -24q-50 -43 -96 -43q-24 0 -55 18q-31 19 -49 19q-28 0 -53 -36l-8 -12l-59 78q6 7 17.5 18t43 29.5t59.5 18.5zM278 508q76 0 131 -47t55 -137v-324h-174v311v13.5v12t-0.5 10t-1.5 9.5t-3 7t-5 6.5
t-7 4t-10 3t-13 0.5q-24 0 -47 -6v-371h-174v501h131l4 -26q50 31 114 33z" />
    <glyph glyph-name="ograve" unicode="&#xf2;" horiz-adv-x="474" 
d="M274 700l63 -129h-112l-101 129h150zM239 510q104 0 160 -55.5t56 -151.5v-105q0 -38 -11 -72.5t-35 -65.5t-67.5 -49.5t-102.5 -18.5t-103.5 18t-68.5 49t-35.5 65.5t-11.5 73.5v105q0 97 56.5 152t162.5 55zM239 371q-27 0 -36 -14.5t-9 -53.5v-105q0 -67 45 -67
q42 0 42 67v105q0 68 -42 68z" />
    <glyph glyph-name="oacute" unicode="&#xf3;" horiz-adv-x="474" 
d="M388 700l-101 -129h-112l63 129h150zM238 510q104 0 160 -55.5t56 -151.5v-105q0 -38 -11 -72.5t-35 -65.5t-67.5 -49.5t-102.5 -18.5t-103.5 18t-68.5 49t-35.5 65.5t-11.5 73.5v105q0 97 56.5 152t162.5 55zM238 371q-27 0 -36 -15t-9 -53v-105q0 -67 45 -67
q42 0 42 67v105q0 68 -42 68z" />
    <glyph glyph-name="ocircumflex" unicode="&#xf4;" horiz-adv-x="474" 
d="M238 510q104 0 160 -55.5t56 -151.5v-105q0 -38 -11 -72.5t-35 -65.5t-67.5 -49.5t-102.5 -18.5t-103.5 18t-68.5 49t-35.5 65.5t-11.5 73.5v105q0 97 56.5 152t162.5 55zM238 371q-27 0 -36 -14.5t-9 -53.5v-105q0 -67 45 -67q42 0 42 67v105q0 68 -42 68zM316 724
l112 -149h-128l-60 80l-60 -80h-128l112 149h152z" />
    <glyph glyph-name="otilde" unicode="&#xf5;" horiz-adv-x="474" 
d="M184 716q24 0 52 -18q29 -18 44 -18q16 0 33.5 11t27.5 25l9 12l59 -78q0 -2 -16.5 -17.5t-46.5 -32.5t-57 -17q-23 0 -55 18q-31 19 -50 19q-28 0 -53 -36l-8 -12l-59 78q0 2 16.5 17t46.5 32t57 17zM238 510q104 0 160 -55.5t56 -151.5v-105q0 -38 -11 -72.5t-35 -65.5
t-67.5 -49.5t-102.5 -18.5t-103.5 18t-68.5 49t-35.5 65.5t-11.5 73.5v105q0 97 56.5 152t162.5 55zM238 371q-27 0 -36 -14.5t-9 -53.5v-105q0 -67 45 -67q42 0 42 67v105q0 68 -42 68z" />
    <glyph glyph-name="odieresis" unicode="&#xf6;" horiz-adv-x="474" 
d="M134 709q33 0 54.5 -22.5t21.5 -56.5q0 -33 -22 -56t-55 -23t-56.5 23t-23.5 56q0 34 23.5 56.5t57.5 22.5zM356 709q33 0 54.5 -22.5t21.5 -56.5q0 -33 -22 -56t-55 -23t-56.5 23t-23.5 56q0 34 23.5 56.5t57.5 22.5zM239 510q104 0 160 -55.5t56 -151.5v-105
q0 -38 -11 -72.5t-35 -65.5t-67.5 -49.5t-102.5 -18.5t-103.5 18t-68.5 49t-35.5 65.5t-11.5 73.5v105q0 97 56.5 152t162.5 55zM239 371q-27 0 -36 -14.5t-9 -53.5v-105q0 -67 45 -67q42 0 42 67v105q0 68 -42 68z" />
    <glyph glyph-name="divide" unicode="&#xf7;" horiz-adv-x="570" 
d="M211 592q31 31 74 31t74 -31q31 -30 31 -74t-31 -75q-31 -30 -74 -30t-74 30q-31 31 -31 75t31 74zM520 372v-154h-470v154h470zM211 146q31 31 74 31t74 -31q31 -30 31 -74t-31 -74q-31 -31 -74 -31t-74 31q-31 30 -31 74t31 74z" />
    <glyph glyph-name="oslash" unicode="&#xf8;" horiz-adv-x="474" 
d="M285 551h112l-26 -75q83 -53 83 -173v-105q0 -38 -11 -72.5t-35 -65.5t-67.5 -49.5t-102.5 -18.5q-13 0 -35 2l-15 -44h-112l27 77q-84 55 -84 171v105q0 97 56.5 152t162.5 55q10 0 32 -2zM193 303v-17l29 84q-17 -4 -23 -19t-6 -48zM280 198v17l-29 -83q29 9 29 66z
" />
    <glyph glyph-name="ugrave" unicode="&#xf9;" 
d="M460 501v-501h-131l-5 26q-50 -33 -113 -33q-76 -2 -130.5 46.5t-55.5 137.5v324h174v-311v-13v-12.5t0.5 -10.5t1.5 -9t2.5 -7t4.5 -6.5t7 -4t10 -3t13 -0.5q26 0 48 6v371h174zM282 700l63 -129h-112l-101 129h150z" />
    <glyph glyph-name="uacute" unicode="&#xfa;" 
d="M404 700l-101 -129h-112l63 129h150zM460 501v-501h-131l-5 26q-50 -33 -113 -33q-77 0 -131.5 47t-54.5 137v324h174v-311v-13v-12.5t0.5 -10.5t1.5 -9t2.5 -7t4.5 -6.5t7 -4t10 -3t13 -0.5q26 0 48 6v371h174z" />
    <glyph glyph-name="ucircumflex" unicode="&#xfb;" 
d="M460 501v-501h-131l-5 26q-50 -33 -113 -33q-76 -2 -130.5 46.5t-55.5 137.5v324h174v-311v-13v-12.5t0.5 -10.5t1.5 -9t2.5 -7t4.5 -6.5t7 -4t10 -3t13 -0.5q26 0 48 6v371h174zM325 724l112 -149h-128l-60 80l-60 -80h-128l112 149h152z" />
    <glyph glyph-name="udieresis" unicode="&#xfc;" 
d="M460 501v-501h-131l-5 26q-50 -33 -113 -33q-76 -2 -130.5 46.5t-55.5 137.5v324h174v-311v-13v-12.5t0.5 -10.5t1.5 -9t2.5 -7t4.5 -6.5t7 -4t10 -3t13 -0.5q26 0 48 6v371h174zM143 709q32 0 54 -22.5t22 -56.5q0 -33 -22 -56t-55 -23q-34 0 -57 23t-23 56
q0 34 23 56.5t58 22.5zM365 709q32 0 54 -22.5t22 -56.5q0 -33 -22 -56t-55 -23q-34 0 -57 23t-23 56q0 34 23 56.5t58 22.5z" />
    <glyph glyph-name="yacute" unicode="&#xfd;" horiz-adv-x="489" 
d="M286 501h174v-484q0 -95 -54 -148q-53 -53 -134 -53q-96 0 -188 62l66 93q52 -30 85 -29q46 0 50 58l1 17q-39 -17 -84 -17q-71 0 -124 45.5t-53 138.5v317h174v-311v-13v-12.5t0.5 -10.5t1.5 -9t2.5 -7t4.5 -6.5t7 -4t10 -3t13 -0.5q26 0 48 6v371zM409 700l-101 -129
h-112l63 129h150z" />
    <glyph glyph-name="thorn" unicode="&#xfe;" horiz-adv-x="529" 
d="M35 698h174v-209q37 17 83 17q73 0 125.5 -45.5t52.5 -138.5v-145q0 -93 -52.5 -138.5t-125.5 -45.5q-44 0 -83 17v-209h-174v897zM256 375q-24 0 -47 -6v-240q25 -5 47 -5q31 0 36 16q4 4 4 21v29v119v28q0 17 -4 21q-9 17 -36 17z" />
    <glyph glyph-name="ydieresis" unicode="&#xff;" horiz-adv-x="489" 
d="M286 501h174v-484q0 -95 -54 -148q-53 -53 -134 -53q-96 0 -188 62l66 93q52 -30 85 -29q46 0 50 58l1 17q-39 -17 -84 -17q-71 0 -124 45.5t-53 138.5v317h174v-311v-13v-12.5t0.5 -10.5t1.5 -9t2.5 -7t4.5 -6.5t7 -4t10 -3t13 -0.5q26 0 48 6v371zM148 709
q32 0 54 -22.5t22 -56.5q0 -33 -22 -56t-55 -23q-34 0 -57 23t-23 56q0 34 23 56.5t58 22.5zM370 709q32 0 54 -22.5t22 -56.5q0 -33 -22 -56t-55 -23q-34 0 -57 23t-23 56q0 34 23 56.5t58 22.5z" />
    <glyph glyph-name="Amacron" unicode="&#x100;" horiz-adv-x="651" 
d="M460 881v-86h-271v86h271zM417 700l224 -700h-188l-36 138h-182l-36 -138h-189l225 700h182zM326 493l-50 -195h100z" />
    <glyph glyph-name="amacron" unicode="&#x101;" horiz-adv-x="467" 
d="M385 669v-86h-271v86h271zM223 510q106 1 162 -54t56 -153v-303h-131l-4 26q-44 -33 -111 -33q-73 0 -125 43q-51 44 -51 129q0 47 18 80t48 49t61.5 22.5t65.5 5.5q30 -2 55 -6q0 51 -47 56q-43 3 -97 -33l-86 79q71 90 186 92zM232 205q-54 0 -54 -40t49 -40
q24 0 40 10v67q-21 3 -35 3z" />
    <glyph glyph-name="Abreve" unicode="&#x102;" horiz-adv-x="651" 
d="M428 898h71q0 -69 -49 -112q-50 -42 -125 -42q-76 0 -125 42q-49 43 -49 112h71q8 -68 103 -68t103 68zM416 700l224 -700h-188l-36 138h-182l-36 -138h-189l225 700h182zM325 493l-50 -195h100z" />
    <glyph glyph-name="abreve" unicode="&#x103;" horiz-adv-x="467" 
d="M354 699h71q0 -69 -48.5 -111.5t-125.5 -42.5q-75 0 -125 42q-49 43 -49 112h71q8 -68 103 -68t103 68zM223 510q107 0 162.5 -55.5t55.5 -151.5v-303h-131l-4 26q-44 -33 -111 -33q-73 0 -125 43q-51 44 -51 129q0 47 18 80t48 49t61.5 22.5t65.5 5.5q30 -2 55 -6
q0 51 -47 56q-43 3 -97 -33l-86 79q71 90 186 92zM232 205q-54 0 -54 -40t49 -40q24 0 40 10v67q-21 3 -35 3z" />
    <glyph glyph-name="Aogonek" unicode="&#x104;" horiz-adv-x="651" 
d="M417 700l224 -700h-92q-46 -50 -50 -89q-5 -30 22 -32q18 0 30 12q5 4 13.5 15.5t13.5 16.5l62 -23q-58 -103 -154 -103q-14 0 -29.5 3.5t-32.5 12.5t-28 28t-11 46q0 53 68 113l-36 138h-182l-36 -138h-189l225 700h182zM326 493l-50 -195h100z" />
    <glyph glyph-name="aogonek" unicode="&#x105;" horiz-adv-x="467" 
d="M223 510q106 1 162 -54t56 -153v-303h-34q-45 -50 -50 -90q-5 -31 22 -31t56 44l63 -24q-59 -102 -154 -102q-36 0 -68.5 19.5t-32.5 69.5q0 53 67 114l-4 26q-44 -33 -111 -33q-73 0 -125 43q-51 44 -51 129q0 47 18 80t48 49t61.5 22.5t65.5 5.5q30 -2 55 -6
q0 51 -47 56q-43 3 -97 -33l-86 79q71 90 186 92zM232 205q-54 0 -54 -40t49 -40q24 0 40 10v67q-21 3 -35 3z" />
    <glyph glyph-name="Cacute" unicode="&#x106;" horiz-adv-x="566" 
d="M455 905l-101 -129h-112l63 129h150zM303 713q91 0 153 -44t86 -122l-132 -58q-9 31 -36 48.5t-60 16.5q-37 -2 -64.5 -27t-27.5 -67v-217q0 -42 26.5 -67t65.5 -26q34 -1 60.5 16t35.5 48l132 -58q-24 -78 -86 -122t-153 -44q-115 0 -189 67t-74 186v217q0 120 74 186
q73 67 189 67z" />
    <glyph glyph-name="cacute" unicode="&#x107;" horiz-adv-x="444" 
d="M239 510q159 0 191 -138l-145 -47q-7 46 -46 46q-27 0 -36 -14.5t-9 -53.5v-104q0 -39 9.5 -54t35.5 -15q39 0 46 46l145 -46q-32 -138 -191 -138q-106 0 -162.5 54.5t-56.5 152.5v104q0 97 56.5 152t162.5 55zM380 700l-101 -129h-112l63 129h150z" />
    <glyph glyph-name="Cdotaccent" unicode="&#x10a;" horiz-adv-x="566" 
d="M302 713q91 0 153 -44t86 -122l-132 -58q-22 65 -96 65q-37 -2 -64.5 -27t-27.5 -67v-217q0 -42 26.5 -67t65.5 -26q31 -2 59 15.5t37 48.5l132 -58q-24 -78 -86 -122t-153 -44q-115 0 -189 67t-74 186v217q0 120 74 186q73 67 189 67zM279 908q32 0 54 -22.5t22 -56.5
q0 -33 -22 -56t-55 -23q-34 0 -57 23t-23 56q0 34 23 56.5t58 22.5z" />
    <glyph glyph-name="cdotaccent" unicode="&#x10b;" horiz-adv-x="444" 
d="M224 709q33 0 54.5 -22.5t21.5 -56.5q0 -33 -22 -56t-54 -23q-34 0 -57 23t-23 56q0 34 23 56.5t57 22.5zM239 510q159 0 191 -138l-145 -47q-7 46 -46 46q-27 0 -36 -14.5t-9 -53.5v-104q0 -39 9.5 -54t35.5 -15q39 0 46 46l145 -46q-32 -138 -191 -138
q-106 0 -162.5 54.5t-56.5 152.5v104q0 97 56.5 152t162.5 55z" />
    <glyph glyph-name="Ccaron" unicode="&#x10c;" horiz-adv-x="566" 
d="M302 713q91 0 153 -44t86 -122l-132 -58q-22 65 -96 65q-37 -2 -64.5 -27t-27.5 -67v-217q0 -42 26.5 -67t65.5 -26q31 -2 59 15.5t37 48.5l132 -58q-24 -78 -86 -122t-153 -44q-115 0 -189 67t-74 186v217q0 120 74 186q73 67 189 67zM465 923l-112 -149h-152l-112 149
h128l60 -80l60 80h128z" />
    <glyph glyph-name="ccaron" unicode="&#x10d;" horiz-adv-x="444" 
d="M239 510q159 0 191 -138l-145 -47q-7 46 -46 46q-27 0 -36 -14.5t-9 -53.5v-104q0 -39 9.5 -54t35.5 -15q39 0 46 46l145 -46q-32 -138 -191 -138q-106 0 -162.5 54.5t-56.5 152.5v104q0 97 56.5 152t162.5 55zM411 724l-112 -149h-152l-112 149h128l60 -80l60 80h128z
" />
    <glyph glyph-name="Dcaron" unicode="&#x10e;" horiz-adv-x="608" 
d="M50 0v700h251q125 0 196 -72q71 -73 71 -180v-217q0 -121 -73 -176t-178 -55h-267zM301 540h-69v-380h85q41 0 55 14t14 57v217q0 92 -85 92zM493 923l-112 -149h-152l-112 149h128l60 -80l60 80h128z" />
    <glyph glyph-name="dcaron" unicode="&#x10f;" horiz-adv-x="693" 
d="M692 738q0 -23 -11 -45l-73 -155h-114l41 129q-33 28 -33 71q0 39 28 67t67 28t67 -28t28 -67zM454 700v-700h-131l-5 26q-42 -33 -111 -33q-76 0 -132 46t-56 136v149q0 93 53 138.5t124 45.5q45 0 84 -17v209h174zM232 377q-28 0 -37 -17q-2 -6 -2 -21v-28v-137v-5
q0 -14 2 -22t12 -15t29 -7q24 0 44 6v240q-22 6 -48 6z" />
    <glyph glyph-name="Dcroat" unicode="&#x110;" horiz-adv-x="640" 
d="M82 393v307h251q125 0 197.5 -73t69.5 -179v-217q0 -121 -73 -176t-178 -55h-267v307h-67v86h67zM333 540h-69v-147h87v-86h-87v-147h85q41 0 55.5 14t14.5 57v217q0 92 -86 92z" />
    <glyph glyph-name="dslash" unicode="&#x111;" horiz-adv-x="546" 
d="M455 700v-53h81v-86h-81v-561h-131l-5 26q-42 -33 -111 -33q-76 0 -132 46t-56 136v149q0 93 52.5 138.5t124.5 45.5q45 0 84 -17v70h-87v86h87v53h174zM233 377q-7 0 -13 -0.5t-10 -3t-7 -4t-4.5 -6.5t-2.5 -7t-1.5 -9t-0.5 -10.5v-12.5v-13v-137v-5q0 -14 2 -22t12 -15
t29 -7q25 0 44 6v240q-23 6 -48 6z" />
    <glyph glyph-name="Emacron" unicode="&#x112;" horiz-adv-x="549" 
d="M518 700v-160h-287v-111h264v-159h-264v-110h292v-160h-474v700h469zM422 881v-86h-272v86h272z" />
    <glyph glyph-name="emacron" unicode="&#x113;" horiz-adv-x="457" 
d="M239 510q102 0 153 -54.5t51 -152.5v-118h-255v-7q0 -27 16.5 -41.5t42.5 -15.5q52 -2 79 30l97 -71q-55 -88 -184 -88q-59 0 -103.5 18t-68.5 49t-35.5 65.5t-11.5 73.5v105q0 97 56.5 152t162.5 55zM239 376q-27 0 -36 -14.5t-9 -53.5v-17h87v17q0 68 -42 68zM370 699
v-86h-272v86h272z" />
    <glyph glyph-name="Edotaccent" unicode="&#x116;" horiz-adv-x="549" 
d="M257 908q32 0 54 -22.5t22 -56.5q0 -33 -22.5 -56t-54.5 -23q-34 0 -57 23t-23 56q0 34 23 56.5t58 22.5zM519 700v-160h-287v-111h264v-159h-264v-110h292v-160h-474v700h469z" />
    <glyph glyph-name="edotaccent" unicode="&#x117;" horiz-adv-x="457" 
d="M239 510q102 0 153 -54.5t51 -152.5v-118h-255v-7q0 -27 16.5 -41.5t42.5 -15.5q52 -2 79 30l97 -71q-55 -88 -184 -88q-59 0 -103.5 18t-68.5 49t-35.5 65.5t-11.5 73.5v105q0 97 56.5 152t162.5 55zM239 376q-27 0 -36 -14.5t-9 -53.5v-17h87v17q0 68 -42 68zM238 709
q32 0 54 -22.5t22 -56.5q0 -33 -22 -56t-55 -23q-34 0 -57 23t-23 56q0 34 23 56.5t58 22.5z" />
    <glyph glyph-name="Eogonek" unicode="&#x118;" horiz-adv-x="549" 
d="M519 700v-160h-287v-111h264v-159h-264v-110h292v-160h-84q-46 -49 -51 -91q-3 -30 22 -31q14 0 27 8q15 14 30 36l63 -24q-59 -102 -155 -102q-20 0 -40.5 5.5t-40.5 27t-20 56.5q0 54 69 115h-294v700h469z" />
    <glyph glyph-name="eogonek" unicode="&#x119;" horiz-adv-x="457" 
d="M239 510q102 0 153 -54.5t51 -152.5v-118h-255v-7q0 -27 16.5 -41.5t42.5 -15.5q52 -2 79 30l97 -71q-25 -40 -69 -63q-61 -62 -65 -106q-5 -30 22 -32q18 0 30 12q4 4 12 15t14 17l63 -24q-58 -102 -154 -102q-36 0 -68.5 20t-32.5 70t58 105q-32 0 -66 8
q-75 19 -111 74t-36 124v105q0 97 56.5 152t162.5 55zM239 376q-27 0 -36 -14.5t-9 -53.5v-17h87v17q0 68 -42 68z" />
    <glyph glyph-name="Ecaron" unicode="&#x11a;" horiz-adv-x="549" 
d="M519 700v-160h-287v-111h264v-159h-264v-110h292v-160h-474v700h469zM443 923l-112 -149h-152l-112 149h128l60 -80l60 80h128z" />
    <glyph glyph-name="ecaron" unicode="&#x11b;" horiz-adv-x="457" 
d="M239 510q102 0 153 -54.5t51 -152.5v-118h-255v-7q0 -27 16.5 -41.5t42.5 -15.5q52 -2 79 30l97 -71q-55 -88 -184 -88q-59 0 -103.5 18t-68.5 49t-35.5 65.5t-11.5 73.5v105q0 97 56.5 152t162.5 55zM239 376q-27 0 -36 -14.5t-9 -53.5v-17h87v17q0 68 -42 68zM424 724
l-112 -149h-152l-112 149h128l60 -80l60 80h128z" />
    <glyph glyph-name="Gbreve" unicode="&#x11e;" horiz-adv-x="609" 
d="M307 713q95 0 158 -43.5t87 -121.5l-144 -60q-16 37 -37.5 51.5t-63.5 14.5q-46 -1 -65.5 -22t-19.5 -72v-227q0 -83 84 -83q40 0 58 19t18 64v22h-92v151h274v-406h-131l-6 40q-58 -50 -143 -50q-97 0 -170.5 63t-73.5 180v227q0 120 73 186q73 67 194 67zM408 898h71
q0 -69 -49 -112q-50 -42 -125 -42t-125 42q-49 43 -49 112h71q8 -68 103 -68t103 68z" />
    <glyph glyph-name="gbreve" unicode="&#x11f;" 
d="M207 509q69 0 111 -33l5 26h131v-485q0 -94 -54 -147.5t-134 -53.5q-96 0 -188 62l66 93q52 -30 85 -29q24 0 35.5 13.5t14.5 45.5l1 16q-39 -17 -84 -17q-71 0 -124 45.5t-53 138.5v143q0 89 56.5 135.5t131.5 46.5zM236 377q-15 0 -34 -11q-7 -8 -9 -32v-6v-137v-13.5
v-12.5t0.5 -10t1.5 -9.5t2.5 -7t4.5 -6t7 -4t10 -3t13 -0.5q23 0 48 5v241q-19 6 -44 6zM344 699h71q0 -69 -49 -112q-50 -42 -125 -42t-125 42q-49 43 -49 112h71q8 -68 103 -68t103 68z" />
    <glyph glyph-name="Gdotaccent" unicode="&#x120;" horiz-adv-x="609" 
d="M296 914q33 0 54.5 -22.5t21.5 -56.5q0 -33 -22 -56t-55 -23t-56.5 23t-23.5 56q0 34 23.5 56.5t57.5 22.5zM307 713q95 0 158 -43.5t87 -121.5l-144 -60q-16 37 -37.5 51.5t-63.5 14.5q-46 -1 -65.5 -22t-19.5 -72v-227q0 -83 84 -83q40 0 58 19t18 64v22h-92v151h274
v-406h-131l-6 40q-58 -50 -143 -50q-97 0 -170.5 63t-73.5 180v227q0 120 73 186q73 67 194 67z" />
    <glyph glyph-name="gdotaccent" unicode="&#x121;" 
d="M243 709q33 0 54.5 -22.5t21.5 -56.5q0 -33 -22 -56t-54 -23q-34 0 -57 23t-23 56q0 34 23 56.5t57 22.5zM207 509q69 0 111 -33l5 26h131v-485q0 -94 -54 -147.5t-134 -53.5q-96 0 -188 62l66 93q52 -30 85 -29q24 0 35.5 13.5t14.5 45.5l1 16q-39 -17 -84 -17
q-71 0 -124 45.5t-53 138.5v143q0 89 56.5 135.5t131.5 46.5zM236 377q-15 0 -34 -11q-7 -8 -9 -32v-6v-137v-13.5v-12.5t0.5 -10t1.5 -9.5t2.5 -7t4.5 -6t7 -4t10 -3t13 -0.5q23 0 48 5v241q-19 6 -44 6z" />
    <glyph glyph-name="Gcommaaccent" unicode="&#x122;" horiz-adv-x="609" 
d="M307 713q95 0 158 -43.5t87 -121.5l-144 -60q-16 37 -37.5 51.5t-63.5 14.5q-46 -1 -65.5 -22t-19.5 -72v-227q0 -83 84 -83q40 0 58 19t18 64v22h-92v151h274v-406h-131l-6 40q-58 -50 -143 -50q-97 0 -170.5 63t-73.5 180v227q0 120 73 186q73 67 194 67zM354 -116
q0 -15 -7 -28l-46 -96h-70l25 80q-20 18 -20 44q0 24 17.5 41.5t41.5 17.5t41.5 -17.5t17.5 -41.5z" />
    <glyph glyph-name="gcommaaccent" unicode="&#x123;" 
d="M246 741h71l-26 -80q20 -18 20 -44q0 -24 -17 -41.5t-42 -17.5q-24 0 -41 17.5t-17 41.5q0 15 7 28zM207 509q69 0 111 -33l5 26h131v-485q0 -94 -54 -147.5t-134 -53.5q-96 0 -188 62l66 93q52 -30 85 -29q24 0 35.5 13.5t14.5 45.5l1 16q-39 -17 -84 -17
q-71 0 -124 45.5t-53 138.5v143q0 89 56.5 135.5t131.5 46.5zM236 377q-15 0 -34 -11q-7 -8 -9 -32v-6v-137v-13.5v-12.5t0.5 -10t1.5 -9.5t2.5 -7t4.5 -6t7 -4t10 -3t13 -0.5q23 0 48 5v241q-19 6 -44 6z" />
    <glyph glyph-name="Hbar" unicode="&#x126;" horiz-adv-x="712" 
d="M620 700v-93h82v-85h-82v-522h-182v270h-166v-270h-182v522h-81v85h81v93h182v-93h166v93h182zM438 522h-166v-93h166v93z" />
    <glyph glyph-name="hbar" unicode="&#x127;" horiz-adv-x="551" 
d="M265 701v-54h87v-86h-87v-69q40 17 84 16q72 0 124.5 -45t52.5 -139v-323h-174v310v28q0 20 -3 21q-8 17 -36 17q-23 0 -48 -5v-371h-174v560h-81v86h81v54h174z" />
    <glyph glyph-name="Imacron" unicode="&#x12a;" horiz-adv-x="281" 
d="M275 898v-86h-272v86h272zM232 700v-700h-182v700h182z" />
    <glyph glyph-name="imacron" unicode="&#x12b;" horiz-adv-x="241" 
d="M256 669v-86h-271v86h271zM212 501v-501h-174v501h174z" />
    <glyph glyph-name="Iogonek" unicode="&#x12e;" horiz-adv-x="281" 
d="M50 700h182v-700q-46 -50 -50 -89q-5 -30 22 -32q18 0 30 12q4 4 12 15t14 17l63 -24q-59 -102 -154 -102q-36 0 -68.5 20t-32.5 70q0 52 67 113h-85v700z" />
    <glyph glyph-name="iogonek" unicode="&#x12f;" horiz-adv-x="241" 
d="M129 709q33 0 54.5 -22.5t21.5 -56.5q0 -33 -22 -56t-55 -23t-56.5 23t-23.5 56q0 34 23.5 56.5t57.5 22.5zM38 501h174v-501q-45 -48 -50 -90q-5 -31 22 -31q13 0 26 8q15 13 30 36l63 -24q-59 -102 -154 -102q-15 0 -30 3.5t-32.5 12t-28 27.5t-10.5 46q0 52 68 114
h-78v501z" />
    <glyph glyph-name="Idot" unicode="&#x130;" horiz-adv-x="281" 
d="M145 914q33 0 54.5 -22t21.5 -57q0 -33 -22 -56t-55 -23q-34 0 -57 23t-23 56q0 34 23 56.5t58 22.5zM232 700v-700h-182v700h182z" />
    <glyph glyph-name="dotlessi" unicode="&#x131;" horiz-adv-x="241" 
d="M212 501v-501h-174v501h174z" />
    <glyph glyph-name="IJ" unicode="&#x132;" horiz-adv-x="675" 
d="M444 699h182v-471q0 -133 -96 -195.5t-239 -33.5v159q39 -10 73 -11t57 19.5t23 61.5v471zM232 700v-700h-182v700h182z" />
    <glyph glyph-name="ij" unicode="&#x133;" horiz-adv-x="491" 
d="M370 709q38 0 64 -26t26 -64q0 -36 -25 -63.5t-65 -27.5q-37 0 -63.5 26.5t-26.5 64.5q0 39 26.5 64.5t63.5 25.5zM124 708q38 0 64 -25.5t26 -63.5q0 -37 -25.5 -64t-64.5 -27q-37 0 -63.5 26.5t-26.5 64.5q0 40 27 64.5t63 24.5zM283 501h174v-503q0 -92 -56.5 -134
t-137.5 -45q-25 0 -49 3v137q19 -1 38 2q23 6 27 26q4 15 4 44v470zM211 501v-501h-174v501h174z" />
    <glyph glyph-name="Kcommaaccent" unicode="&#x136;" horiz-adv-x="634" 
d="M613 700l-237 -301l247 -399h-217l-142 257l-33 -43v-214h-182v700h182v-217l155 217h227zM304 -57q24 0 41.5 -17.5t17.5 -41.5q0 -15 -7 -28l-46 -96h-70l25 80q-20 18 -20 44q0 24 17.5 41.5t41.5 17.5z" />
    <glyph glyph-name="kcommaaccent" unicode="&#x137;" horiz-adv-x="539" 
d="M209 700v-321l84 128h203l-167 -221l205 -286h-192l-110 168l-23 -28v-140h-174v700h174zM313 -116q0 -15 -7 -28l-46 -96h-70l25 80q-20 18 -20 44q0 24 17.5 41.5t41.5 17.5t41.5 -17.5t17.5 -41.5z" />
    <glyph glyph-name="Lacute" unicode="&#x139;" horiz-adv-x="486" 
d="M294 905l-102 -129h-112l64 129h150zM232 700v-540h240v-160h-422v700h182z" />
    <glyph glyph-name="lacute" unicode="&#x13a;" horiz-adv-x="233" 
d="M209 700v-700h-174v700h174zM283 900l-101 -129h-112l63 129h150z" />
    <glyph glyph-name="Lcommaaccent" unicode="&#x13b;" horiz-adv-x="486" 
d="M232 700v-540h240v-160h-422v700h182zM304 -116q0 -15 -7 -28l-46 -96h-70l25 80q-20 18 -20 44q0 24 17.5 41.5t41.5 17.5t41.5 -17.5t17.5 -41.5z" />
    <glyph glyph-name="lcommaaccent" unicode="&#x13c;" horiz-adv-x="233" 
d="M209 700v-700h-174v700h174zM126 -57q24 0 41.5 -17.5t17.5 -41.5q0 -15 -7 -28l-46 -96h-70l25 80q-20 18 -20 44q0 24 17.5 41.5t41.5 17.5z" />
    <glyph glyph-name="Lcaron" unicode="&#x13d;" horiz-adv-x="486" 
d="M497 738q0 -24 -12 -45l-73 -155h-114l41 129q-32 29 -32 71q0 39 28 67t67 28t67 -28t28 -67zM232 700v-540h240v-160h-422v700h182z" />
    <glyph glyph-name="lcaron" unicode="&#x13e;" horiz-adv-x="447" 
d="M447 738q0 -23 -11 -45l-73 -155h-114l41 129q-33 28 -33 71q0 39 28 67t67 28t67 -28t28 -67zM209 700v-700h-174v700h174z" />
    <glyph glyph-name="Ldot" unicode="&#x13f;" horiz-adv-x="486" 
d="M232 700v-540h240v-160h-422v700h182zM408 534q39 0 67 -28t28 -67t-28 -67t-67 -28q-38 0 -66.5 28.5t-28.5 66.5q0 39 28 67t67 28z" />
    <glyph glyph-name="ldot" unicode="&#x140;" horiz-adv-x="446" 
d="M209 700v-700h-174v700h174zM436 363q0 -38 -28.5 -66.5t-67.5 -28.5q-38 0 -66 28.5t-28 66.5q0 39 28 67t67 28t67 -28t28 -67z" />
    <glyph glyph-name="Lslash" unicode="&#x141;" horiz-adv-x="573" 
d="M319 700v-219l104 47l66 -141l-170 -77v-150h240v-160h-422v229l-68 -30l-59 143l127 57v301h182z" />
    <glyph glyph-name="lslash" unicode="&#x142;" horiz-adv-x="499" 
d="M321 700v-218l102 46l66 -141l-168 -76v-311h-182v230l-70 -31l-59 143l129 58v300h182z" />
    <glyph glyph-name="Nacute" unicode="&#x143;" horiz-adv-x="651" 
d="M479 899l-102 -129h-112l64 129h150zM606 700v-700h-191l-188 337v-337h-182v700h181l198 -355v355h182z" />
    <glyph glyph-name="nacute" unicode="&#x144;" horiz-adv-x="489" 
d="M411 700l-101 -129h-112l63 129h150zM279 508q76 0 131 -47t55 -137v-324h-174v311v13.5v12t-0.5 10t-1.5 9.5t-3 7t-5 6.5t-7 4t-10 3t-13 0.5q-25 0 -47 -6v-371h-174v501h131l4 -26q49 31 114 33z" />
    <glyph glyph-name="Ncommaaccent" unicode="&#x145;" horiz-adv-x="651" 
d="M606 700v-700h-191l-188 337v-337h-182v700h181l198 -355v355h182zM325 -57q24 0 41.5 -17.5t17.5 -41.5q0 -15 -7 -28l-46 -96h-70l25 80q-20 18 -20 44q0 24 17.5 41.5t41.5 17.5z" />
    <glyph glyph-name="ncommaaccent" unicode="&#x146;" horiz-adv-x="489" 
d="M279 508q76 0 131 -47t55 -137v-324h-174v311v28q0 17 -4 21q-9 17 -36 17q-25 0 -47 -6v-371h-174v501h131l4 -26q49 31 114 33zM304 -116q0 -15 -7 -28l-46 -96h-70l25 80q-20 18 -20 44q0 24 17.5 41.5t41.5 17.5t41.5 -17.5t17.5 -41.5z" />
    <glyph glyph-name="Ncaron" unicode="&#x147;" horiz-adv-x="651" 
d="M606 700v-700h-191l-188 337v-337h-182v700h181l198 -355v355h182zM510 923l-112 -149h-152l-112 149h128l60 -80l60 80h128z" />
    <glyph glyph-name="ncaron" unicode="&#x148;" horiz-adv-x="489" 
d="M279 508q76 0 131 -47t55 -137v-324h-174v311v28q0 17 -4 21q-9 17 -36 17q-25 0 -47 -6v-371h-174v501h131l4 -26q49 31 114 33zM442 724l-112 -149h-152l-112 149h128l60 -80l60 80h128z" />
    <glyph glyph-name="Eng" unicode="&#x14a;" horiz-adv-x="651" 
d="M424 700h182v-730q0 -92 -56.5 -134t-137.5 -45q-25 0 -49 3v137q20 -1 38 2q23 6 29 31l1 7l-204 366v-337h-182v700h181l198 -355v355z" />
    <glyph glyph-name="eng" unicode="&#x14b;" horiz-adv-x="494" 
d="M279 508q74 2 129.5 -46.5t56.5 -137.5v-354q0 -92 -56.5 -134.5t-138.5 -44.5q-24 0 -48 3v137q19 -1 38 2q22 6 27 26q4 15 4 44v308v28q0 17 -4 21q-9 17 -36 17q-25 0 -47 -6v-371h-174v501h131l4 -26q49 31 114 33z" />
    <glyph glyph-name="Omacron" unicode="&#x14c;" horiz-adv-x="610" 
d="M307 713q123 0 193 -70t70 -184v-226q0 -65 -24.5 -114t-64.5 -76t-84.5 -40t-90.5 -13q-47 0 -91 13t-85 40t-65.5 76t-24.5 114v227q0 120 73 186q73 67 194 67zM307 554q-45 0 -65 -21.5t-20 -72.5v-227q0 -83 84 -83q41 0 61.5 19.5t20.5 63.5v226q0 51 -19.5 73
t-61.5 22zM441 881v-86h-272v86h272z" />
    <glyph glyph-name="omacron" unicode="&#x14d;" horiz-adv-x="474" 
d="M239 510q104 0 160 -55.5t56 -151.5v-105q0 -38 -11 -72.5t-35 -65.5t-67.5 -49.5t-102.5 -18.5t-103.5 18t-68.5 49t-35.5 65.5t-11.5 73.5v105q0 97 56.5 152t162.5 55zM239 371q-27 0 -36 -14.5t-9 -53.5v-105q0 -67 45 -67q42 0 42 67v105q0 68 -42 68zM373 669v-86
h-272v86h272z" />
    <glyph glyph-name="Ohungarumlaut" unicode="&#x150;" horiz-adv-x="610" 
d="M348 905l-88 -131h-104l54 131h138zM535 905l-87 -131h-105l55 131h137zM306 713q123 0 193 -70t70 -184v-226q0 -65 -24.5 -114t-64.5 -76t-84.5 -40t-90.5 -13q-37 0 -72.5 7.5t-71 26t-62.5 45.5t-43.5 69.5t-16.5 94.5v227q0 120 73 186q73 67 194 67zM306 554
q-45 0 -65 -21.5t-20 -72.5v-227q0 -83 84 -83q41 0 61.5 19.5t20.5 63.5v226q0 50 -19.5 72.5t-61.5 22.5z" />
    <glyph glyph-name="ohungarumlaut" unicode="&#x151;" horiz-adv-x="474" 
d="M238 510q104 0 160 -55.5t56 -151.5v-105q0 -38 -11 -72.5t-35 -65.5t-67.5 -49.5t-102.5 -18.5t-103.5 18t-68.5 49t-35.5 65.5t-11.5 73.5v105q0 97 56.5 152t162.5 55zM238 371q-27 0 -36 -14.5t-9 -53.5v-105q0 -67 45 -67q42 0 42 67v105q0 68 -42 68zM275 700
l-88 -131h-104l54 131h138zM462 700l-88 -131h-104l54 131h138z" />
    <glyph glyph-name="OE" unicode="&#x152;" horiz-adv-x="927" 
d="M307 713q68 0 121 -22v9h469v-160h-287v-111h264v-159h-264v-110h292v-160h-474v14q-56 -24 -122 -24q-47 0 -91 13t-85 40t-65.5 76t-24.5 114v227q0 120 73 186q73 67 194 67zM307 554q-45 0 -65 -21.5t-20 -72.5v-227q0 -83 84 -83q41 0 61.5 19.5t20.5 63.5v226
q0 50 -19.5 72.5t-61.5 22.5z" />
    <glyph glyph-name="oe" unicode="&#x153;" horiz-adv-x="718" 
d="M500 508q102 0 153 -54.5t51 -152.5v-118h-255v-7q0 -27 16.5 -41.5t42.5 -15.5q52 -2 79 30l97 -71q-55 -88 -184 -88q-40 0 -73.5 10t-46.5 22l-12 11q0 -3 -10.5 -12t-42.5 -20t-76 -11q-113 0 -166 61t-53 145v105q0 97 56.5 152t162.5 55q88 0 125 -37l4 -5
q42 42 132 42zM500 374q-27 0 -36 -14.5t-9 -53.5v-17h87v17q0 35 -9.5 51.5t-32.5 16.5zM239 369q-27 0 -36 -14.5t-9 -53.5v-105q0 -67 45 -67q42 0 42 67v105q0 68 -42 68z" />
    <glyph glyph-name="Racute" unicode="&#x154;" horiz-adv-x="606" 
d="M50 0v700h262q115 0 184.5 -69t66.5 -162q0 -149 -115 -209l-4 -2l153 -258h-210l-123 230h-32v-230h-182zM309 540h-77v-150h76q81 0 81 78q0 32 -21.5 52.5t-58.5 19.5zM461 899l-101 -129h-112l63 129h150z" />
    <glyph glyph-name="racute" unicode="&#x155;" horiz-adv-x="328" 
d="M278 508q19 0 44 -5v-138q-60 13 -87 5q-32 -11 -32 -70v-300h-174v512h131l7 -44q41 40 111 40zM321 700l-101 -129h-112l63 129h150z" />
    <glyph glyph-name="Rcommaaccent" unicode="&#x156;" horiz-adv-x="606" 
d="M50 0v700h262q115 0 184.5 -69t66.5 -162q0 -70 -29 -124t-81 -82l-9 -5l153 -258h-210l-123 230h-32v-230h-182zM309 540h-77v-150h76q81 0 81 78q0 32 -21.5 52.5t-58.5 19.5zM354 -116q0 -15 -7 -28l-46 -96h-70l25 80q-20 18 -20 44q0 24 17.5 41.5t41.5 17.5
t41.5 -17.5t17.5 -41.5z" />
    <glyph glyph-name="rcommaaccent" unicode="&#x157;" horiz-adv-x="328" 
d="M278 508q19 0 44 -5v-138q-60 13 -87 5q-32 -11 -32 -70v-300h-174v512h131l7 -44q41 40 111 40zM172 -116q0 -15 -7 -28l-45 -96h-71l25 80q-20 18 -20 44q0 24 17.5 41.5t41.5 17.5t41.5 -17.5t17.5 -41.5z" />
    <glyph glyph-name="Rcaron" unicode="&#x158;" horiz-adv-x="606" 
d="M50 0v700h262q115 0 184.5 -69t66.5 -162q0 -149 -115 -209l-4 -2l153 -258h-210l-123 230h-32v-230h-182zM309 540h-77v-150h76q81 0 81 78q0 32 -21.5 52.5t-58.5 19.5zM492 923l-112 -149h-152l-112 149h128l60 -80l60 80h128z" />
    <glyph glyph-name="rcaron" unicode="&#x159;" horiz-adv-x="328" 
d="M279 508q19 0 44 -5v-138q-60 13 -87 5q-32 -11 -32 -70v-300h-174v512h131l7 -44q41 40 111 40zM353 724l-112 -149h-152l-112 149h128l60 -80l60 80h128z" />
    <glyph glyph-name="Sacute" unicode="&#x15a;" horiz-adv-x="563" 
d="M438 899l-101 -129h-112l63 129h150zM268 712q118 0 181.5 -59t63.5 -167h-173q0 38 -17 53t-55 15q-31 0 -46.5 -12.5t-15.5 -32.5q0 -27 18.5 -40t96.5 -33q134 -30 178 -91q40 -53 40 -144q0 -88 -60.5 -150.5t-184.5 -62.5q-126 0 -199 59.5t-73 167.5h172
q0 -36 19 -50t73 -14q78 0 78 50q0 22 -17 34q-4 4 -34 14q-4 1 -25 6.5t-29 8.5q-115 31 -170.5 79.5t-58.5 142.5q-3 107 58 166.5t180 59.5z" />
    <glyph glyph-name="sacute" unicode="&#x15b;" horiz-adv-x="433" 
d="M375 700l-101 -129h-112l63 129h150zM217 510q96 0 145 -41.5t49 -120.5h-166q0 23 -27 23q-14 0 -21 -6.5t-6 -16.5q0 -13 10 -21t48 -14q89 -15 129.5 -51.5t40.5 -107.5q0 -68 -45 -115t-147 -47t-157 42t-55 120h169q4 -23 26 -25q31 -1 33 23q1 17 -9 23.5t-45 12.5
q-5 0 -7 1q-72 12 -113 41q-48 34 -48 119q0 161 196 161z" />
    <glyph glyph-name="Scedilla" unicode="&#x15e;" horiz-adv-x="563" 
d="M268 712q118 0 181.5 -59t63.5 -167h-173q0 38 -17 53t-55 15q-31 0 -46.5 -12.5t-15.5 -32.5q0 -27 18.5 -40t96.5 -33q134 -30 178 -91q40 -53 40 -144q0 -85 -56 -146.5t-172 -66.5l-14 -20q24 2 29 1q40 -2 63.5 -26t23.5 -66q0 -53 -37.5 -79.5t-100.5 -26.5
q-49 0 -131 35l26 62q56 -18 89 -22q17 -2 28.5 5.5t11.5 20.5q0 28 -33 28q-16 0 -42 -8l-33 28l45 72q-101 13 -157.5 71t-56.5 152h172q0 -36 19 -50t73 -14q36 0 57 13t21 37q0 22 -17 34q-4 4 -34 14q-4 1 -25 6.5t-29 8.5q-107 30 -165 74q-63 53 -64 148
q-3 107 58 166.5t180 59.5z" />
    <glyph glyph-name="scedilla" unicode="&#x15f;" horiz-adv-x="433" 
d="M217 510q96 0 145 -41.5t49 -120.5h-166q0 9 -7.5 16t-19.5 7q-15 0 -22 -7t-5 -16q0 -13 10 -21t48 -14q89 -15 129.5 -51.5t40.5 -107.5q0 -100 -84 -141q-37 -17 -87 -20l-14 -21q15 3 37 1q37 -5 58 -29t21 -63q0 -53 -37.5 -80t-100.5 -27q-48 0 -131 36l26 62
q56 -18 89 -22q17 -2 28.5 5.5t11.5 20.5q0 30 -33 28q-16 0 -42 -8l-33 28l45 71q-158 23 -158 159h169q4 -23 26 -25q31 -1 33 23q1 17 -9 23.5t-45 12.5q-5 0 -7 1q-72 12 -113 41q-48 34 -48 119q0 161 196 161z" />
    <glyph glyph-name="Scaron" unicode="&#x160;" horiz-adv-x="563" 
d="M268 712q118 0 181.5 -59t63.5 -167h-173q0 38 -17 53t-55 15q-31 0 -46.5 -12.5t-15.5 -32.5q0 -27 18.5 -40t96.5 -33q129 -29 173.5 -84.5t44.5 -150.5q0 -88 -60.5 -150.5t-184.5 -62.5q-126 0 -199 59.5t-73 167.5h172q0 -36 19 -50t73 -14q36 0 57 13t21 37
q0 22 -17 34q-4 4 -34 14q-4 1 -25 6.5t-29 8.5q-107 30 -165 74q-63 53 -64 148q-3 107 58 166.5t180 59.5zM469 923l-112 -149h-152l-112 149h128l60 -80l60 80h128z" />
    <glyph glyph-name="scaron" unicode="&#x161;" horiz-adv-x="433" 
d="M217 510q96 0 145 -41.5t49 -120.5h-166q0 23 -28 23q-12 0 -19.5 -7t-6.5 -16q0 -13 10 -21t48 -14q89 -15 129.5 -51.5t40.5 -107.5q0 -68 -45 -115t-147 -47t-157 42t-55 120h169q4 -23 26 -25q31 -1 33 23q1 17 -9 23.5t-45 12.5q-5 0 -7 1q-72 12 -113 41
q-48 34 -48 119q0 161 196 161zM406 724l-112 -149h-152l-112 149h128l60 -80l60 80h128z" />
    <glyph glyph-name="Tcedilla" unicode="&#x162;" horiz-adv-x="530" 
d="M515 700v-160h-162v-540h-55l-16 -24q27 2 33 1q37 -3 60 -26.5t23 -65.5q0 -53 -37.5 -79.5t-100.5 -26.5q-49 0 -131 35l26 62q56 -18 89 -22q17 -2 28.5 5.5t11.5 20.5q0 29 -33 29q-15 0 -42 -9l-33 28l45 72h-50v540h-156v160h500z" />
    <glyph glyph-name="tcedilla" unicode="&#x163;" horiz-adv-x="315" 
d="M204 623v-122h85v-138h-85v-163q0 -24 1 -37q5 -27 30 -33q21 -6 61 0v-136q-40 -8 -72 -6q-18 0 -37 3l-12 -18q15 3 37 1q36 -4 57.5 -28t21.5 -64q0 -53 -37.5 -79.5t-100.5 -26.5q-49 0 -131 35l26 62q56 -18 89 -22q17 -2 28.5 5.5t11.5 20.5q0 29 -33 29
q-15 0 -42 -9l-33 28l53 85q-92 44 -92 157v456h174z" />
    <glyph glyph-name="Tcaron" unicode="&#x164;" horiz-adv-x="530" 
d="M515 700v-160h-162v-540h-182v540h-156v160h500zM454 923l-112 -149h-152l-112 149h128l60 -80l60 80h128z" />
    <glyph glyph-name="tcaron" unicode="&#x165;" horiz-adv-x="315" 
d="M204 623v-122h85v-138h-85v-163q0 -29 3 -44q5 -20 28 -26q21 -6 61 0v-136q-40 -8 -72 -6q-81 3 -137.5 45t-56.5 134v456h174zM442 738q0 -23 -11 -45l-73 -155h-114l41 129q-33 29 -33 71q0 39 28 67t67 28t67 -28t28 -67z" />
    <glyph glyph-name="Tbar" unicode="&#x166;" horiz-adv-x="530" 
d="M515 700v-160h-162v-137h90v-86h-90v-317h-182v317h-84v86h84v137h-156v160h500z" />
    <glyph glyph-name="tbar" unicode="&#x167;" horiz-adv-x="315" 
d="M204 622v-121h85v-138h-85v-36h85v-112h-85v-15q0 -29 3 -44q5 -20 28 -26q21 -6 61 0v-136q-40 -8 -72 -6q-81 3 -137.5 45t-56.5 134v455h174z" />
    <glyph glyph-name="Umacron" unicode="&#x16a;" horiz-adv-x="625" 
d="M398 700h182v-467q0 -65 -24.5 -114t-64.5 -76t-84.5 -40t-90.5 -13q-37 0 -72.5 7.5t-71 26t-62.5 45.5t-43.5 69.5t-16.5 94.5v467h182v-467q0 -83 84 -83q82 0 82 83v467zM441 881v-86h-272v86h272z" />
    <glyph glyph-name="umacron" unicode="&#x16b;" 
d="M378 669v-86h-272v86h272zM460 501v-501h-131l-5 26q-50 -33 -113 -33q-77 0 -131.5 47t-54.5 137v324h174v-311v-13v-12.5t0.5 -10.5t1.5 -9t2.5 -7t4.5 -6.5t7 -4t10 -3t13 -0.5q26 0 48 6v371h174z" />
    <glyph glyph-name="Uring" unicode="&#x16e;" horiz-adv-x="625" 
d="M437 843q0 -49 -37 -86q-38 -36 -87 -36t-86 37t-37 85q0 50 37 86q37 37 86 37t87 -36q37 -36 37 -87zM268 843q0 -17 13.5 -31t31.5 -14t32 14t14 31q1 28 -22 40t-46.5 0t-22.5 -40zM398 700h182v-467q0 -65 -24.5 -114t-64.5 -76t-84.5 -40t-90.5 -13
q-37 0 -72.5 7.5t-71 26t-62.5 45.5t-43.5 69.5t-16.5 94.5v467h182v-467q0 -83 84 -83q82 0 82 83v467z" />
    <glyph glyph-name="uring" unicode="&#x16f;" 
d="M369 644q0 -49 -37 -86q-38 -36 -87 -36t-86 37t-37 85q0 50 37 86q37 37 86 37t87 -36q37 -36 37 -87zM200 644q0 -17 13.5 -31t31.5 -14t31.5 14t13.5 31q1 28 -22 40t-46 0t-22 -40zM459 501v-501h-131l-5 26q-49 -33 -113 -33q-76 -2 -130.5 46.5t-55.5 137.5v324
h174v-311v-13v-12.5t0.5 -10.5t1.5 -9t2.5 -7t4.5 -6.5t7 -4t10 -3t13 -0.5q25 0 48 6v371h174z" />
    <glyph glyph-name="Uhungarumlaut" unicode="&#x170;" horiz-adv-x="625" 
d="M348 905l-88 -131h-104l54 131h138zM535 905l-87 -131h-105l55 131h137zM397 700h182v-467q0 -65 -24.5 -114t-64.5 -76t-84.5 -40t-90.5 -13q-37 0 -72.5 7.5t-71 26t-62.5 45.5t-43.5 69.5t-16.5 94.5v467h182v-467q0 -83 84 -83q82 0 82 83v467z" />
    <glyph glyph-name="uhungarumlaut" unicode="&#x171;" 
d="M460 501v-501h-131l-5 26q-50 -33 -113 -33q-76 -2 -130.5 46.5t-55.5 137.5v324h174v-311v-13v-12.5t0.5 -10.5t1.5 -9t2.5 -7t4.5 -6.5t7 -4t10 -3t13 -0.5q26 0 48 6v371h174zM276 700l-88 -131h-104l54 131h138zM463 700l-88 -131h-104l54 131h138z" />
    <glyph glyph-name="Uogonek" unicode="&#x172;" horiz-adv-x="625" 
d="M398 700h182v-467q0 -146 -120 -209q-69 -69 -73 -114q-5 -31 22 -31q13 0 26 8q15 13 30 36l63 -24q-58 -102 -154 -102q-36 0 -68.5 19.5t-32.5 69.5q0 48 57 104q-44 0 -75 6q-86 15 -145.5 74t-59.5 163v467h182v-467q0 -83 84 -83q82 0 82 83v467z" />
    <glyph glyph-name="uogonek" unicode="&#x173;" 
d="M460 501v-501h-35q-45 -50 -50 -90q-3 -31 22 -31q26 0 56 44l63 -24q-57 -102 -154 -102q-21 0 -41 5.5t-40 27t-20 56.5q0 52 68 114l-5 26q-50 -33 -113 -33q-76 -2 -130.5 46.5t-55.5 137.5v324h174v-311v-13v-12.5t0.5 -10.5t1.5 -9t2.5 -7t4.5 -6.5t7 -4t10 -3
t13 -0.5q26 0 48 6v371h174z" />
    <glyph glyph-name="Wcircumflex" unicode="&#x174;" horiz-adv-x="901" 
d="M892 700l-143 -700h-237l-61 290l-61 -290h-237l-143 700h188l75 -490l91 490h174l91 -490l75 490h188zM530 923l112 -149h-128l-60 80l-60 -80h-128l112 149h152z" />
    <glyph glyph-name="wcircumflex" unicode="&#x175;" horiz-adv-x="759" 
d="M755 501l-149 -501h-189l-37 173l-37 -173h-189l-149 501h182l62 -285l52 285h158l52 -285l62 285h182zM459 724l112 -149h-128l-60 80l-60 -80h-128l112 149h152z" />
    <glyph glyph-name="Ycircumflex" unicode="&#x176;" horiz-adv-x="650" 
d="M640 700l-225 -423v-277h-182v276l-224 424h209l105 -256l106 256h211zM403 923l112 -149h-128l-60 80l-60 -80h-128l112 149h152z" />
    <glyph glyph-name="ycircumflex" unicode="&#x177;" horiz-adv-x="489" 
d="M286 501h174v-484q0 -95 -54 -148q-53 -53 -134 -53q-96 0 -188 62l66 93q52 -30 85 -29q46 0 50 58l1 17q-39 -17 -84 -17q-71 0 -124 45.5t-53 138.5v317h174v-311v-13v-12.5t0.5 -10.5t1.5 -9t2.5 -7t4.5 -6.5t7 -4t10 -3t13 -0.5q26 0 48 6v371zM330 724l112 -149
h-128l-60 80l-60 -80h-128l112 149h152z" />
    <glyph glyph-name="Ydieresis" unicode="&#x178;" horiz-adv-x="650" 
d="M222 908q32 0 54 -22.5t22 -56.5q0 -33 -22.5 -56t-54.5 -23q-34 0 -57 23t-23 56q0 34 23 56.5t58 22.5zM444 908q32 0 54 -22.5t22 -56.5q0 -33 -22 -56t-55 -23q-34 0 -57 23t-23 56q0 34 23 56.5t58 22.5zM641 700l-225 -423v-277h-182v276l-224 424h209l105 -256
l106 256h211z" />
    <glyph glyph-name="Zacute" unicode="&#x179;" horiz-adv-x="572" 
d="M542 700v-107l-270 -433h274v-160h-522v107l269 433h-249v160h498zM457 899l-101 -129h-112l63 129h150z" />
    <glyph glyph-name="zacute" unicode="&#x17a;" horiz-adv-x="410" 
d="M347 700l-102 -129h-112l64 129h150zM389 501v-97l-157 -266h164v-138h-381v98l157 265h-147v138h364z" />
    <glyph glyph-name="Zdotaccent" unicode="&#x17b;" horiz-adv-x="572" 
d="M305 914q33 0 54.5 -22t21.5 -57q0 -33 -22 -56t-55 -23q-34 0 -57 23t-23 56q0 35 23 57t58 22zM542 700v-107l-270 -433h274v-160h-522v107l269 433h-249v160h498z" />
    <glyph glyph-name="zdotaccent" unicode="&#x17c;" horiz-adv-x="410" 
d="M204 714q33 0 54.5 -22.5t21.5 -56.5q0 -33 -22 -56t-55 -23q-34 0 -57 23t-23 56q0 34 23 56.5t58 22.5zM389 501v-97l-157 -266h164v-138h-381v98l157 265h-148v138h365z" />
    <glyph glyph-name="Zcaron" unicode="&#x17d;" horiz-adv-x="572" 
d="M542 700v-107l-270 -433h274v-160h-522v107l269 433h-249v160h498zM480 923l-112 -149h-152l-112 149h128l60 -80l60 80h128z" />
    <glyph glyph-name="zcaron" unicode="&#x17e;" horiz-adv-x="410" 
d="M389 501v-97l-157 -266h164v-138h-381v98l157 265h-148v138h365zM408 724l-112 -149h-152l-112 149h128l60 -80l60 80h128z" />
    <glyph glyph-name="florin" unicode="&#x192;" horiz-adv-x="354" 
d="M268 713q38 1 72 -6v-137q-39 6 -61 1q-31 -9 -31 -57v-13h85v-130h-85v-392q0 -92 -57 -134.5t-137 -44.5q-30 0 -39 1v138q33 0 46 12q3 4 5 7t3.5 7.5t2 7t1 8t1 9t0.5 11v11.5v522q0 48 17 83.5t46 55.5t61.5 29.5t69.5 10.5z" />
    <glyph glyph-name="Acaron" unicode="&#x1cd;" horiz-adv-x="651" 
d="M416 700l224 -700h-188l-36 138h-182l-36 -138h-189l225 700h182zM325 493l-50 -195h100zM514 923l-112 -149h-152l-112 149h128l60 -80l60 80h128z" />
    <glyph glyph-name="acaron" unicode="&#x1ce;" horiz-adv-x="467" 
d="M440 724l-112 -149h-152l-112 149h128l60 -80l60 80h128zM223 510q107 0 162.5 -55.5t55.5 -151.5v-303h-131l-4 26q-44 -33 -111 -33q-73 0 -125 43q-51 44 -51 129q0 47 18 80t48 49t61.5 22.5t65.5 5.5q30 -2 55 -6q0 51 -47 56q-43 3 -97 -33l-86 79q71 90 186 92z
M232 205q-54 0 -54 -40t49 -40q24 0 40 10v67q-21 3 -35 3z" />
    <glyph glyph-name="Icaron" unicode="&#x1cf;" horiz-adv-x="281" 
d="M330 923l-112 -149h-152l-112 149h128l60 -80l60 80h128zM232 700v-700h-182v700h182z" />
    <glyph glyph-name="icaron" unicode="&#x1d0;" horiz-adv-x="241" 
d="M316 724l-112 -149h-152l-112 149h128l60 -80l60 80h128zM212 501v-501h-174v501h174z" />
    <glyph glyph-name="Ocaron" unicode="&#x1d1;" horiz-adv-x="610" 
d="M307 713q123 0 193 -70t70 -184v-226q0 -65 -24.5 -114t-64.5 -76t-84.5 -40t-90.5 -13q-47 0 -91 13t-85 40t-65.5 76t-24.5 114v227q0 120 73 186q73 67 194 67zM307 554q-45 0 -65 -21.5t-20 -72.5v-227q0 -83 84 -83q41 0 61.5 19.5t20.5 63.5v226q0 51 -19.5 73
t-61.5 22zM494 923l-112 -149h-152l-112 149h128l60 -80l60 80h128z" />
    <glyph glyph-name="ocaron" unicode="&#x1d2;" horiz-adv-x="474" 
d="M427 724l-112 -149h-152l-112 149h128l60 -80l60 80h128zM239 510q104 0 160 -55.5t56 -151.5v-105q0 -38 -11 -72.5t-35 -65.5t-67.5 -49.5t-102.5 -18.5t-103.5 18t-68.5 49t-35.5 65.5t-11.5 73.5v105q0 97 56.5 152t162.5 55zM239 371q-27 0 -36 -14.5t-9 -53.5v-105
q0 -67 45 -67q42 0 42 67v105q0 68 -42 68z" />
    <glyph glyph-name="Ucaron" unicode="&#x1d3;" horiz-adv-x="625" 
d="M397 700h182v-467q0 -65 -24.5 -114t-64.5 -76t-84.5 -40t-90.5 -13q-37 0 -72.5 7.5t-71 26t-62.5 45.5t-43.5 69.5t-16.5 94.5v467h182v-467q0 -83 84 -83q82 0 82 83v467zM501 923l-112 -149h-152l-112 149h128l60 -80l60 80h128z" />
    <glyph glyph-name="ucaron" unicode="&#x1d4;" 
d="M460 501v-501h-131l-5 26q-50 -33 -113 -33q-76 -2 -130.5 46.5t-55.5 137.5v324h174v-311v-13v-12.5t0.5 -10.5t1.5 -9t2.5 -7t4.5 -6.5t7 -4t10 -3t13 -0.5q26 0 48 6v371h174zM435 724l-112 -149h-152l-112 149h128l60 -80l60 80h128z" />
    <glyph glyph-name="Udieresismacron" unicode="&#x1d5;" horiz-adv-x="625" 
d="M456 1022v-86h-272v86h272zM212 914q32 0 54 -22.5t22 -56.5q0 -33 -22 -56t-55 -23q-34 0 -57 23t-23 56q0 34 23 56.5t58 22.5zM434 914q32 0 54 -22.5t22 -56.5q0 -33 -22 -56t-55 -23q-34 0 -57 23t-23 56q0 34 23 56.5t58 22.5zM397 700h182v-467q0 -65 -24.5 -114
t-64.5 -76t-84.5 -40t-90.5 -13q-37 0 -72.5 7.5t-71 26t-62.5 45.5t-43.5 69.5t-16.5 94.5v467h182v-467q0 -83 84 -83q82 0 82 83v467z" />
    <glyph glyph-name="udieresismacron" unicode="&#x1d6;" 
d="M460 501v-501h-131l-5 26q-50 -33 -113 -33q-76 -2 -130.5 46.5t-55.5 137.5v324h174v-311v-13v-12.5t0.5 -10.5t1.5 -9t2.5 -7t4.5 -6.5t7 -4t10 -3t13 -0.5q26 0 48 6v371h174zM132 713q32 0 54 -22.5t22 -56.5q0 -33 -22 -56t-55 -23q-34 0 -57 23t-23 56
q0 34 23 56.5t58 22.5zM354 713q32 0 54 -22.5t22 -56.5q0 -33 -22 -56t-55 -23q-34 0 -57 23t-23 56q0 34 23 56.5t58 22.5zM381 835v-86h-272v86h272z" />
    <glyph glyph-name="Udieresisacute" unicode="&#x1d7;" horiz-adv-x="625" 
d="M485 1059l-102 -129h-112l64 129h150zM212 914q32 0 54 -22.5t22 -56.5q0 -33 -22 -56t-55 -23q-34 0 -57 23t-23 56q0 34 23 56.5t58 22.5zM434 914q32 0 54 -22.5t22 -56.5q0 -33 -22 -56t-55 -23q-34 0 -57 23t-23 56q0 34 23 56.5t58 22.5zM397 700h182v-467
q0 -65 -24.5 -114t-64.5 -76t-84.5 -40t-90.5 -13q-37 0 -72.5 7.5t-71 26t-62.5 45.5t-43.5 69.5t-16.5 94.5v467h182v-467q0 -83 84 -83q82 0 82 83v467z" />
    <glyph glyph-name="udieresisacute" unicode="&#x1d8;" 
d="M404 877l-101 -129h-112l63 129h150zM143 709q32 0 54 -22.5t22 -56.5q0 -33 -22 -56t-55 -23q-34 0 -57 23t-23 56q0 34 23 56.5t58 22.5zM365 709q32 0 54 -22.5t22 -56.5q0 -33 -22 -56t-55 -23q-34 0 -57 23t-23 56q0 34 23 56.5t58 22.5zM460 501v-501h-131l-5 26
q-50 -33 -113 -33q-76 -2 -130.5 46.5t-55.5 137.5v324h174v-311v-13v-12.5t0.5 -10.5t1.5 -9t2.5 -7t4.5 -6.5t7 -4t10 -3t13 -0.5q26 0 48 6v371h174z" />
    <glyph glyph-name="Udieresiscaron" unicode="&#x1d9;" horiz-adv-x="625" 
d="M209 908q32 0 54 -22.5t22 -56.5q0 -33 -22 -56t-55 -23q-34 0 -57 23t-23 56q0 34 23 56.5t58 22.5zM431 908q33 0 54.5 -22.5t21.5 -56.5q0 -33 -22 -56t-55 -23q-34 0 -57 23t-23 56q0 34 23 56.5t58 22.5zM397 700h182v-467q0 -65 -24.5 -114t-64.5 -76t-84.5 -40
t-90.5 -13q-37 0 -72.5 7.5t-71 26t-62.5 45.5t-43.5 69.5t-16.5 94.5v467h182v-467q0 -83 84 -83q82 0 82 83v467zM501 1078l-112 -149h-152l-112 149h128l60 -80l60 80h128z" />
    <glyph glyph-name="udieresiscaron" unicode="&#x1da;" 
d="M435 886l-112 -149h-152l-112 149h128l60 -80l60 80h128zM143 709q32 0 54 -22.5t22 -56.5q0 -33 -22 -56t-55 -23q-34 0 -57 23t-23 56q0 34 23 56.5t58 22.5zM365 709q32 0 54 -22.5t22 -56.5q0 -33 -22 -56t-55 -23q-34 0 -57 23t-23 56q0 34 23 56.5t58 22.5z
M460 501v-501h-131l-5 26q-50 -33 -113 -33q-76 -2 -130.5 46.5t-55.5 137.5v324h174v-311v-13v-12.5t0.5 -10.5t1.5 -9t2.5 -7t4.5 -6.5t7 -4t10 -3t13 -0.5q26 0 48 6v371h174z" />
    <glyph glyph-name="Udieresisgrave" unicode="&#x1db;" horiz-adv-x="625" 
d="M319 1060l63 -128h-112l-101 128h150zM212 914q32 0 54 -22.5t22 -56.5q0 -33 -22 -56t-55 -23q-34 0 -57 23t-23 56q0 34 23 56.5t58 22.5zM434 914q32 0 54 -22.5t22 -56.5q0 -33 -22 -56t-55 -23q-34 0 -57 23t-23 56q0 34 23 56.5t58 22.5zM397 700h182v-467
q0 -65 -24.5 -114t-64.5 -76t-84.5 -40t-90.5 -13q-37 0 -72.5 7.5t-71 26t-62.5 45.5t-43.5 69.5t-16.5 94.5v467h182v-467q0 -83 84 -83q82 0 82 83v467z" />
    <glyph glyph-name="udieresisgrave" unicode="&#x1dc;" 
d="M460 501v-501h-131l-5 26q-50 -33 -113 -33q-76 -2 -130.5 46.5t-55.5 137.5v324h174v-311v-13v-12.5t0.5 -10.5t1.5 -9t2.5 -7t4.5 -6.5t7 -4t10 -3t13 -0.5q26 0 48 6v371h174zM132 713q32 0 54 -22.5t22 -56.5q0 -33 -22 -56t-55 -23q-34 0 -57 23t-23 56
q0 34 23 56.5t58 22.5zM354 713q32 0 54 -22.5t22 -56.5q0 -33 -22 -56t-55 -23q-34 0 -57 23t-23 56q0 34 23 56.5t58 22.5zM262 878l63 -129h-112l-101 129h150z" />
    <glyph glyph-name="Scommaaccent" unicode="&#x218;" horiz-adv-x="563" 
d="M268 712q118 0 181.5 -59t63.5 -167h-173q0 38 -17 53t-55 15q-31 0 -46.5 -12.5t-15.5 -32.5q0 -27 18.5 -40t96.5 -33q129 -29 173.5 -84.5t44.5 -150.5q0 -88 -60.5 -150.5t-184.5 -62.5q-126 0 -199 59.5t-73 167.5h172q0 -36 19 -50t73 -14q36 0 57 13t21 37
q0 22 -17 34q-4 4 -34 14q-4 1 -25 6.5t-29 8.5q-107 30 -165 74q-63 53 -64 148q-3 107 58 166.5t180 59.5zM350 -116q0 -15 -7 -28l-46 -96h-70l25 80q-20 18 -20 44q0 24 17.5 41.5t41.5 17.5t41.5 -17.5t17.5 -41.5z" />
    <glyph glyph-name="scommaaccent" unicode="&#x219;" horiz-adv-x="433" 
d="M217 510q96 0 145 -41.5t49 -120.5h-166q0 23 -28 23q-12 0 -19.5 -7t-6.5 -16q0 -13 10 -21t48 -14q89 -15 129.5 -51.5t40.5 -107.5q0 -68 -45 -115t-147 -47t-157 42t-55 120h169q4 -23 26 -25q31 -1 33 23q1 17 -9 23.5t-45 12.5q-5 0 -7 1q-72 12 -113 41
q-48 34 -48 119q0 161 196 161zM211 -57q24 0 41.5 -17.5t17.5 -41.5q0 -15 -7 -28l-46 -96h-70l25 80q-20 18 -20 44q0 24 17.5 41.5t41.5 17.5z" />
    <glyph glyph-name="uni021A" unicode="&#x21a;" horiz-adv-x="530" 
d="M515 700v-160h-162v-540h-182v540h-156v160h500zM320 -116q0 -15 -7 -28l-46 -96h-70l25 80q-20 18 -20 44q0 24 17.5 41.5t41.5 17.5t41.5 -17.5t17.5 -41.5z" />
    <glyph glyph-name="uni021B" unicode="&#x21b;" horiz-adv-x="315" 
d="M204 623v-122h85v-138h-85v-163q0 -29 3 -44q5 -20 28 -26q21 -6 61 0v-136q-40 -8 -72 -6q-81 3 -137.5 45t-56.5 134v456h174zM227 -116q0 -15 -7 -28l-46 -96h-70l25 80q-20 18 -20 44q0 24 17.5 41.5t41.5 17.5t41.5 -17.5t17.5 -41.5z" />
    <glyph glyph-name="circumflex" unicode="&#x2c6;" horiz-adv-x="390" 
d="M273 724l112 -149h-128l-60 80l-60 -80h-128l112 149h152z" />
    <glyph glyph-name="caron" unicode="&#x2c7;" horiz-adv-x="390" 
d="M384 724l-112 -149h-152l-112 149h128l60 -80l60 80h128z" />
    <glyph glyph-name="breve" unicode="&#x2d8;" horiz-adv-x="326" 
d="M266 699h71q0 -69 -49 -112q-50 -42 -125 -42t-125 42q-49 43 -49 112h71q8 -68 103 -68t103 68z" />
    <glyph glyph-name="dotaccent" unicode="&#x2d9;" horiz-adv-x="130" 
d="M68 709q32 0 54 -22.5t22 -56.5q0 -33 -22 -56t-55 -23q-34 0 -57 23t-23 56q0 34 23 56.5t58 22.5z" />
    <glyph glyph-name="ring" unicode="&#x2da;" horiz-adv-x="326" 
d="M285 644q0 -49 -37 -86q-36 -36 -86 -36t-87 37q-36 37 -36 85q0 50 37 86q37 37 86 37q50 0 86 -36q37 -36 37 -87zM117 644q0 -17 13.5 -31t31.5 -14t31.5 14t13.5 31q1 28 -22 40t-46 0t-22 -40z" />
    <glyph glyph-name="ogonek" unicode="&#x2db;" horiz-adv-x="289" 
d="M126 1h89q-71 -68 -77 -117q-5 -30 22 -32q6 0 11.5 1.5t9.5 3.5t9.5 8t8 9t9 11.5t9.5 11.5l62 -24q-58 -103 -154 -103q-14 0 -29.5 3.5t-32.5 12.5t-28 28t-11 46q0 64 102 141z" />
    <glyph glyph-name="tilde" unicode="&#x2dc;" horiz-adv-x="421" 
d="M157 716q23 0 52 -18t44 -18q16 0 33.5 11t27.5 25l9 12l59 -78q-9 -11 -18 -19q-11 -9 -44 -30q-32 -18 -59 -18q-23 0 -55 18q-31 19 -49 19q-28 0 -53 -36l-8 -12l-59 78q0 2 16.5 17t46.5 32t57 17z" />
    <glyph glyph-name="hungarumlaut" unicode="&#x2dd;" horiz-adv-x="320" 
d="M164 700l-88 -131h-104l54 131h138zM351 700l-88 -131h-104l54 131h138z" />
    <glyph glyph-name="increment" unicode="&#x394;" horiz-adv-x="833" 
 />
    <glyph glyph-name="Omega" unicode="&#x3a9;" horiz-adv-x="833" 
 />
    <glyph glyph-name="mu" unicode="&#x3bc;" horiz-adv-x="833" 
 />
    <glyph glyph-name="pi" unicode="&#x3c0;" horiz-adv-x="127" 
 />
    <glyph glyph-name="uni0401" unicode="&#x401;" horiz-adv-x="549" 
d="M151 908q32 0 54 -22.5t22 -56.5q0 -33 -22.5 -56t-54.5 -23q-34 0 -57 23t-23 56q0 34 23 56.5t58 22.5zM373 908q32 0 54 -22.5t22 -56.5q0 -33 -22 -56t-55 -23q-34 0 -57 23t-23 56q0 34 23 56.5t58 22.5zM519 700v-160h-287v-111h264v-159h-264v-110h292v-160h-474
v700h469z" />
    <glyph glyph-name="uni0410" unicode="&#x410;" horiz-adv-x="651" 
d="M417 700l224 -700h-188l-36 138h-182l-36 -138h-189l225 700h182zM326 493l-50 -195h100z" />
    <glyph glyph-name="uni0411" unicode="&#x411;" horiz-adv-x="589" 
d="M518 700v-160h-286v-108h142q92 0 141.5 -54.5t49.5 -161.5t-49.5 -161.5t-141.5 -54.5h-324v700h468zM329 273h-97v-114h97q54 0 54 57t-54 57z" />
    <glyph glyph-name="uni0412" unicode="&#x412;" horiz-adv-x="590" 
d="M50 0v700h309q86 0 139 -56q52 -55 52 -133q0 -104 -62 -158q36 -25 56.5 -65.5t20.5 -88.5q0 -94 -50.5 -146.5t-140.5 -52.5h-324zM314 540h-82v-110h82q54 0 54 57q0 23 -14.5 38t-39.5 15zM329 269h-97v-110h97q54 0 54 57q0 23 -14.5 38t-39.5 15z" />
    <glyph glyph-name="uni0413" unicode="&#x413;" horiz-adv-x="542" 
d="M518 700v-160h-286v-540h-182v700h468z" />
    <glyph glyph-name="uni0414" unicode="&#x414;" horiz-adv-x="733" 
d="M630 700v-544h78v-300h-168v144h-348v-144h-168v300h84q31 34 31 82v462h491zM448 540h-128v-299q0 -46 -10 -85h138v384z" />
    <glyph glyph-name="uni0415" unicode="&#x415;" horiz-adv-x="549" 
d="M519 700v-160h-287v-111h264v-159h-264v-110h292v-160h-474v700h469z" />
    <glyph glyph-name="uni0416" unicode="&#x416;" horiz-adv-x="1028" 
d="M996 700l-207 -325l230 -375h-207l-207 367v-367h-182v367l-206 -367h-207l229 375l-206 325h202l188 -331v331h182v-331l189 331h202z" />
    <glyph glyph-name="uni0417" unicode="&#x417;" horiz-adv-x="524" 
d="M250 713q96 0 164 -57t68 -154q0 -80 -73 -141q28 -23 49 -51q31 -37 31 -102q0 -106 -68 -163q-68 -56 -171 -56q-95 0 -154 46q-51 39 -71 72l134 86q13 -19 37.5 -31.5t53.5 -12.5q26 0 45 18.5t19 44.5q0 28 -24 49.5t-58 21.5h-38v144h38q35 0 57 20t22 47
q0 25 -17.5 42.5t-43.5 17.5q-19 0 -34.5 -10.5t-19.5 -22.5l-4 -10l-153 62q19 41 64 85q60 55 147 55z" />
    <glyph glyph-name="uni0418" unicode="&#x418;" horiz-adv-x="651" 
d="M606 700v-700h-182v337l-188 -337h-191v700h182v-355l198 355h181z" />
    <glyph glyph-name="uni0419" unicode="&#x419;" horiz-adv-x="651" 
d="M428 898h71q0 -69 -49 -112q-50 -42 -126 -42t-124.5 42.5t-48.5 111.5h71q8 -68 102 -68q95 0 104 68zM44 700h182v-355l198 355h181v-700h-182v337l-188 -337h-191v700z" />
    <glyph glyph-name="uni041A" unicode="&#x41a;" horiz-adv-x="655" 
d="M622 700l-206 -325l229 -375h-206l-207 367v-367h-182v700h182v-331l188 331h202z" />
    <glyph glyph-name="uni041B" unicode="&#x41b;" horiz-adv-x="651" 
d="M620 700v-700h-182v540h-128v-299q0 -122 -77 -186t-219 -64v157q115 0 115 90v462h491z" />
    <glyph glyph-name="uni041C" unicode="&#x41c;" horiz-adv-x="757" 
d="M707 700v-700h-181v292l-85 -199h-129l-86 199v-292h-181v700h185l146 -341l146 341h185z" />
    <glyph glyph-name="uni041D" unicode="&#x41d;" horiz-adv-x="630" 
d="M580 700v-700h-182v270h-166v-270h-182v700h182v-271h166v271h182z" />
    <glyph glyph-name="uni041E" unicode="&#x41e;" horiz-adv-x="610" 
d="M307 713q123 0 193 -70t70 -184v-226q0 -65 -24.5 -114t-64.5 -76t-84.5 -40t-90.5 -13q-47 0 -91 13t-85 40t-65.5 76t-24.5 114v227q0 120 73 186q73 67 194 67zM307 554q-45 0 -65 -21.5t-20 -72.5v-227q0 -83 84 -83q41 0 61.5 19.5t20.5 63.5v226q0 51 -19.5 73
t-61.5 22z" />
    <glyph glyph-name="uni041F" unicode="&#x41f;" horiz-adv-x="630" 
d="M580 700v-700h-182v540h-166v-540h-182v700h530z" />
    <glyph glyph-name="uni0420" unicode="&#x420;" horiz-adv-x="587" 
d="M50 0v700h262q114 1 184 -70.5t67 -165.5q0 -114 -67.5 -180.5t-184.5 -66.5h-79v-217h-182zM309 540h-77v-163h76q81 0 81 85q0 34 -21 56t-59 22z" />
    <glyph glyph-name="uni0421" unicode="&#x421;" horiz-adv-x="566" 
d="M302 713q91 0 153 -44t86 -122l-132 -58q-22 65 -96 65q-37 -2 -64.5 -27t-27.5 -67v-217q0 -42 26.5 -67t65.5 -26q31 -2 59 15.5t37 48.5l132 -58q-24 -78 -86 -122t-153 -44q-115 0 -189 67t-74 186v217q0 120 74 186q73 67 189 67z" />
    <glyph glyph-name="uni0422" unicode="&#x422;" horiz-adv-x="530" 
d="M515 700v-160h-162v-540h-182v540h-156v160h500z" />
    <glyph glyph-name="uni0423" unicode="&#x423;" horiz-adv-x="631" 
d="M431 700h185l-250 -587q-54 -125 -170 -125h-97v159h62q57 0 76 58l3 9l-225 486h188l120 -285z" />
    <glyph glyph-name="uni0424" unicode="&#x424;" horiz-adv-x="793" 
d="M488 700v-63h13q120 0 188.5 -73t68.5 -214q0 -143 -68.5 -215t-190.5 -72h-11v-63h-182v63h-12q-121 0 -190 72.5t-69 214.5t69 214.5t190 72.5h12v63h182zM306 222v256h-11q-45 -3 -61.5 -30t-16.5 -98t16.5 -98t61.5 -29zM488 478v-256l11 1q44 2 61 29.5t17 97.5
q0 71 -16.5 98t-61.5 30h-11z" />
    <glyph glyph-name="uni0425" unicode="&#x425;" horiz-adv-x="680" 
d="M656 700l-190 -339l204 -361h-211l-119 222l-118 -222h-212l205 361l-190 339h210l105 -227l105 227h211z" />
    <glyph glyph-name="uni0426" unicode="&#x426;" horiz-adv-x="685" 
d="M579 700v-544h82v-300h-168v144h-444v700h182v-540h166v540h182z" />
    <glyph glyph-name="uni0427" unicode="&#x427;" horiz-adv-x="605" 
d="M25 701h183v-258q0 -28 16 -43.5t44 -15.5q58 0 105 9v307h182v-700h-182v234q-33 -7 -69 -9q-69 -6 -97 -6q-75 0 -129 51q-53 51 -53 124v307z" />
    <glyph glyph-name="uni0428" unicode="&#x428;" horiz-adv-x="938" 
d="M887 700v-700h-838v700h182v-540h146v540h182v-540h147v540h181z" />
    <glyph glyph-name="uni0429" unicode="&#x429;" horiz-adv-x="995" 
d="M887 700v-544h82v-300h-168v144h-752v700h182v-540h146v540h182v-540h147v540h181z" />
    <glyph glyph-name="uni042A" unicode="&#x42a;" horiz-adv-x="683" 
d="M326 700v-268h142q92 0 141.5 -54.5t49.5 -161.5t-49.5 -161.5t-141.5 -54.5h-324v544h-134v156h316zM423 273h-97v-114h97q54 0 54 57t-54 57z" />
    <glyph glyph-name="uni042B" unicode="&#x42b;" horiz-adv-x="887" 
d="M232 700v-268h142q92 0 141.5 -54.5t49.5 -161.5t-49.5 -161.5t-141.5 -54.5h-324v700h182zM837 700v-700h-181v700h181zM329 273h-97v-114h97q54 0 54 57t-54 57z" />
    <glyph glyph-name="uni042C" unicode="&#x42c;" horiz-adv-x="589" 
d="M232 700v-268h142q92 0 141.5 -54.5t49.5 -161.5t-49.5 -161.5t-141.5 -54.5h-324v700h182zM329 273h-97v-114h97q54 0 54 57t-54 57z" />
    <glyph glyph-name="uni042D" unicode="&#x42d;" horiz-adv-x="566" 
d="M264 712q116 0 189 -67q74 -68 74 -187v-216q0 -119 -74 -187q-73 -67 -189 -67q-92 0 -153.5 44t-85.5 122l131 59q11 -32 37.5 -49t59.5 -16q39 1 65.5 26t26.5 68v37h-167v141h167v38q0 43 -26.5 68t-65.5 26q-33 1 -59.5 -16t-37.5 -49l-131 58q24 79 85.5 123
t153.5 44z" />
    <glyph glyph-name="uni042E" unicode="&#x42e;" horiz-adv-x="885" 
d="M582 712q122 0 193 -71q70 -70 70 -183v-227q0 -65 -24.5 -114t-64.5 -76t-84.5 -40t-90.5 -13q-37 0 -72.5 7.5t-71 26t-62.5 45.5t-43.5 69.5t-16.5 94.5v39h-83v-270h-182v700h182v-271h83v29q0 121 73 187q73 67 194 67zM582 552q-45 0 -65 -21.5t-20 -72.5v-227
q0 -83 84 -83q41 0 61.5 19t20.5 64v227q0 50 -19.5 72t-61.5 22z" />
    <glyph glyph-name="uni042F" unicode="&#x42f;" horiz-adv-x="606" 
d="M557 700v-700h-182v230h-32l-123 -230h-210l153 258l-8 4q-111 62 -111 207q-3 93 66.5 162t184.5 69h262zM375 390v150h-78q-36 1 -57.5 -19.5t-21.5 -52.5q0 -78 80 -78h77z" />
    <glyph glyph-name="uni0430" unicode="&#x430;" horiz-adv-x="467" 
d="M223 510q106 1 162 -54t56 -153v-303h-131l-4 26q-44 -33 -111 -33q-73 0 -125 43q-51 44 -51 129q0 47 18 80t48 49t61.5 22.5t65.5 5.5q30 -2 55 -6q0 51 -47 56q-43 3 -97 -33l-86 79q71 90 186 92zM232 205q-54 0 -54 -40t49 -40q24 0 40 10v67q-21 3 -35 3z" />
    <glyph glyph-name="uni0431" unicode="&#x431;" horiz-adv-x="474" 
d="M404 700v-141q-112 -3 -159 -17q-83 -26 -90 -87q46 41 113 41q87 0 137 -59q49 -58 49 -148v-95q0 -38 -11 -72.5t-35 -65.5t-68 -49.5t-103 -18.5q-58 0 -102 18.5t-68.5 49t-36 65.5t-11.5 73v96q0 69 1 92q2 87 16 139q23 83 96 131q65 42 272 48zM238 357
q-27 0 -36 -14.5t-9 -53.5v-95q0 -67 45 -67q42 0 42 67v95q0 68 -42 68z" />
    <glyph glyph-name="uni0432" unicode="&#x432;" horiz-adv-x="471" 
d="M30 0v501h240q79 0 123 -40q46 -39 46 -95q0 -44 -18 -72t-37 -38l-6 -3q3 -1 8 -3.5t17.5 -12t22 -21t17.5 -31.5t8 -43q0 -67 -41.5 -104.5t-114.5 -37.5h-265zM203 370v-65h39q31 0 31 33q0 32 -31 32h-39zM203 198v-66h49q32 0 32 34q0 14 -8.5 23t-22.5 9h-50z" />
    <glyph glyph-name="uni0433" unicode="&#x433;" horiz-adv-x="394" 
d="M379 501v-132h-175v-369h-174v501h349z" />
    <glyph glyph-name="uni0434" unicode="&#x434;" horiz-adv-x="638" 
d="M539 501v-369h79v-240h-158v108h-283v-108h-158v242q47 0 70 14q25 15 25 49v304h425zM365 369h-77v-162q0 -42 -10 -75h87v237z" />
    <glyph glyph-name="uni0435" unicode="&#x435;" horiz-adv-x="457" 
d="M239 510q102 0 153 -54.5t51 -152.5v-118h-255v-7q0 -27 16.5 -41.5t42.5 -15.5q52 -2 79 30l97 -71q-55 -88 -184 -88q-59 0 -103.5 18t-68.5 49t-35.5 65.5t-11.5 73.5v105q0 97 56.5 152t162.5 55zM239 376q-27 0 -36 -14.5t-9 -53.5v-17h87v17q0 68 -42 68z" />
    <glyph glyph-name="uni0436" unicode="&#x436;" horiz-adv-x="863" 
d="M514 501v-236l134 236h187l-151 -232l159 -269h-191l-138 263v-263h-165v263l-138 -263h-191l159 269l-151 232h187l134 -236v236h165z" />
    <glyph glyph-name="uni0437" unicode="&#x437;" horiz-adv-x="478" 
d="M236 510q101 0 157.5 -36t56.5 -102q0 -68 -67 -107q75 -36 75 -114q0 -72 -60.5 -115.5t-160.5 -43.5q-193 0 -222 138l144 46q4 -20 24 -33t43 -13q58 0 58 35q0 36 -49 36h-34v107h30q45 0 45 34q0 30 -52 30q-48 0 -55 -46l-144 46q31 138 211 138z" />
    <glyph glyph-name="uni0438" unicode="&#x438;" horiz-adv-x="494" 
d="M465 501v-501h-164v191l-96 -191h-175v501h164v-188l97 188h174z" />
    <glyph glyph-name="uni0439" unicode="&#x439;" horiz-adv-x="494" 
d="M351 709h71q0 -69 -48.5 -111.5t-125.5 -42.5q-76 0 -125 42q-49 43 -49 112h71q9 -68 103 -68q95 0 103 68zM465 501v-501h-164v191l-96 -191h-175v501h164v-188l97 188h174z" />
    <glyph glyph-name="uni043A" unicode="&#x43a;" horiz-adv-x="544" 
d="M195 501v-236l134 236h187l-151 -232l159 -269h-191l-138 263v-263h-165v501h165z" />
    <glyph glyph-name="uni043B" unicode="&#x43b;" horiz-adv-x="569" 
d="M540 501v-501h-174v369h-77v-163q0 -124 -90 -178q-67 -41 -179 -41v147q44 0 67 12q28 15 28 51v304h425z" />
    <glyph glyph-name="uni043C" unicode="&#x43c;" horiz-adv-x="674" 
d="M645 501v-501h-164v191l-76 -191h-135l-76 191v-191h-164v501h174l133 -334l134 334h174z" />
    <glyph glyph-name="uni043D" unicode="&#x43d;" horiz-adv-x="494" 
d="M465 501v-501h-174v184h-87v-184h-174v501h174v-185h87v185h174z" />
    <glyph glyph-name="uni043E" unicode="&#x43e;" horiz-adv-x="474" 
d="M239 510q104 0 160 -55.5t56 -151.5v-105q0 -38 -11 -72.5t-35 -65.5t-67.5 -49.5t-102.5 -18.5t-103.5 18t-68.5 49t-35.5 65.5t-11.5 73.5v105q0 97 56.5 152t162.5 55zM239 371q-27 0 -36 -14.5t-9 -53.5v-105q0 -67 45 -67q42 0 42 67v105q0 68 -42 68z" />
    <glyph glyph-name="uni043F" unicode="&#x43f;" horiz-adv-x="494" 
d="M465 501v-501h-174v369h-87v-369h-174v501h435z" />
    <glyph glyph-name="uni0440" unicode="&#x440;" horiz-adv-x="489" 
d="M281 508q76 0 132.5 -46t56.5 -136v-149q0 -93 -52.5 -138.5t-125.5 -45.5q-44 0 -83 17v-209h-174v700h131l4 -26q44 33 111 33zM252 376q-24 0 -43 -6v-240q23 -6 47 -6q28 0 36 17q4 4 4 20v29v137v5q-3 29 -12 36q-10 8 -32 8z" />
    <glyph glyph-name="uni0441" unicode="&#x441;" horiz-adv-x="444" 
d="M239 510q159 0 191 -138l-145 -47q-7 46 -46 46q-27 0 -36 -14.5t-9 -53.5v-104q0 -39 9.5 -54t35.5 -15q39 0 46 46l145 -46q-32 -138 -191 -138q-106 0 -162.5 54.5t-56.5 152.5v104q0 97 56.5 152t162.5 55z" />
    <glyph glyph-name="uni0442" unicode="&#x442;" horiz-adv-x="485" 
d="M455 501v-132h-126v-369h-173v369h-126v132h425z" />
    <glyph glyph-name="uni0443" unicode="&#x443;" horiz-adv-x="489" 
d="M286 501h174v-484q0 -95 -54 -148q-53 -53 -134 -53q-96 0 -188 62l66 93q52 -30 85 -29q47 0 50 61l1 14q-39 -17 -84 -17q-71 0 -124 45.5t-53 138.5v317h174v-311v-13v-12.5t0.5 -10.5t1.5 -9t2.5 -7t4.5 -6.5t7 -4t10 -3t13 -0.5q26 0 48 6v371z" />
    <glyph glyph-name="uni0444" unicode="&#x444;" horiz-adv-x="695" 
d="M433 700v-199h11q128 0 179 -60t51 -194q0 -132 -43 -191q-46 -63 -184 -63h-14v-192h-173v192h-14q-137 0 -184 63q-43 59 -43 191t50 193q51 61 179 61h12v199h173zM433 363v-231h9q38 0 48 19t10 96q0 53 -5 76.5t-15.5 31t-36.5 8.5h-10zM260 132v231h-11
q-35 -2 -45.5 -22t-10.5 -94q0 -77 9.5 -96t46.5 -19h11z" />
    <glyph glyph-name="uni0445" unicode="&#x445;" horiz-adv-x="504" 
d="M493 501l-128 -251l135 -250h-185l-60 130l-63 -130h-187l143 251l-136 250h187l58 -139l50 139h186z" />
    <glyph glyph-name="uni0446" unicode="&#x446;" horiz-adv-x="563" 
d="M465 501v-369h79v-240h-158v108h-356v501h174v-369h87v369h174z" />
    <glyph glyph-name="uni0447" unicode="&#x447;" horiz-adv-x="514" 
d="M25 501h174v-162q0 -43 44 -43q25 0 68 6v199h174v-501h-174v153q-69 -11 -133 -11q-61 0 -107 40t-46 108v211z" />
    <glyph glyph-name="uni0448" unicode="&#x448;" horiz-adv-x="755" 
d="M726 501v-501h-696v501h174v-369h87v369h174v-369h87v369h174z" />
    <glyph glyph-name="uni0449" unicode="&#x449;" horiz-adv-x="824" 
d="M726 501v-369h79v-240h-158v108h-617v501h174v-369h87v369h174v-369h87v369h174z" />
    <glyph glyph-name="uni044A" unicode="&#x44a;" horiz-adv-x="560" 
d="M293 501v-147h64q80 0 132 -50q52 -49 52 -127q0 -77 -50 -127t-125 -50h-247v355h-104v146h278zM326 221h-33v-89h33q20 0 33.5 12.5t13.5 31.5q0 20 -13.5 32.5t-33.5 12.5z" />
    <glyph glyph-name="uni044B" unicode="&#x44b;" horiz-adv-x="714" 
d="M204 501v-147h63q81 0 132.5 -49.5t51.5 -127.5q0 -77 -50 -127t-124 -50h-247v501h174zM685 501v-501h-174v501h174zM236 221h-32v-89h32q22 0 34.5 12t12.5 32t-13 32.5t-34 12.5z" />
    <glyph glyph-name="uni044C" unicode="&#x44c;" horiz-adv-x="471" 
d="M204 501v-147h63q81 0 132.5 -49.5t51.5 -127.5q0 -77 -50 -127t-124 -50h-247v501h174zM236 221h-32v-89h32q22 0 34.5 12t12.5 32t-13 32.5t-34 12.5z" />
    <glyph glyph-name="uni044D" unicode="&#x44d;" horiz-adv-x="462" 
d="M214 510q106 0 162 -55t56 -152v-104q0 -97 -56 -152t-162 -55q-154 0 -189 129l144 46q10 -37 45 -37q24 0 34 13.5t10 46.5l1 9h-79v104h79l-1 11q0 31 -10 44t-34 13q-34 0 -45 -36l-144 46q35 129 189 129z" />
    <glyph glyph-name="uni044E" unicode="&#x44e;" horiz-adv-x="719" 
d="M484 509q104 1 160 -54.5t56 -152.5v-105q0 -37 -11 -71.5t-34.5 -65.5t-67.5 -49.5t-103 -18.5q-105 0 -158 53t-60 130v9h-62v-184h-174v501h174v-185h62v9q6 87 62 135.5t156 48.5zM484 371q-27 0 -36 -15t-9 -54v-105q0 -67 45 -67q42 0 42 67v105q0 69 -42 69z" />
    <glyph glyph-name="uni044F" unicode="&#x44f;" horiz-adv-x="506" 
d="M475 501v-501h-173v147h-34l-78 -147h-176l108 182l-8 6q-60 51 -60 136q0 77 50 127t124 50h247zM302 280v89h-33q-21 0 -34 -12.5t-13 -31.5q0 -20 13 -32.5t34 -12.5h33z" />
    <glyph glyph-name="uni0451" unicode="&#x451;" horiz-adv-x="457" 
d="M132 709q32 0 54 -22.5t22 -56.5q0 -33 -22 -56t-55 -23q-34 0 -57 23t-23 56q0 34 23 56.5t58 22.5zM354 709q32 0 54 -22.5t22 -56.5q0 -33 -22 -56t-55 -23q-34 0 -57 23t-23 56q0 34 23 56.5t58 22.5zM239 510q102 0 153 -54.5t51 -152.5v-118h-255v-7
q0 -27 16.5 -41.5t42.5 -15.5q52 -2 79 30l97 -71q-55 -88 -184 -88q-59 0 -103.5 18t-68.5 49t-35.5 65.5t-11.5 73.5v105q0 97 56.5 152t162.5 55zM239 376q-27 0 -36 -14.5t-9 -53.5v-17h87v17q0 68 -42 68z" />
    <glyph glyph-name="Wgrave" unicode="&#x1e80;" horiz-adv-x="901" 
d="M892 700l-143 -700h-237l-61 290l-61 -290h-237l-143 700h188l75 -490l91 490h174l91 -490l75 490h188zM448 903l63 -129h-112l-101 129h150z" />
    <glyph glyph-name="wgrave" unicode="&#x1e81;" horiz-adv-x="759" 
d="M755 501l-149 -501h-189l-37 173l-37 -173h-189l-149 501h182l62 -285l52 285h158l52 -285l62 285h182zM389 700l63 -129h-112l-101 129h150z" />
    <glyph glyph-name="Wacute" unicode="&#x1e82;" horiz-adv-x="901" 
d="M891 700l-143 -700h-237l-61 290l-61 -290h-237l-143 700h188l75 -490l91 490h174l91 -490l75 490h188zM610 897l-101 -129h-112l63 129h150z" />
    <glyph glyph-name="wacute" unicode="&#x1e83;" horiz-adv-x="759" 
d="M755 501l-149 -501h-189l-37 173l-37 -173h-189l-149 501h182l62 -285l52 285h158l52 -285l62 285h182zM537 700l-101 -129h-112l63 129h150z" />
    <glyph glyph-name="Wdieresis" unicode="&#x1e84;" horiz-adv-x="901" 
d="M347 908q32 0 54 -22.5t22 -56.5q0 -33 -22.5 -56t-55.5 -23t-56.5 23t-23.5 56q0 34 23.5 56.5t58.5 22.5zM569 908q32 0 54 -22.5t22 -56.5q0 -33 -22.5 -56t-54.5 -23q-34 0 -57 23t-23 56q0 34 23 56.5t58 22.5zM891 700l-143 -700h-237l-61 290l-61 -290h-237
l-143 700h188l75 -490l91 490h174l91 -490l75 490h188z" />
    <glyph glyph-name="wdieresis" unicode="&#x1e85;" horiz-adv-x="759" 
d="M276 709q33 0 54.5 -22.5t21.5 -56.5q0 -33 -22 -56t-54 -23q-34 0 -57 23t-23 56q0 34 23 56.5t57 22.5zM499 709q32 0 54 -22.5t22 -56.5q0 -33 -22.5 -56t-54.5 -23q-34 0 -57 23t-23 56q0 34 23 56.5t58 22.5zM755 501l-149 -501h-189l-37 173l-37 -173h-189
l-149 501h182l62 -285l52 285h158l52 -285l62 285h182z" />
    <glyph glyph-name="Ygrave" unicode="&#x1ef2;" horiz-adv-x="650" 
d="M641 700l-225 -423v-277h-182v276l-224 424h209l105 -256l106 256h211zM342 904l63 -129h-112l-101 129h150z" />
    <glyph glyph-name="ygrave" unicode="&#x1ef3;" horiz-adv-x="489" 
d="M286 501h174v-484q0 -95 -54 -148q-53 -53 -134 -53q-96 0 -188 62l66 93q52 -30 85 -29q46 0 50 58l1 17q-39 -17 -84 -17q-71 0 -124 45.5t-53 138.5v317h174v-311v-13v-12.5t0.5 -10.5t1.5 -9t2.5 -7t4.5 -6.5t7 -4t10 -3t13 -0.5q26 0 48 6v371zM287 700l63 -129
h-112l-101 129h150z" />
    <glyph glyph-name="endash" unicode="&#x2013;" horiz-adv-x="752" 
d="M703 370v-160h-653v160h653z" />
    <glyph glyph-name="emdash" unicode="&#x2014;" horiz-adv-x="921" 
d="M872 370v-160h-822v160h822z" />
    <glyph glyph-name="quoteleft" unicode="&#x2018;" horiz-adv-x="222" 
d="M124 833h114l-40 -129q32 -29 32 -71q0 -39 -28 -67t-67 -28t-67 28t-28 67q0 24 12 45z" />
    <glyph glyph-name="quoteright" unicode="&#x2019;" horiz-adv-x="268" 
d="M228 738q0 -23 -11 -45l-73 -155h-114l41 129q-33 29 -33 71q0 39 28 67t67 28t67 -28t28 -67z" />
    <glyph glyph-name="quotesinglbase" unicode="&#x201a;" horiz-adv-x="250" 
d="M219 84q0 -24 -12 -45l-72 -155h-114l40 129q-32 29 -32 71q0 39 28 67t67 28t67 -28t28 -67z" />
    <glyph glyph-name="quotedblleft" unicode="&#x201c;" horiz-adv-x="507" 
d="M124 833h114l-40 -129q32 -29 32 -71q0 -39 -28 -67t-67 -28t-67 28t-28 67q0 24 12 45zM364 833h114l-41 -129q32 -29 32 -71q0 -39 -28 -67t-67 -28t-67 28t-28 67q0 24 12 45z" />
    <glyph glyph-name="quotedblright" unicode="&#x201d;" horiz-adv-x="507" 
d="M228 738q0 -23 -11 -45l-73 -155h-114l41 129q-33 29 -33 71q0 39 28 67t67 28t67 -28t28 -67zM468 738q0 -24 -12 -45l-73 -155h-114l41 129q-32 29 -32 71q0 39 28 67t67 28t67 -28t28 -67z" />
    <glyph glyph-name="quotedblbase" unicode="&#x201e;" horiz-adv-x="489" 
d="M219 84q0 -24 -12 -45l-72 -155h-114l40 129q-32 29 -32 71q0 39 28 67t67 28t67 -28t28 -67zM458 84q0 -23 -11 -45l-73 -155h-114l41 129q-33 29 -33 71q0 39 28 67t67 28t67 -28t28 -67z" />
    <glyph glyph-name="dagger" unicode="&#x2020;" horiz-adv-x="558" 
d="M366 700v-250h142v-154h-142v-346h-174v346h-142v154h142v250h174z" />
    <glyph glyph-name="daggerdbl" unicode="&#x2021;" horiz-adv-x="558" 
d="M366 700v-144h142v-154h-142v-153h142v-154h-142v-145h-174v145h-142v154h142v153h-142v154h142v144h174z" />
    <glyph glyph-name="bullet" unicode="&#x2022;" horiz-adv-x="436" 
d="M98 449q48 48 115 48t115 -48q48 -47 48 -115t-48 -116q-49 -47 -115 -47t-115 47q-48 48 -48 116t48 115z" />
    <glyph glyph-name="ellipsis" unicode="&#x2026;" horiz-adv-x="815" 
d="M58 151q28 28 67 28t67 -28t28 -67t-28 -67t-67 -28t-67 28t-28 67t28 67zM340 151q28 28 67 28t67 -28t28 -67t-28 -67t-67 -28t-67 28t-28 67t28 67zM623 151q28 28 67 28t67 -28t28 -67t-28 -67t-67 -28t-67 28t-28 67t28 67z" />
    <glyph glyph-name="perthousand" unicode="&#x2030;" horiz-adv-x="1221" 
d="M213 717q70 0 121.5 -51.5t51.5 -120.5t-51 -120q-52 -50 -122 -53q-70 0 -122 50q-50 52 -50 123q0 69 50 121q51 51 122 51zM772 700l-529 -700h-175l529 700h175zM213 598q-22 0 -37.5 -16t-15.5 -37q0 -22 15.5 -38t37.5 -16t38 16t16 38q0 21 -16 37t-38 16z
M1010 328q69 0 120 -52q52 -51 52 -121t-51.5 -121t-120.5 -51q-72 0 -122.5 50.5t-50.5 121.5q0 70 51 121.5t122 51.5zM627 328q73 0 122 -51q51 -51 51 -122t-51 -122q-52 -50 -122 -50t-122 50q-50 52 -50 122t51 121.5t121 51.5zM1010 209q-23 0 -38.5 -16t-15.5 -38
t16 -37.5t38 -15.5q21 0 37 15.5t16 37.5t-16 38t-37 16zM627 209q-21 0 -37 -16t-16 -38t15.5 -37.5t37.5 -15.5t38 15.5t16 37.5t-16 38t-38 16z" />
    <glyph glyph-name="guilsinglleft" unicode="&#x2039;" horiz-adv-x="426" 
d="M271 499l106 -107l-124 -124l124 -124l-106 -107l-231 231z" />
    <glyph glyph-name="guilsinglright" unicode="&#x203a;" horiz-adv-x="426" 
d="M156 499l231 -231l-231 -231l-106 107l124 124l-124 124z" />
    <glyph glyph-name="fraction" unicode="&#x2044;" horiz-adv-x="475" 
d="M435 700l-243 -700h-152l243 700h152z" />
    <glyph glyph-name="Euro" unicode="&#x20ac;" horiz-adv-x="614" 
d="M350 713q92 0 153.5 -44t85.5 -122l-131 -58q-11 32 -37.5 49t-59.5 16q-38 -1 -64 -25.5t-28 -64.5v-4h123v-86h-123v-45h123v-86h-123v-5q2 -41 29 -64.5t63 -23.5q32 -2 59 15t38 49l131 -58q-24 -78 -85.5 -122t-153.5 -44q-113 0 -187 65q-75 65 -76 182v6h-73v86
h73v45h-73v86h73v9q4 116 77 180t186 64z" />
    <glyph glyph-name="trademark" unicode="&#x2122;" horiz-adv-x="807" 
d="M334 700v-107h-92v-310h-122v310h-90v107h304zM777 700v-417h-121v132l-34 -79h-86l-34 79v-132h-122v417h121l78 -181l77 181h121z" />
    <glyph glyph-name="oneeighth" unicode="&#x215b;" horiz-adv-x="926" 
d="M261 700v-421h-121v241q-9 -9 -30 -15q-28 -8 -51 -7l-30 122q34 -1 70 15q49 24 57 65h105zM654 700l-243 -700h-152l243 700h152zM891 302q0 -47 -44 -85q16 -11 30 -30q18 -24 18 -62q0 -62 -39.5 -96.5t-104.5 -34.5q-64 0 -103.5 34.5t-39.5 96.5q0 26 10 45
q12 26 38 47q-43 37 -43 85q0 57 40 91.5t99 34.5t99 -34.5t40 -91.5zM769 312q-17 16 -34 -1t0 -33t34 1t0 33zM752 104q12 0 20.5 8.5t8.5 20.5q0 19 -18 26.5t-32 -6.5q-13 -13 -5.5 -31t26.5 -18z" />
    <glyph glyph-name="threeeighths" unicode="&#x215c;" horiz-adv-x="890" 
d="M168 707q53 0 91.5 -34t38.5 -93q0 -37 -29 -69q52 -35 52 -100q0 -61 -45 -100q-44 -38 -108 -38q-91 0 -138 72l97 63q13 -20 39 -20q14 0 23 9.5t9 24.5q0 36 -30 36h-30v100h25q15 0 15 17q0 16 -14 16q-12 0 -17 -14l-110 43q15 38 52 62.5t79 24.5zM653 700
l-243 -700h-152l243 700h152zM856 302q0 -47 -44 -85q16 -11 30 -30q18 -24 18 -62q0 -62 -39.5 -96.5t-104.5 -34.5q-64 0 -103.5 34.5t-39.5 96.5q0 26 10 45q12 26 38 47q-43 37 -43 85q0 57 40 91.5t99 34.5t99 -34.5t40 -91.5zM734 312q-16 16 -33 -1t-1 -33t33 1t1 33
zM717 104q12 0 20.5 8.5t8.5 20.5q0 19 -18 26.5t-32 -6.5q-13 -13 -5.5 -31t26.5 -18z" />
    <glyph glyph-name="fiveeighths" unicode="&#x215d;" horiz-adv-x="890" 
d="M294 700v-112h-112l-3 -20h7q63 -2 102 -40.5t39 -100.5q0 -78 -48.5 -116t-113.5 -38q-42 0 -78 19t-58 53l97 63q5 -9 17 -16.5t22 -7.5q17 0 27 10.5t11 28.5q0 16 -11 25t-27 9h-108l31 243h206zM651 700l-243 -700h-152l243 700h152zM855 302q0 -47 -44 -85
q13 -11 21 -18q27 -27 27 -74q0 -62 -39.5 -96.5t-104.5 -34.5q-64 0 -103.5 34.5t-39.5 96.5q0 26 10 45q12 26 38 47q-43 37 -43 85q0 57 40 91.5t99 34.5t99 -34.5t40 -91.5zM733 312q-17 16 -34 -1t0 -33t34 1t0 33zM736 153q-12 13 -27.5 8t-19.5 -19.5t6 -29.5
q13 -12 29 -6t20 20t-8 27z" />
    <glyph glyph-name="seveneighths" unicode="&#x215e;" horiz-adv-x="820" 
d="M311 700l-2 -80l-157 -341h-123l143 310h-135v111h274zM571 700l-243 -700h-152l243 700h152zM785 302q0 -47 -44 -85q13 -11 21 -18q27 -27 27 -74q0 -62 -39.5 -96.5t-104.5 -34.5q-64 0 -103.5 34.5t-39.5 96.5q0 26 10 45q13 28 38 47q-43 37 -43 85q0 57 40 91.5
t99 34.5t99 -34.5t40 -91.5zM663 312q-17 16 -34 -1t0 -33t34 1t0 33zM646 104q12 0 20.5 8.5t8.5 20.5q0 19 -18 26.5t-32 -6.5q-13 -13 -5.5 -31t26.5 -18z" />
    <glyph glyph-name="partialdiff" unicode="&#x2202;" horiz-adv-x="833" 
 />
    <glyph glyph-name="product" unicode="&#x220f;" horiz-adv-x="833" 
 />
    <glyph glyph-name="summation" unicode="&#x2211;" horiz-adv-x="833" 
 />
    <glyph glyph-name="minus" unicode="&#x2212;" horiz-adv-x="558" 
d="M508 372v-154h-458v154h458z" />
    <glyph glyph-name="radical" unicode="&#x221a;" horiz-adv-x="833" 
 />
    <glyph glyph-name="infinity" unicode="&#x221e;" horiz-adv-x="833" 
 />
    <glyph glyph-name="integral" unicode="&#x222b;" horiz-adv-x="833" 
 />
    <glyph glyph-name="approxequal" unicode="&#x2248;" horiz-adv-x="533" 
d="M162 469q48 0 125 -27q52 -20 84 -20q18 0 39.5 11t32.5 28l80 -99q-25 -30 -70 -47q-47 -18 -82 -18q-49 0 -125 27q-52 20 -84 20q-18 0 -39.5 -11t-32.5 -28l-80 99q24 28 70 46q45 19 82 19zM162 262q48 0 125 -27q51 -21 84 -21q18 0 39.5 11.5t32.5 28.5l80 -99
q-24 -29 -70 -48q-47 -18 -82 -18q-49 0 -125 27q-51 21 -84 21q-16 0 -38 -11t-34 -29l-80 99q25 30 70 47q45 19 82 19z" />
    <glyph glyph-name="notequal" unicode="&#x2260;" horiz-adv-x="558" 
d="M470 596l-36 -102h73v-154h-126l-31 -90h157v-154h-211l-38 -111h-172l39 111h-76v154h129l31 90h-160v154h214l35 102h172z" />
    <glyph glyph-name="lessequal" unicode="&#x2264;" horiz-adv-x="502" 
d="M336 756l86 -87l-197 -197l197 -198l-86 -86l-284 284zM452 135v-134h-402v134h402z" />
    <glyph glyph-name="greaterequal" unicode="&#x2265;" horiz-adv-x="502" 
d="M167 756l284 -284l-284 -284l-87 86l197 198l-197 197zM452 135v-134h-402v134h402z" />
    <glyph glyph-name="lozenge" unicode="&#x25ca;" horiz-adv-x="833" 
 />
    <glyph glyph-name="uniF8FF" unicode="&#xf8ff;" horiz-adv-x="0" 
 />
    <glyph glyph-name="NULL" horiz-adv-x="0" 
 />
    <glyph glyph-name="CR" horiz-adv-x="333" 
 />
    <glyph glyph-name="a.ss01" horiz-adv-x="485" 
d="M454 501v-501h-131l-5 26q-42 -33 -111 -33q-76 0 -132 46t-56 136v149q0 90 50 137q50 45 125 47q66 0 124 -33l5 26h131zM232 377q-28 0 -37 -17q-2 -6 -2 -21v-28v-137v-5q0 -14 2 -22t12 -15t29 -7q24 0 44 6v240q-22 6 -48 6z" />
    <glyph glyph-name="e.ss01" horiz-adv-x="458" 
d="M239 510q105 0 160 -61q56 -62 44 -146q-6 -44 -34 -72.5t-65 -37.5t-79 -11t-77 7v-11q0 -27 16.5 -41.5t42.5 -15.5q52 -2 79 30l97 -71q-55 -88 -184 -88q-59 0 -103.5 18t-68.5 49t-35.5 65.5t-11.5 73.5v105q0 97 56.5 152t162.5 55zM242 375q-50 0 -50 -46v-25
q16 -8 36.5 -11.5t40.5 5t21 32.5q2 21 -11 33t-37 12z" />
    <glyph glyph-name="uni00540068" horiz-adv-x="996" 
d="M15 700h696v-209q39 17 83 17q73 0 125.5 -45.5t52.5 -138.5v-324h-174v311v28q0 17 -4 21q-8 17 -36 17q-24 0 -47 -6v-371h-174v540h-184v-540h-182v540h-156v160z" />
    <glyph glyph-name="uni00630068" horiz-adv-x="939" 
d="M471 724q114 0 182 -91v-142q39 17 84 17q72 0 124.5 -45.5t52.5 -138.5v-324h-174v311v28q0 18 -3 21q-8 17 -36 17q-25 0 -48 -6v-371h-173v586q-39 0 -64 -19q-35 -26 -35 -71q0 -26 22 -64q23 -38 27 -60l-145 -47q-7 46 -46 46q-27 0 -36 -14.5t-9 -53.5v-104
q0 -39 9.5 -54t35.5 -15q39 0 46 46l145 -46q-32 -138 -191 -138q-106 0 -162.5 54.5t-56.5 152.5v104q0 156 136 195q48 14 102 11q-25 66 52 148q63 67 161 67z" />
    <glyph glyph-name="uni00630074" horiz-adv-x="760" 
d="M466 724q68 0 112 -25q15 -7 35 -25q16 -15 21 -22q2 -2 6.5 -8.5t7.5 -10.5v-132h85v-138h-85v-164q0 -24 4 -44q6 -20 28 -25q21 -6 60 0v-136q-39 -8 -71 -6q-82 2 -138 44t-56 135v419q-42 2 -70.5 -24.5t-28.5 -65.5q0 -19 22.5 -59.5t26.5 -64.5l-145 -46
q-7 46 -46 46q-26 0 -35.5 -15t-9.5 -54v-103q0 -40 9 -54.5t36 -14.5q39 0 46 46l145 -47q-32 -137 -191 -137q-106 0 -162.5 54.5t-56.5 152.5v103q0 179 177 203q25 4 61 4q-25 67 52 147q63 67 161 67z" />
    <glyph glyph-name="uni00660062" horiz-adv-x="795" 
d="M252 713q91 0 166 -25q57 -18 85 -38l11 -7v-152q39 17 83 17q72 0 124.5 -45.5t52.5 -138.5v-149q0 -90 -56 -136t-132 -46q-69 0 -111 33l-5 -26h-130v561q-40 12 -77 12q-35 0 -47.5 -14.5t-12.5 -45.5v-12h85v-130h-85v-371h-174v534q0 94 61.5 136.5t161.5 42.5z
M561 377q-25 0 -47 -6v-240q20 -6 43 -6q17 0 34 10q9 10 9 33l1 6v137v28q0 17 -4 21q-8 17 -36 17z" />
    <glyph glyph-name="uni00660068" horiz-adv-x="800" 
d="M253 713q91 0 166 -25q57 -18 85 -38l11 -7v-152q39 17 83 17q72 0 124.5 -45.5t52.5 -138.5v-324h-173v311v28q0 17 -4 21q-8 17 -36 17q-24 0 -47 -6v-371h-174v561q-40 12 -77 12q-35 0 -47.5 -14.5t-12.5 -44.5v-13h85v-130h-85v-371h-174v534q0 94 61.5 136.5
t161.5 42.5z" />
    <glyph glyph-name="uni00660069" horiz-adv-x="544" 
d="M253 713q99 0 182 -31v-121q-54 12 -141 12q-56 0 -73 -15q-15 -14 -17 -47v-10h311v-501h-174v371h-137v-371h-174v534q0 94 61.5 136.5t161.5 42.5z" />
    <glyph glyph-name="uni0066006A" horiz-adv-x="544" 
d="M253 713q98 0 182 -30v-122q-54 12 -141 12q-50 0 -69 -13t-21 -42v-17h311v-503q0 -92 -56.5 -134.5t-138.5 -44.5q-24 0 -48 3v137q19 -1 38 2q22 6 27 26q4 15 4 44v340h-137v-371h-174v534q0 94 61.5 136.5t161.5 42.5z" />
    <glyph glyph-name="uni0066006B" horiz-adv-x="849" 
d="M258 713q94 0 162 -23t94 -44l6 -3v-264l84 128h203l-167 -221l205 -286h-192l-111 168l-22 -28v-140h-174v561q-41 12 -77 12q-34 0 -47 -14t-13 -44v-14h85v-130h-85v-371h-174v534q0 94 61.5 136.5t161.5 42.5z" />
    <glyph glyph-name="uni0066006C" horiz-adv-x="544" 
d="M253 713q91 0 166 -25q57 -18 85 -38l11 -7v-643h-174v561q-40 12 -77 12t-48.5 -15.5t-11.5 -43.5v-13h85v-130h-85v-371h-174v534q0 94 61.5 136.5t161.5 42.5z" />
    <glyph glyph-name="uni00730070" horiz-adv-x="923" 
d="M401 706q84 0 144 -59.5t60 -143.5v-26q40 31 109 31q76 0 132 -46t56 -136v-149q0 -93 -52.5 -138.5t-124.5 -45.5q-46 0 -83 17v-209h-174v702q0 27 -20 46t-47 19t-46 -19t-19 -46q0 -13 4 -22q66 -41 66 -133h-166q0 23 -28 23q-12 0 -19.5 -7t-6.5 -16q0 -9 2.5 -14
t16 -11t39.5 -10q89 -15 129.5 -51.5t40.5 -107.5q0 -68 -45 -115t-147 -47t-157 42t-55 120h169q4 -23 26 -25q31 -1 33 23q1 22 -22 29l-39 8q-72 12 -113 41q-48 34 -48 119q0 137 145 158q24 3 57 3q-8 29 0 61q14 59 64 96q51 39 119 39zM685 376q-23 0 -43 -6v-240
q22 -6 47 -6q27 0 36 17q4 4 4 20v29v137q0 3 -1 5q0 14 -1.5 21.5t-11.5 15t-30 7.5z" />
    <glyph glyph-name="s_t" horiz-adv-x="750" 
d="M456 725q34 0 65.5 -9.5t52 -23t35.5 -27t22.5 -23t6.5 -9.5v-132h85v-138h-85v-163q0 -29 4 -44q5 -19 27 -26q22 -5 61 1v-137q-40 -7 -71 -6q-81 2 -138 44.5t-57 134.5v420q-29 2 -53 -12q-45 -26 -45 -78q0 -24 10 -37q41 -47 41 -112h-166q0 23 -28 23
q-12 0 -19.5 -7t-6.5 -16q0 -13 10 -21t48 -14q89 -15 129.5 -51.5t40.5 -107.5q0 -68 -45 -115t-147 -47t-157 42t-55 120h169q4 -23 26 -25q31 -1 33 23q1 22 -22 29l-39 8q-72 12 -113 41q-48 34 -48 119q0 127 125 154q29 7 90 7q-23 69 53 148q63 67 161 67z" />
    <glyph glyph-name="zero.lf" horiz-adv-x="563" 
d="M283 713q113 0 176 -64q64 -64 64 -167v-271q0 -59 -22 -103.5t-58 -69t-77 -36.5t-84 -12q-42 0 -82.5 12t-77.5 36.5t-59.5 69t-22.5 103.5v272q0 109 67 169q67 61 176 61zM283 554q-37 0 -53 -17t-16 -59v-261q0 -67 68 -67q33 0 50 15t17 52v260q0 41 -16 59t-50 18
z" />
    <glyph glyph-name="one.lf" horiz-adv-x="413" 
d="M363 700v-700h-163v448q-18 -21 -48 -31q-34 -12 -91 -15l-41 165q72 4 128 41q59 39 74 92h141z" />
    <glyph glyph-name="two.lf" horiz-adv-x="532" 
d="M276 712q101 0 165.5 -64.5t64.5 -160.5q0 -109 -77 -188l-136 -143h213v-156h-473v115l234 257q65 76 65 122q0 26 -16 42t-40 16q-35 0 -51 -18t-31 -70l-170 47q36 105 97 153t155 48z" />
    <glyph glyph-name="three.lf" horiz-adv-x="524" 
d="M250 713q96 0 164 -57t68 -154q0 -80 -73 -141q28 -23 49 -51q31 -37 31 -102q0 -106 -68 -163q-68 -56 -171 -56q-95 0 -154 46q-51 39 -71 72l134 86q13 -19 37.5 -31.5t53.5 -12.5q26 0 45 18.5t19 44.5q0 28 -24 49.5t-58 21.5h-38v144h38q35 0 57 20t22 47
q0 25 -17.5 42.5t-43.5 17.5q-19 0 -34.5 -10.5t-19.5 -22.5l-4 -10l-153 62q19 41 64 85q60 55 147 55z" />
    <glyph glyph-name="four.lf" horiz-adv-x="543" 
d="M462 700v-401h46v-151h-46v-148h-174v148h-263v151l252 401h185zM288 441l-93 -142h93v142z" />
    <glyph glyph-name="five.lf" horiz-adv-x="543" 
d="M455 701v-161h-197l-8 -66h20q39 -2 79.5 -16t78 -40.5t61 -72.5t23.5 -105q0 -119 -75 -185q-73 -66 -188 -66q-88 0 -151 46q-47 35 -71 72l134 86q11 -18 37.5 -31t50.5 -13q40 0 64 22.5t25 60.5q0 36 -25 59.5t-64 23.5h-165l48 386h323z" />
    <glyph glyph-name="six.lf" horiz-adv-x="599" 
d="M321 712q50 0 98 -19q67 -25 111 -65l-104 -119q-51 44 -110 44q-47 0 -75 -27t-28 -67v-11q48 24 97 24q104 0 171 -70q69 -69 69 -171t-73 -172q-71 -70 -177 -70q-103 -2 -177.5 70t-72.5 172v216q0 120 77 192q77 73 194 73zM300 312q-38 0 -57 -22.5t-19 -58.5
q0 -37 20 -59.5t56 -22.5q37 0 56.5 22.5t19.5 59.5t-19.5 59t-56.5 22z" />
    <glyph glyph-name="seven.lf" horiz-adv-x="501" 
d="M466 700v-110l-272 -590h-169l250 540h-249v160h440z" />
    <glyph glyph-name="eight.lf" horiz-adv-x="548" 
d="M506 502q0 -80 -73 -141q19 -15 34 -30q12 -12 29 -48t17 -75q0 -106 -68 -163q-68 -56 -171 -56q-104 0 -172 56q-67 57 -67 163q0 42 16 75q17 35 30 48q15 15 34 30q-73 61 -73 141q0 97 68 154t164 57t164 -57t68 -154zM316 536q-17 18 -42 18t-43 -18
q-17 -17 -17 -42t17 -43q18 -17 43 -17t42 17q18 18 18 43t-18 42zM318 256q-18 19 -44 19t-45 -19q-18 -18 -18 -44t18 -45q19 -18 45 -18t44 18q19 19 19 45t-19 44z" />
    <glyph glyph-name="nine.lf" horiz-adv-x="599" 
d="M549 471v-216q0 -120 -78 -193q-77 -73 -193 -73q-50 0 -99 18q-63 24 -111 66l105 119q49 -43 110 -43q46 0 74.5 26.5t28.5 66.5v12q-47 -25 -97 -25q-103 0 -172 70q-68 71 -68 172t72 171q71 70 177 70q107 0 178 -70q73 -70 73 -171zM299 552q-38 0 -57 -22t-19 -59
q0 -38 19.5 -60t56.5 -22t56.5 22.5t19.5 59.5t-20 59t-56 22z" />
    <glyph glyph-name="zero.osf" horiz-adv-x="563" 
d="M283 510q113 0 176 -64q64 -64 64 -168v-67q0 -59 -22 -103.5t-58 -69t-77 -36.5t-84 -12q-42 0 -82.5 12t-77.5 36.5t-59.5 69t-22.5 103.5v68q0 110 67 170q67 61 176 61zM283 350q-37 0 -53 -16.5t-16 -59.5v-57q0 -67 68 -67q33 0 50 15t17 52v56q0 41 -16 59t-50 18
z" />
    <glyph glyph-name="one.osf" horiz-adv-x="454" 
d="M330 501v-351h98v-150h-375v150h120v123q-16 -13 -43 -22q-29 -8 -66 -11l-35 142q55 6 99 33q58 34 73 86h129z" />
    <glyph glyph-name="two.osf" horiz-adv-x="525" 
d="M269 509q94 0 162 -49t68 -142q0 -57 -30.5 -91t-99.5 -66l-24 -11h153v-150h-472v113l159 75q140 68 140 123q0 53 -62 45q-48 -4 -70 -65l-169 45q69 173 245 173z" />
    <glyph glyph-name="three.osf" horiz-adv-x="524" 
d="M250 510q96 0 164 -57t68 -154q0 -80 -73 -141q28 -23 49 -51q31 -37 31 -102q0 -106 -68 -162q-67 -57 -171 -57q-95 0 -154 46q-49 38 -71 72l134 87q12 -19 38 -32t53 -13q26 0 45 19t19 44q0 27 -23.5 49t-58.5 22h-38v144h38q34 0 56.5 20.5t22.5 46.5t-17.5 43.5
t-43.5 17.5q-19 0 -34.5 -10.5t-19.5 -22.5l-4 -11l-153 62q19 41 64 85q60 55 147 55z" />
    <glyph glyph-name="four.osf" horiz-adv-x="543" 
d="M462 500v-401h46v-151h-46v-148h-174v148h-263v151l252 401h185zM288 241l-93 -142h93v142z" />
    <glyph glyph-name="five.osf" horiz-adv-x="543" 
d="M455 501v-161h-197l-8 -66h20q40 -2 79.5 -16t77.5 -40.5t61.5 -72.5t23.5 -105q0 -119 -74.5 -185t-188.5 -66q-89 0 -151 47q-48 36 -71 71l134 87q10 -18 37 -31.5t51 -13.5q39 0 63.5 23t25.5 60q-1 37 -25.5 60t-63.5 23h-165l48 386h323z" />
    <glyph glyph-name="six.osf" horiz-adv-x="600" 
d="M321 712q50 0 98 -19q67 -25 111 -65l-104 -119q-51 44 -110 44q-47 0 -75 -27t-28 -67v-11q48 24 97 24q104 0 171 -70q69 -69 69 -171t-73 -172q-71 -70 -177 -70q-103 -2 -177.5 70t-72.5 172v216q0 120 77 192q77 73 194 73zM300 312q-38 0 -57 -22.5t-19 -58.5
q0 -37 20 -59.5t56 -22.5q37 0 56.5 22.5t19.5 59.5t-19.5 59t-56.5 22z" />
    <glyph glyph-name="seven.osf" horiz-adv-x="501" 
d="M466 501v-110l-272 -590h-169l250 540h-249v160h440z" />
    <glyph glyph-name="eight.osf" horiz-adv-x="548" 
d="M506 502q0 -80 -73 -141q19 -15 34 -30q12 -12 29 -48t17 -75q0 -106 -68 -163q-68 -56 -171 -56q-104 0 -172 56q-67 57 -67 163q0 42 16 75q17 35 30 48q15 15 34 30q-73 61 -73 141q0 97 68 154t164 57t164 -57t68 -154zM316 536q-17 18 -42 18t-43 -18
q-17 -17 -17 -42t17 -43q18 -17 43 -17t42 17q18 18 18 43t-18 42zM318 256q-18 19 -44 19t-45 -19q-18 -18 -18 -44t18 -45q19 -18 45 -18t44 18q19 19 19 45t-19 44z" />
    <glyph glyph-name="nine.osf" horiz-adv-x="600" 
d="M549 268v-216q0 -120 -78 -193q-77 -73 -193 -73q-77 0 -140 36q-46 26 -70 48l105 119q49 -43 110 -43q46 0 74.5 26.5t28.5 66.5v12q-47 -25 -97 -25q-103 0 -172 70q-68 71 -68 172q0 102 72 172q71 70 177 70q107 0 178 -70q73 -70 73 -172zM299 350q-36 0 -56 -22.5
t-20 -59.5q0 -38 19.5 -60t56.5 -22t56.5 22.5t19.5 59.5t-20 59.5t-56 22.5z" />
    <glyph glyph-name="zero.tf" horiz-adv-x="563" 
d="M283 713q113 0 176 -64q64 -64 64 -167v-271q0 -59 -22 -103.5t-58 -69t-77 -36.5t-84 -12q-42 0 -82.5 12t-77.5 36.5t-59.5 69t-22.5 103.5v272q0 109 67 169q67 61 176 61zM283 554q-37 0 -53 -17t-16 -59v-261q0 -67 68 -67q33 0 50 15t17 52v260q0 41 -16 59t-50 18
z" />
    <glyph glyph-name="one.tf" horiz-adv-x="513" 
d="M362 700v-544h120v-156h-422v156h139v292q-33 -40 -139 -46l-41 165q66 4 120 37q65 39 82 96h141z" />
    <glyph glyph-name="two.tf" horiz-adv-x="532" 
d="M276 712q101 0 165.5 -64.5t64.5 -160.5q0 -109 -77 -188l-136 -143h213v-156h-473v115l234 257q65 76 65 122q0 26 -16 42t-40 16q-35 0 -51 -18t-31 -70l-170 47q36 105 97 153t155 48z" />
    <glyph glyph-name="three.tf" horiz-adv-x="524" 
d="M250 713q96 0 164 -57t68 -154q0 -80 -73 -141q28 -23 49 -51q31 -37 31 -102q0 -106 -68 -163q-68 -56 -171 -56q-95 0 -154 46q-51 39 -71 72l134 86q13 -19 37.5 -31.5t53.5 -12.5q26 0 45 18.5t19 44.5q0 28 -24 49.5t-58 21.5h-38v144h38q35 0 57 20t22 47
q0 25 -17.5 42.5t-43.5 17.5q-19 0 -34.5 -10.5t-19.5 -22.5l-4 -10l-153 62q19 41 64 85q60 55 147 55z" />
    <glyph glyph-name="four.tf" horiz-adv-x="543" 
d="M462 700v-401h46v-151h-46v-148h-174v148h-263v151l252 401h185zM288 441l-93 -142h93v142z" />
    <glyph glyph-name="five.tf" horiz-adv-x="543" 
d="M455 701v-161h-197l-8 -66h20q39 -2 79.5 -16t78 -40.5t61 -72.5t23.5 -105q0 -119 -75 -185q-73 -66 -188 -66q-88 0 -151 46q-47 35 -71 72l134 86q11 -18 37.5 -31t50.5 -13q40 0 64 22.5t25 60.5q0 36 -25 59.5t-64 23.5h-165l48 386h323z" />
    <glyph glyph-name="six.tf" horiz-adv-x="599" 
d="M321 712q50 0 98 -19q67 -25 111 -65l-104 -119q-51 44 -110 44q-47 0 -75 -27t-28 -67v-11q48 24 97 24q104 0 171 -70q69 -69 69 -171t-73 -172q-71 -70 -177 -70q-103 -2 -177.5 70t-72.5 172v216q0 120 77 192q77 73 194 73zM300 312q-38 0 -57 -22.5t-19 -58.5
q0 -37 20 -59.5t56 -22.5q37 0 56.5 22.5t19.5 59.5t-19.5 59t-56.5 22z" />
    <glyph glyph-name="seven.tf" horiz-adv-x="501" 
d="M466 700v-110l-272 -590h-169l250 540h-249v160h440z" />
    <glyph glyph-name="eight.tf" horiz-adv-x="548" 
d="M506 502q0 -80 -73 -141q19 -15 34 -30q12 -12 29 -48t17 -75q0 -106 -68 -163q-68 -56 -171 -56q-104 0 -172 56q-67 57 -67 163q0 42 16 75q17 35 30 48q15 15 34 30q-73 61 -73 141q0 97 68 154t164 57t164 -57t68 -154zM316 536q-17 18 -42 18t-43 -18
q-17 -17 -17 -42t17 -43q18 -17 43 -17t42 17q18 18 18 43t-18 42zM318 256q-18 19 -44 19t-45 -19q-18 -18 -18 -44t18 -45q19 -18 45 -18t44 18q19 19 19 45t-19 44z" />
    <glyph glyph-name="nine.tf" horiz-adv-x="599" 
d="M549 471v-216q0 -120 -78 -193q-77 -73 -193 -73q-50 0 -99 18q-63 24 -111 66l105 119q49 -43 110 -43q46 0 74.5 26.5t28.5 66.5v12q-47 -25 -97 -25q-103 0 -172 70q-68 71 -68 172t72 171q71 70 177 70q107 0 178 -70q73 -70 73 -171zM299 552q-38 0 -57 -22t-19 -59
q0 -38 19.5 -60t56.5 -22t56.5 22.5t19.5 59.5t-20 59t-56 22z" />
    <glyph glyph-name="zero.tosf" horiz-adv-x="563" 
d="M283 510q113 0 176 -64q64 -64 64 -168v-67q0 -59 -22 -103.5t-58 -69t-77 -36.5t-84 -12q-42 0 -82.5 12t-77.5 36.5t-59.5 69t-22.5 103.5v68q0 110 67 170q67 61 176 61zM283 350q-37 0 -53 -16.5t-16 -59.5v-57q0 -67 68 -67q33 0 50 15t17 52v56q0 41 -16 59t-50 18
z" />
    <glyph glyph-name="one.tosf" horiz-adv-x="459" 
d="M331 501v-351h98v-150h-375v150h120v123q-14 -13 -42 -22q-31 -8 -67 -11l-35 142q51 4 97 31q60 36 75 88h129z" />
    <glyph glyph-name="two.tosf" horiz-adv-x="600" 
d="M269 509q94 0 162 -49t68 -142q0 -57 -30.5 -91t-99.5 -66l-24 -11h153v-150h-472v113l159 75q140 68 140 123q0 53 -62 45q-48 -4 -70 -65l-169 45q69 173 245 173z" />
    <glyph glyph-name="three.tosf" horiz-adv-x="524" 
d="M250 510q96 0 164 -57t68 -154q0 -80 -73 -141q28 -23 49 -51q31 -37 31 -102q0 -106 -68 -162q-67 -57 -171 -57q-95 0 -154 46q-49 38 -71 72l134 87q12 -19 38 -32t53 -13q26 0 45 19t19 44q0 27 -23.5 49t-58.5 22h-38v144h38q34 0 56.5 20.5t22.5 46.5t-17.5 43.5
t-43.5 17.5q-19 0 -34.5 -10.5t-19.5 -22.5l-4 -11l-153 62q19 41 64 85q60 55 147 55z" />
    <glyph glyph-name="four.tosf" horiz-adv-x="543" 
d="M462 500v-401h46v-151h-46v-148h-174v148h-263v151l252 401h185zM288 241l-93 -142h93v142z" />
    <glyph glyph-name="five.tosf" horiz-adv-x="543" 
d="M455 501v-161h-197l-8 -66h20q40 -2 79.5 -16t77.5 -40.5t61.5 -72.5t23.5 -105q0 -119 -74.5 -185t-188.5 -66q-89 0 -151 47q-48 36 -71 71l134 87q10 -18 37 -31.5t51 -13.5q39 0 63.5 23t25.5 60q-1 37 -25.5 60t-63.5 23h-165l48 386h323z" />
    <glyph glyph-name="six.tosf" horiz-adv-x="600" 
d="M321 712q50 0 98 -19q67 -25 111 -65l-104 -119q-51 44 -110 44q-47 0 -75 -27t-28 -67v-11q48 24 97 24q104 0 171 -70q69 -69 69 -171t-73 -172q-71 -70 -177 -70q-103 -2 -177.5 70t-72.5 172v216q0 120 77 192q77 73 194 73zM300 312q-38 0 -57 -22.5t-19 -58.5
q0 -37 20 -59.5t56 -22.5q37 0 56.5 22.5t19.5 59.5t-19.5 59t-56.5 22z" />
    <glyph glyph-name="seven.tosf" horiz-adv-x="501" 
d="M466 501v-110l-272 -590h-169l250 540h-249v160h440z" />
    <glyph glyph-name="eight.tosf" horiz-adv-x="548" 
d="M506 502q0 -80 -73 -141q19 -15 34 -30q12 -12 29 -48t17 -75q0 -106 -68 -163q-68 -56 -171 -56q-104 0 -172 56q-67 57 -67 163q0 42 16 75q17 35 30 48q15 15 34 30q-73 61 -73 141q0 97 68 154t164 57t164 -57t68 -154zM316 536q-17 18 -42 18t-43 -18
q-17 -17 -17 -42t17 -43q18 -17 43 -17t42 17q18 18 18 43t-18 42zM318 256q-18 19 -44 19t-45 -19q-18 -18 -18 -44t18 -45q19 -18 45 -18t44 18q19 19 19 45t-19 44z" />
    <glyph glyph-name="nine.tosf" horiz-adv-x="600" 
d="M549 268v-216q0 -120 -78 -193q-77 -73 -193 -73q-77 0 -140 36q-46 26 -70 48l105 119q49 -43 110 -43q46 0 74.5 26.5t28.5 66.5v12q-47 -25 -97 -25q-103 0 -172 70q-68 71 -68 172q0 102 72 172q71 70 177 70q107 0 178 -70q73 -70 73 -172zM299 350q-36 0 -56 -22.5
t-20 -59.5q0 -38 19.5 -60t56.5 -22t56.5 22.5t19.5 59.5t-20 59.5t-56 22.5z" />
    <glyph glyph-name="zero.dnom" horiz-adv-x="367" 
d="M185 428q77 0 114.5 -44t37.5 -104v-139q0 -59 -39 -103q-38 -44 -115 -44t-115 44t-38 104v139q0 59 38 103q39 44 117 44zM184 317q-26 0 -26 -30v-151q0 -31 25 -31q26 0 26 30v151q0 31 -25 31z" />
    <glyph glyph-name="one.dnom" horiz-adv-x="282" 
d="M252 421v-421h-121v241q-11 -9 -30 -15q-28 -8 -51 -7l-30 122q38 -2 72 17q48 23 55 63h105z" />
    <glyph glyph-name="two.dnom" horiz-adv-x="356" 
d="M183 427q63 0 102.5 -40t39.5 -99q0 -66 -47 -115l-66 -64h113v-109h-291v81l135 149q36 40 36 62q0 24 -22 24q-14 0 -20.5 -8t-14.5 -36l-119 34q21 63 57.5 92t96.5 29z" />
    <glyph glyph-name="three.dnom" horiz-adv-x="356" 
d="M173 428q53 0 91 -34q39 -35 39 -92q0 -38 -29 -70q52 -35 52 -100q0 -61 -45 -100q-44 -38 -108 -38q-91 0 -138 72l97 63q15 -19 39 -19q14 0 23 9t9 24q0 37 -30 37h-30v99h25q15 0 15 18q0 6 -4 11t-10 5q-12 0 -17 -15l-110 43q15 38 52 62.5t79 24.5z" />
    <glyph glyph-name="four.dnom" horiz-adv-x="358" 
d="M302 421v-227h26v-110h-26v-84h-123v84h-149v101l148 236h124zM185 264l-37 -70h37v70z" />
    <glyph glyph-name="five.dnom" horiz-adv-x="357" 
d="M294 421v-111h-112l-3 -21h6q63 0 102.5 -39t39.5 -102q0 -78 -48.5 -116t-113.5 -38q-42 0 -78 19t-58 53l97 63q4 -8 16.5 -15.5t22.5 -7.5q36 0 38 38q-1 34 -38 34h-108l31 243h206z" />
    <glyph glyph-name="six.dnom" horiz-adv-x="367" 
d="M196 428q72 0 127 -51l-73 -82q-25 22 -57 22q-17 0 -31 -11t-16 -24l-1 -6q26 8 44 8q61 0 105 -41t44 -100q0 -63 -45 -106q-44 -43 -110 -43q-65 0 -109 43q-44 44 -44 106v122q0 70 47 117q46 46 119 46zM214 139q0 34 -31 34q-30 0 -30 -34t30 -34q31 0 31 34z" />
    <glyph glyph-name="seven.dnom" horiz-adv-x="341" 
d="M311 421l-2 -80l-157 -341h-123l143 309h-135v112h274z" />
    <glyph glyph-name="eight.dnom" horiz-adv-x="346" 
d="M313 302q0 -47 -44 -85q15 -11 29 -30q19 -25 19 -62q0 -62 -39.5 -96.5t-104.5 -34.5q-64 0 -103.5 34.5t-39.5 96.5q0 26 10 45q13 28 38 47q-44 38 -44 85q0 56 40 91t99 35t99.5 -35t40.5 -91zM190 312q-16 16 -33 -1t-1 -33t33 1t1 33zM193 153q-12 13 -27.5 8
t-19.5 -19.5t6 -29.5q13 -12 29 -6t20 20t-8 27z" />
    <glyph glyph-name="nine.dnom" horiz-adv-x="367" 
d="M183 428q65 0 109 -43q45 -43 45 -106v-122q0 -71 -48 -117q-46 -46 -118 -46q-71 0 -127 51l73 82q25 -22 57 -22q16 0 30.5 11t16.5 25v5q-24 -8 -44 -8q-60 0 -104 41t-44 100q0 63 44.5 106t109.5 43zM213 283q0 34 -31 34q-30 0 -30 -34t30 -34q31 0 31 34z" />
    <glyph glyph-name="zero.numr" horiz-adv-x="367" 
d="M185 706q77 0 114.5 -44t37.5 -103v-139q0 -60 -39 -104q-38 -44 -115 -44t-115 44.5t-38 103.5v139q0 64 40 105.5t115 41.5zM184 595q-26 0 -26 -30v-151q0 -30 25 -30q26 0 26 30v151q0 30 -25 30z" />
    <glyph glyph-name="one.numr" horiz-adv-x="282" 
d="M252 700v-421h-121v241q-11 -9 -30 -15q-28 -8 -51 -7l-30 122q42 -2 78 20q42 23 49 60h105z" />
    <glyph glyph-name="two.numr" horiz-adv-x="356" 
d="M183 706q63 0 102.5 -39t39.5 -99q0 -67 -47 -116l-66 -63h113v-110h-291v81l135 150q36 40 36 61q0 24 -22 24q-14 0 -20.5 -8t-14.5 -36l-119 34q21 63 57.5 92t96.5 29z" />
    <glyph glyph-name="three.numr" horiz-adv-x="356" 
d="M173 707q53 0 91.5 -34t38.5 -93q0 -37 -29 -69q52 -36 52 -100q0 -61 -45 -100q-44 -38 -108 -38q-91 0 -138 72l97 63q13 -20 39 -20q14 0 23 9.5t9 24.5q0 36 -30 36h-30v100h25q15 0 15 17q0 16 -14 16q-12 0 -17 -14l-110 43q15 38 52 62.5t79 24.5z" />
    <glyph glyph-name="four.numr" horiz-adv-x="358" 
d="M302 700v-226h26v-111h-26v-84h-123v84h-149v102l148 235h124zM185 543l-37 -69h37v69z" />
    <glyph glyph-name="five.numr" horiz-adv-x="357" 
d="M294 700v-112h-112l-3 -20h6q63 0 102.5 -39t39.5 -102q0 -78 -48.5 -116t-113.5 -38q-42 0 -78 19t-58 53l97 63q5 -9 17 -16.5t22 -7.5q17 0 27 10.5t11 28.5q0 16 -11 25t-27 9h-108l31 243h206z" />
    <glyph glyph-name="six.numr" horiz-adv-x="367" 
d="M196 707q72 0 127 -51l-73 -83q-26 23 -57 23q-17 0 -31.5 -11.5t-15.5 -25.5l-1 -4q26 8 44 8q61 0 105 -41t44 -100q0 -62 -45 -106q-44 -43 -110 -43q-65 0 -109 43q-44 44 -44 106v122q0 70 47.5 116.5t118.5 46.5zM214 417q0 34 -31 34q-30 0 -30 -34q0 -33 30 -33
q31 0 31 33z" />
    <glyph glyph-name="seven.numr" horiz-adv-x="341" 
d="M311 700l-2 -80l-157 -341h-123l143 310h-135v111h274z" />
    <glyph glyph-name="eight.numr" horiz-adv-x="346" 
d="M173 707q58 0 99 -34.5t41 -92.5q0 -46 -44 -84q5 -3 20 -19q10 -8 19 -29.5t9 -43.5q0 -62 -39.5 -96.5t-104.5 -34.5q-62 0 -102.5 34t-40.5 97q0 25 10 45q3 7 6 12.5t5.5 8.5t6.5 7.5t5.5 6t7 6t7.5 6.5q-44 38 -44 84q0 58 40 92.5t99 34.5zM149 574q0 -10 7.5 -17
t16.5 -7q16 0 22 15t-5 26t-26 5t-15 -22zM144 411q0 -11 9 -20t20 -9q19 0 26.5 18t-6.5 31q-13 14 -31 6.5t-18 -26.5z" />
    <glyph glyph-name="nine.numr" horiz-adv-x="367" 
d="M337 557v-122q0 -69 -48 -116q-46 -46 -118 -46q-71 0 -127 50l73 83q25 -22 57 -22q17 0 31.5 12t15.5 25v3q-24 -8 -44 -8q-60 0 -104 41q-44 42 -44 100q0 62 44 106q46 44 109 44q64 0 110 -44q45 -43 45 -106zM213 561q0 34 -31 34q-30 0 -30 -34q0 -33 30 -33
q31 0 31 33z" />
    </font>
</defs>
</svg>
